<svg version="1.1" id="crane" xmlns="http://www.w3.org/2000/svg" xmlns:xlink="http://www.w3.org/1999/xlink" x="0px" y="0px" viewBox="0 0 424 492" style="enable-background:new 0 0 424 492;" xml:space="preserve">
<style type="text/css">
  #crane .st0{fill:#CBC8D6;}
  #crane .st1{fill:#E2E1E6;}
  #crane .st2{fill-rule:evenodd;clip-rule:evenodd;fill:#E2E1E6;}
  #crane .st3{fill:#E0E0E0;}
  #crane .st4{fill:#46396A;}
  #crane .st5{fill:#D3D3D3;}
  #crane .st6{fill:#AFAFAF;}
  #crane .st7{fill:none;stroke:#FD872F;stroke-width:2;stroke-linecap:round;stroke-miterlimit:10;}
  #crane .st8{fill:none;stroke:#FD872F;stroke-width:2;stroke-miterlimit:10;}
  #crane .st9{fill:none;stroke:#FD872F;stroke-miterlimit:10;}
  #crane .st10{fill:#FD872F;}
  #crane .st11{fill:#AF6043;}
  #crane .st12{fill:#5E5E5E;}
  #crane .st13{fill:#707070;}
  #crane .st14{fill:none;stroke:#46396A;stroke-width:0.75;stroke-miterlimit:10;}
  #crane .st15{fill:none;stroke:#3A3A3A;stroke-miterlimit:10;}
  #crane .st16{fill:none;stroke:#FD872F;stroke-width:3;stroke-miterlimit:10;}
</style>
<g>
  <path class="st0" d="M245,213.6v-0.2c0,0,0,0-0.1,0.1c-0.1-0.1-0.1-0.1-0.1-0.1v0.2c-2,2.2-19.1,21.9-16.9,51.7v194.3h16.9h0.2
    h16.9V265.3C264,235.5,246.9,215.8,245,213.6z"></path>
  <path class="st1" d="M351.5,270.1l5.1,5l0.4,0.1v1.1l-11.7-1.9h-0.6v-0.1l-51.5-8.2v3.7h3.1v8.3h2.4v6H295v0.9l0,0l0,0v15.7l0,0
    l0,0v1l0,0l0,0v15.7l0,0l0,0v1l0,0l0,0v15.7l0,0l0,0v1l0,0l0,0v15.7l0,0l0,0v1l0,0l0,0V368l0,0l0,0v1l0,0l0,0v15.7l0,0l0,0v1l0,0
    l0,0v15.7l0,0l0,0v1l0,0l0,0v15.7l0,0l0,0v1l0,0l0,0v15.7l0,0l0,0v1l0,0l0,0V452l0,0l0,0v3.7h-17.6v-0.2h-4.6v2.8h-7.1v-2.8h-15.1
    v6.9h-1.3v-6.9h-23.1v6.9H225v-6.9h-2.6v2.8h-7.1v-2.8h-13.4v-4.7h13.4v-12.8h-13.5v24.3h-1.3v-24.3h-18.9c-0.7,1.8-2.3,3-4.2,3.3
    v3.9c3.7,0.7,6.5,4,6.5,7.9c0,3.9-2.8,7.2-6.5,7.9v1.4h-1.3v-1.3c-0.1,0-0.2,0-0.3,0h-71.5c-4.4,0-8-3.6-8-8c0-4.4,3.6-8,8-8h20
    v-3.7h-20.3c-2.9,0-5.3-2.4-5.3-5.3v-5.3v-4.5v-14.3c0-2.9,2.4-5.3,5.3-5.3h28.6c2.9,0,5.3,2.4,5.3,5.3v9h5.2l-0.5-21.5h20.2
    l2.3,3.4l4.5-10.5h-11.3v-1.7h12l5.8-13.6v-3h-17.8v-1.7h17.8v-16.6h-17.8v-1.7h17.8v-16.6h-17.8v-1.7h17.8v-9.4H91.5V320h47.7
    l7.8-20c-0.9-0.1-1.6-0.5-1.9-1.1c-0.5-0.8-0.4-2,0.2-3.4c1.1-2.2,1.5-4,1.5-5.2c0,0,0,0,0,0c-2.9,0-5.3-2.4-5.3-5.3
    c0-1.9,1-3.6,2.6-4.5l-5.4-34.8l-2.8-0.9l6.1-20h8.1l3.2,8l45.9-1.1V219h1v12.6l16.1-0.4V219h1v12.2l20.1-0.5V219h1v11.7l42.1-1
    l2.5-9.4h14v11.5l60.5,32.7l-0.4,0.8L297,232.8v23.2l60,9.6v0.7l0.7-0.4l0.7,0.7l-2.5,1.2L351.5,270.1z M139.7,320h16.8l-8.3-19.9
    c0,0-0.1,0-0.1,0c-0.1,0-0.1,0-0.2,0c-0.1,0-0.2,0-0.3,0L139.7,320z M148.7,248.9l-8.9-2.9l5.3,34c0.5-0.2,1.1-0.3,1.7-0.3
    c0.8,0,1.6,0.2,2.3,0.6l3.8-35.4L148.7,248.9z M150.1,280.9c1.2,1,1.9,2.4,1.9,4.1c0,2.4-1.6,4.4-3.8,5.1c0,1.5-0.4,3.5-1.7,6.1
    c-0.4,0.9-0.6,1.6-0.3,2c0.2,0.4,0.9,0.6,1.8,0.5c0.8,0,1-0.2,1-0.3c0.2-0.2,0-0.9-0.2-1.5c-0.2-0.7-0.4-1.4-0.3-2.1
    c0,0,2.2,3.7,1.6,4.4c-0.3,0.4-0.8,0.7-1.6,0.8l8.4,20h42.2v-68.9l-45.2-7.2L150.1,280.9z M180.7,422.9h19.8v-12.1h-23.1v10.3
    C178.7,421.3,179.9,422,180.7,422.9z M278.4,450.9h0.2l6.7-6.7l-6.8-6.9V450.9z M286.2,443.3l7.5-7.5l-7.5-7.5l-4.2,4.2h3v4.7h-4.8
    L286.2,443.3z M276.1,278.1v-8.3h2.9v-6l-6.2-1v23h4.6v-1.8h-3.7v-6H276.1z M274.2,254.2l-1-0.9l-0.1,0l-6.7,3.3l3.7,3.6h2.7v1.2
    l5.9-2.8l-2.4-2.4h-2.5L274.2,254.2z M154.9,243l4.9,0.8l-3.3-3.2l0.3,0.7L154.9,243z M161.4,244l0.2,0l6.7-3.2l-5.4-5.2l-0.1,0
    l-6.7,3.3L161.4,244z M163.1,244.3l10.5,1.7l-4.7-4.5L163.1,244.3z M169.2,240.4l5.9-2.9l-10.6-1.7L169.2,240.4z M169.8,241.1
    l5.3,5.2l0.2,0l6.7-3.2l-5.4-5.2l-0.1,0L169.8,241.1z M176.9,246.5l10.5,1.7l-4.7-4.5L176.9,246.5z M183,242.6l5.9-2.9l-10.6-1.7
    L183,242.6z M183.6,243.3l5.3,5.2l0.2,0l6.7-3.2l-5.4-5.2l-0.1,0L183.6,243.3z M199.3,248.5l-2.7-2.6l-5.8,2.8l8.6,1.4V248.5z
     M200.3,250.2l0.9,0.1l-0.9-0.9V250.2z M199.3,247.3v-2.7l-1.9,0.9L199.3,247.3z M196.7,244.8l2.6-1.2v-2.2l-7.3-1.2L196.7,244.8z
     M200.3,243.1l2.3-1.1l-2.3-0.4V243.1z M200.3,244.1v4.2l2.5,2.4l0.2,0l6.7-3.2l-5.4-5.2l-0.1,0L200.3,244.1z M204.5,250.9
    l10.5,1.7l-4.7-4.5L204.5,250.9z M210.5,247l5.9-2.8v0l-10.6-1.7L210.5,247z M211.2,247.7l5.2,5v-7.5L211.2,247.7z M200.3,340.6
    v13.5h0.2v-13.9L200.3,340.6z M185.8,372.5h8.2v-16.6h-3.8l-4.4,6.6V372.5z M177.4,404.3l6.5-11.8h-6.5V404.3z M199.3,374.2h-2.6
    l-9.1,16.6h11.7V374.2z M200.3,390.8h0.2v-16.6h-0.2V390.8z M195.8,370.9l3.5-8.3v-6.8h-3.7v15.3L195.8,370.9z M198,371.9l-0.3,0.6
    h1.6v-3.6L198,371.9z M194,374.2h-8.2V389L194,374.2z M194,354.1v-4l-2.6,4H194z M195.6,354.1h3.7v-12l-3.7,5.6V354.1z
     M265.7,418.9h-15.1v4h15.1V418.9z M281.6,414.2l3.6-3.6l-6.8-6.9v10.5H281.6z M285.3,393.8l-6.8-6.9v9h4.7L285.3,393.8z
     M285.3,377l-6.8-6.9v7.4h6.3L285.3,377z M284.4,308.9h-6v7.7l6.8-6.9L284.4,308.9z M268.8,260l-3.3-3.1l-5.8,2.8l6,1V260H268.8z
     M238.5,257.4v28.5h27.2v-24.1L238.5,257.4z M256.4,259.2l-4.7-4.5l-5.8,2.8L256.4,259.2z M237.5,252.7l-5.4,2.6l5.4,0.9V252.7z
     M238.5,256.3l4.1,0.7l-4.1-4V256.3z M238.5,290.6v13.6h27.2v-13.6H238.5z M211.6,327.2v6.5l2.8-6.5H211.6z M208.6,340.9l1.4-3.3v0
    h-6v3.3H208.6z M204,345.6v6l2.6-6H204z M211.3,340.9h4.1v-3.3h-2.6L211.3,340.9z M265.7,400.6h-15.1v8.5h15.1V400.6z M265.7,395.9
    v-3.4h-15.1v3.4H265.7z M265.7,382.3h-15.1v8.5h15.1V382.3z M265.7,377.6v-3.4h-15.1v3.4H265.7z M222.4,327.2v8.6h2.6v-8.6H222.4z
     M222.4,340.9h2.6v-3.3h-2.6V340.9z M249.4,363.9h-10.9v8.5h10.9V363.9z M226.2,340.9h11.3v-3.3h-11.3V340.9z M226.2,359.2h11.3
    v-3.4h-11.3V359.2z M237.5,354.1v-8.6h-11.3v8.6H237.5z M238.5,340.9h10.9v-3.3h-10.9V340.9z M238.5,345.6v8.6h10.9v-8.6H238.5z
     M238.5,355.9v3.4h10.9v-3.4H238.5z M237.5,363.9h-11.3v8.5h11.3V363.9z M225,363.9h-2.6v8.5h2.6V363.9z M225,359.2v-3.4h-2.6v3.4
    H225z M225,354.1v-8.6h-2.6v8.6H225z M226.2,335.8h11.3v-8.6h-11.3V335.8z M238.5,335.8h10.9v-8.6h-10.9V335.8z M250.7,335.8h15.1
    v-8.6h-15.1V335.8z M265.7,337.5h-15.1v3.3h15.1V337.5z M250.7,345.6v8.6h15.1v-8.6H250.7z M265.7,355.9h-15.1v3.4h15.1V355.9z
     M250.7,363.9v8.5h15.1v-8.5H250.7z M249.4,374.2h-10.9v3.4h10.9V374.2z M237.5,374.2h-11.3v3.4h11.3V374.2z M225,374.2h-2.6v3.4
    h2.6V374.2z M225.6,317.6c0,1.8-0.6,3.5-1.6,4.9h13.5v-13.6h-15.1v2.1C224.4,312.5,225.6,314.9,225.6,317.6z M238.5,322.5h27.2
    v-13.6h-27.2V322.5z M272.8,322.5h4.6v-13.6h-4.6V322.5z M272.8,327.2v13.6h4.6v-13.6H272.8z M272.8,345.6v13.6h4.6v-13.6H272.8z
     M272.8,363.9v13.6h4.6v-13.6H272.8z M272.8,382.3v13.6h4.6v-13.6H272.8z M249.4,392.5h-10.9v3.4h10.9V392.5z M249.4,390.8v-8.5
    h-10.9v8.5H249.4z M237.5,382.3h-11.3v8.5h11.3V382.3z M225,382.3h-2.6v4.1h0.6v2.7h-0.6v1.7h2.6V382.3z M215.3,335.8v-4.4
    l-1.9,4.4H215.3z M222.4,304.2h15.1v-13.6h-15.1V304.2z M272.8,304.2h4.6v-13.6h-4.6V304.2z M278.4,304.2h1.3l-1.3-1.3V304.2z
     M278.4,322.5h2.9l-2.9-2.9V322.5z M285.3,326.5l-0.3-0.3v0.5L285.3,326.5z M278.4,327.2v6.1l6.1-6.1H278.4z M278.4,340.9h4.4
    l-4.4-4.4V340.9z M278.4,345.6v4.6l4.6-4.6H278.4z M285,343.6l0.3-0.3l-0.3-0.3V343.6z M278.4,359.2h5.9l-5.9-5.9V359.2z
     M278.4,363.9v3.1l3.1-3.1H278.4z M285,360.4l0.3-0.3l-0.3-0.3V360.4z M278.4,382.3v1.6l1.6-1.6H278.4z M278.4,400.6L278.4,400.6
    L278.4,400.6L278.4,400.6z M277.4,400.6h-4.6v13.6h4.6V400.6z M265.7,410.8h-15.1v3.4h15.1V410.8z M249.4,432.6v-7.9h-23.1v7.9
    H249.4z M249.4,422.9v-4h-23.1v4H249.4z M249.4,414.2v-3.4h-23.1v3.4H249.4z M249.4,409.1v-8.5h-10.9v0.5h-1v-0.5h-11.3v8.5H249.4z
     M237.5,395.9v-3.4h-11.3v3.4H237.5z M225,392.5h-2.6v3.4h2.6V392.5z M215.3,345.6h-6.1l-3.7,8.6h9.7V345.6z M202.4,345.6h-0.5
    v-4.7h0.5v-3.3h0l-0.5,0.8v15.8h0.6V345.6z M204,335.8h6v-8.6h-0.8L204,335V335.8z M222.4,278.8v7.1h15.1v-28.6l-20.1-3.2v24.8
    H222.4z M228.8,254.8l-4.7-4.5l-5.8,2.8L228.8,254.8z M217.4,252.6l6.1-2.9l-5.4-5.2l-0.1,0l-0.6,0.3V252.6z M224.3,249.2l5.9-2.9
    l-10.6-1.7L224.3,249.2z M225,249.9l5.3,5.2l0.2,0l6.7-3.2l-5.4-5.2l-0.1,0L225,249.9z M237.5,250.8v-3.3l-4.1-0.7L237.5,250.8z
     M238.5,251.2l5.5-2.7l-5.5-0.9V251.2z M238.8,252.1l5.3,5.2l0.2,0l6.7-3.2l-5.4-5.2l-0.1,0L238.8,252.1z M251.9,253.6l5.9-2.9
    l-10.6-1.7L251.9,253.6z M252.6,254.3l5.3,5.2l0.2,0l6.7-3.2l-5.4-5.2l-0.1,0L252.6,254.3z M265.7,255.8l5.9-2.9l-10.6-1.7
    L265.7,255.8z M279,257.5v-1.5h-1.5L279,257.5z M273.5,261.9l5.5,0.9v-3.5L273.5,261.9z M278.4,290.6v9.2l6.8-6.9l-2.3-2.3H278.4z
     M278.7,301.3l2.9,2.9h3.4v3.4l1.2,1.2l7.5-7.5l-7.5-7.5L278.7,301.3z M278.7,318.1l4.4,4.4h1.9v1.9l1.2,1.2l7.5-7.5l-7.5-7.5
    L278.7,318.1z M278.7,334.9l5.9,5.9h0.4v0.4l1.2,1.2l7.5-7.5l-7.5-7.5L278.7,334.9z M285,345.5v0.1h-0.1l-6.2,6.2l7.5,7.5l7.5-7.5
    l-7.5-7.5L285,345.5z M285,362.3v1.6h-1.6l-4.6,4.6l7.5,7.5l7.5-7.5l-7.5-7.5L285,362.3z M285,379.1v3.2h-3.2l-3.1,3.1l7.5,7.5
    l7.5-7.5l-7.5-7.5L285,379.1z M285,395.9v4.7h-4.7l-1.6,1.6l7.5,7.5l7.5-7.5l-7.5-7.5L285,395.9z M283.5,414.2h1.5v4.7h-6.2
    l-0.1,0.1l7.5,7.5l7.5-7.5l-7.5-7.5L283.5,414.2z M280.1,432.6l5.2-5.2l-6.8-6.9v12H280.1z M277.4,418.9h-4.6v13.6h4.6V418.9z
     M265.7,424.6h-15.1v7.9h15.1V424.6z M225,432.6v-7.9h-2.6v7.9H225z M225,422.9v-4h-2.6v4H225z M225,414.2v-3.4h-2.6v3.4H225z
     M225,409.1v-8.5h-2.6v8.5H225z M215.3,355.9h-10.5l-1.4,3.4h11.9V355.9z M202.2,355.9h-0.4v0.9L202.2,355.9z M200.5,355.9h-0.2
    v4.4l0.2-0.6V355.9z M200.3,366.5v6h0.2v-6.5L200.3,366.5z M169.2,419.3l-3.8-5.6v7.4h2.8L169.2,419.3z M163.8,421.1v-8.6l-3.6,8.6
    H163.8z M172.3,413.7l1.6-2.9h-3.5L172.3,413.7z M173.8,416l2.3,3.5v-7.8L173.8,416z M200.5,409.1v-16.6h-0.2v8.6h-1v-8.6h-12.6
    l-9.1,16.6H200.5z M177.4,390.8h6.8v-16.6h-4.1l-2.7,6.3V390.8z M184.2,372.5V365l-0.5,0.7l-2.9,6.8H184.2z M181.5,364.6l0-0.1
    l5.7-8.6h-9.9v16.6h0.7L181.5,364.6z M188.4,354.1l10.9-16.4v-0.2h-21.9v16.6H188.4z M200.5,335.8V323h1.3v10.9l4.4-6.7h-4.3v-4.7
    h7.4l0.6-0.9c-0.7-1.2-1-2.6-1-4c0-3.9,2.7-7.2,6.4-8.1v-0.6h-13.4v-4.7h13.4v-13.6h-13.4v-4.7h13.4v-7.1h1.1v-25l-16.1-2.6v84.5
    H200.5z M155.5,238.1l5.7-2.8l-7.3-1.2L155.5,238.1z M156.7,233.6l42.6,6.8v-7.8L156.7,233.6z M200.3,232.5v8l16.1,2.6v-10.9
    L200.3,232.5z M217.4,232.1v11.1l20.1,3.2v-14.8L217.4,232.1z M238.5,231.6v15l36.2,5.8l5.6-21.7L238.5,231.6z M293.2,256.4v2
    l2.2,2.1l5.9-2.9L293.2,256.4z M293.2,259.6v2l1.4-0.7L293.2,259.6z M304.4,258.2l4.7,4.6l5.9-2.9L304.4,258.2z M318.2,260.4
    l4.7,4.6l5.9-2.9L318.2,260.4z M332,262.6l4.7,4.6l5.9-2.9L332,262.6z M356.4,266.5l-10.6-1.7l3,2.9l1.6,1.7L356.4,266.5z
     M355,274.9l-4.6-4.6l-5.7,3.1L355,274.9z M344.7,273.3L344.7,273.3l-0.1,0L344.7,273.3z M343,273l1.7-0.8l4.9-2.5l-1.9-2l-3.3-3.2
    l-0.1,0l-6.7,3.3l5.3,5.2L343,273z M341.3,272.7l-4.7-4.5l-5.8,2.8L341.3,272.7z M329.2,270.8l6.7-3.2l-5.4-5.2l-0.1,0l-6.7,3.3
    l5.3,5.2L329.2,270.8z M327.5,270.5l-4.7-4.5l-5.8,2.8L327.5,270.5z M315.4,268.6l6.7-3.2l-5.4-5.2l-0.1,0l-6.7,3.3l5.3,5.2
    L315.4,268.6z M313.7,268.3l-4.7-4.5l-5.8,2.8L313.7,268.3z M301.6,266.4l6.7-3.2l-5.4-5.2l-0.1,0l-6.7,3.3l5.3,5.2L301.6,266.4z
     M299.9,266.1l-4.7-4.5l-2,1v2.4L299.9,266.1z M279,284.8l1,1h4.9v4.7h-0.2l1.4,1.4l7.2-7.2H279z M293.9,286.1l-6.8,6.8l6.8,6.8
    V286.1z M293.9,302.9l-6.8,6.8l6.8,6.8V302.9z M293.9,319.8l-6.8,6.8l6.8,6.8V319.8z M293.9,336.6l-6.8,6.8l6.8,6.8V336.6z
     M293.9,353.4l-6.8,6.8l6.8,6.8V353.4z M293.9,370.2l-6.8,6.8l6.8,6.8V370.2z M293.9,387l-6.8,6.8l6.8,6.8V387z M293.9,403.8
    l-6.8,6.8l6.8,6.8V403.8z M293.9,420.6l-6.8,6.8l6.8,6.8V420.6z M293.9,437.4l-6.8,6.8l6.8,6.8V437.4z M293.9,452.8l-7.7-7.7
    l-5.8,5.8h4.6v3.9h8.9V452.8z M277.4,450.9v-13.6h-4.6v13.6H277.4z M265.7,450.9v-12.8h-15.1v12.8H265.7z M249.4,450.9v-12.8h-23.1
    v12.8H249.4z M222.4,450.9h2.6v-12.8h-2.6V450.9z M201.8,436.4L201.8,436.4l0.1-3.9h13.4v-7.9h-13.5V436.4z M201.8,422.9h13.5v-4
    h-13.4v-4.7h13.4v-3.4h-13.5V422.9z M201.8,409.1h13.5v-8.5h-13.4v-4.7h9.4c0.4-1.3,1.1-2.5,1.3-3c0.5,0.7-0.1,1.9-0.3,3h3v-3.4
    h-13.5V409.1z M201.8,390.8h13.5V389h-2.5v-2.7h2.5v-4.1h-13.4v-4.7h13.4v-3.4h-13.5V390.8z M215.3,372.5v-8.5h-13.4v-1.2l-0.1,0.2
    v9.5H215.3z M200.5,436.4v-11.8h-18.9c0.2,0.5,0.3,1.1,0.3,1.8v9.8c0,0.1,0,0.2,0,0.2H200.5z M157.8,445.2h18.1c0.1,0,0.2,0,0.3,0
    v-3.7h-18.3V445.2z M148.5,405.3l0.4,15.8h8.6l4.4-10.3h-3.5v-1.7h4l-2.5-3.8H148.5z M166.8,405.5l2.4,3.6h5.5v-16.6h-2.4
    L166.8,405.5z M173,390.8h1.6v-3.8L173,390.8z M177.4,374.2L177.4,374.2L177.4,374.2L177.4,374.2z M177.4,335.8h21.9v-9.4h-21.9
    V335.8z"></path>
  <path class="st2" d="M251.2,452.8c112.6-2.2,203.5-11.6,203.5,31.2c0,15.2-93.2,15-206.4,14c-151.6-1.3-216.6-5.8-203.5-21.3
    C54.7,465.1,138,455,251.2,452.8z"></path>
</g>
<g>
  <g>
    <polygon class="st3" points="333.6,437.8 358.6,435 383.4,437.8 361.4,442.1 355.5,442.1    "></polygon>
    <polygon class="st4" points="354.5,441.8 354.5,441.8 362.8,441.7 362.8,478 354.5,478    "></polygon>
    <polygon class="st4" points="383.4,455.9 389.4,461.7 396,461.7 399,464.6 399.1,468.8 390,468.8 390,464 373.9,464 383.4,460.3
          "></polygon>
    <polygon class="st4" points="333.5,455.9 327.5,461.7 320.9,461.7 317.9,464.6 317.8,468.8 326.8,468.8 326.8,464 343,464
      333.5,460.3     "></polygon>
    <polygon class="st5" points="333.6,437.8 333.6,462.4 355.5,468.8 355.5,442.1    "></polygon>
    <polygon class="st6" points="383.4,437.8 383.4,462.4 361.4,468.8 361.4,442.1    "></polygon>
  </g>
  <g>
    <line class="st7" x1="343.1" y1="136" x2="343.1" y2="437.1"></line>
    <line class="st7" x1="358.4" y1="136.9" x2="358.4" y2="439.8"></line>
    <line class="st7" x1="373.2" y1="136" x2="373.2" y2="437.1"></line>
    <g>
      <polyline class="st8" points="373.2,241.5 358.4,242.1 343.1,241.5       "></polyline>
      <polyline class="st8" points="343.1,253.9 358.4,254.5 373.2,253.9       "></polyline>
      <polyline class="st8" points="343.1,257.2 358.4,257.8 373.2,257.2       "></polyline>
      <line class="st9" x1="350.8" y1="228.5" x2="343.1" y2="241.5"></line>
      <line class="st9" x1="343.1" y1="241.5" x2="358.4" y2="254.5"></line>
      <line class="st9" x1="358.4" y1="242.1" x2="343.1" y2="253.9"></line>
      <line class="st9" x1="358.4" y1="242.1" x2="373.2" y2="253.9"></line>
      <line class="st9" x1="358.4" y1="254.5" x2="373.2" y2="241.5"></line>
      <line class="st9" x1="358.4" y1="242.1" x2="350.8" y2="228.5"></line>
      <line class="st9" x1="359" y1="241.5" x2="366.5" y2="228.5"></line>
      <line class="st9" x1="366.5" y1="228.5" x2="373.2" y2="241.5"></line>
    </g>
    <g>
      <polyline class="st8" points="373.2,212.2 358.4,212.8 343.1,212.2       "></polyline>
      <polyline class="st8" points="343.1,224.6 358.4,225.2 373.2,224.6       "></polyline>
      <polyline class="st8" points="343.1,227.9 358.4,228.5 373.2,227.9       "></polyline>
      <line class="st9" x1="350.8" y1="199.2" x2="343.1" y2="212.2"></line>
      <line class="st9" x1="343.1" y1="212.2" x2="358.4" y2="225.2"></line>
      <line class="st9" x1="358.4" y1="212.8" x2="343.1" y2="224.6"></line>
      <line class="st9" x1="358.4" y1="212.8" x2="373.2" y2="224.6"></line>
      <line class="st9" x1="358.4" y1="225.2" x2="373.2" y2="212.2"></line>
      <line class="st9" x1="358.4" y1="212.8" x2="350.8" y2="199.2"></line>
      <line class="st9" x1="359" y1="212.2" x2="366.5" y2="199.2"></line>
      <line class="st9" x1="366.5" y1="199.2" x2="373.2" y2="212.2"></line>
    </g>
    <g>
      <polyline class="st8" points="373.2,183.6 358.4,184.2 343.1,183.6       "></polyline>
      <polyline class="st8" points="343.1,196 358.4,196.5 373.2,196       "></polyline>
      <polyline class="st8" points="343.1,199.3 358.4,199.9 373.2,199.3       "></polyline>
      <line class="st9" x1="350.8" y1="170.6" x2="343.1" y2="183.6"></line>
      <line class="st9" x1="343.1" y1="183.6" x2="358.4" y2="196.5"></line>
      <line class="st9" x1="358.4" y1="184.2" x2="343.1" y2="196"></line>
      <line class="st9" x1="358.4" y1="184.2" x2="373.2" y2="196"></line>
      <line class="st9" x1="358.4" y1="196.5" x2="373.2" y2="183.6"></line>
      <line class="st9" x1="358.4" y1="184.2" x2="350.8" y2="170.6"></line>
      <line class="st9" x1="359" y1="183.6" x2="366.5" y2="170.5"></line>
      <line class="st9" x1="366.5" y1="170.5" x2="373.2" y2="183.6"></line>
    </g>
    <g>
      <polyline class="st8" points="373.2,154.3 358.4,154.9 343.1,154.3       "></polyline>
      <polyline class="st8" points="373.2,141 358.4,141.6 343.1,141       "></polyline>
      <polyline class="st8" points="343.1,166.7 358.4,167.3 373.2,166.7       "></polyline>
      <polyline class="st8" points="343.1,170 358.4,170.6 373.2,170       "></polyline>
      <line class="st9" x1="350.8" y1="141.3" x2="343.1" y2="154.3"></line>
      <line class="st9" x1="343.1" y1="154.3" x2="358.4" y2="167.3"></line>
      <line class="st9" x1="358.4" y1="154.9" x2="343.1" y2="166.7"></line>
      <line class="st9" x1="358.4" y1="154.9" x2="373.2" y2="166.7"></line>
      <line class="st9" x1="358.4" y1="167.3" x2="373.2" y2="154.3"></line>
      <line class="st9" x1="358.4" y1="154.9" x2="350.8" y2="141.3"></line>
      <line class="st9" x1="359" y1="154.3" x2="366.5" y2="141.2"></line>
      <line class="st9" x1="366.5" y1="141.2" x2="373.2" y2="154.3"></line>
    </g>
    <g>
      <polyline class="st8" points="373.2,270.5 358.4,271.1 343.1,270.5       "></polyline>
      <polyline class="st8" points="343.1,282.9 358.4,283.5 373.2,282.9       "></polyline>
      <polyline class="st8" points="343.1,286.2 358.4,286.8 373.2,286.2       "></polyline>
      <line class="st9" x1="350.8" y1="257.5" x2="343.1" y2="270.5"></line>
      <line class="st9" x1="343.1" y1="270.5" x2="358.4" y2="283.5"></line>
      <line class="st9" x1="358.4" y1="271.1" x2="343.1" y2="282.9"></line>
      <line class="st9" x1="358.4" y1="271.1" x2="373.2" y2="282.9"></line>
      <line class="st9" x1="358.4" y1="283.5" x2="373.2" y2="270.5"></line>
      <line class="st9" x1="358.4" y1="271.1" x2="350.8" y2="257.5"></line>
      <line class="st9" x1="359" y1="270.5" x2="366.5" y2="257.5"></line>
      <line class="st9" x1="366.5" y1="257.5" x2="373.2" y2="270.5"></line>
    </g>
    <g>
      <polyline class="st8" points="373.2,299.6 358.4,300.1 343.1,299.6       "></polyline>
      <polyline class="st8" points="343.1,311.9 358.4,312.5 373.2,311.9       "></polyline>
      <polyline class="st8" points="343.1,315.2 358.4,315.8 373.2,315.2       "></polyline>
      <line class="st9" x1="350.8" y1="286.5" x2="343.1" y2="299.6"></line>
      <line class="st9" x1="343.1" y1="299.6" x2="358.4" y2="312.5"></line>
      <line class="st9" x1="358.4" y1="300.1" x2="343.1" y2="311.9"></line>
      <line class="st9" x1="358.4" y1="300.1" x2="373.2" y2="311.9"></line>
      <line class="st9" x1="358.4" y1="312.5" x2="373.2" y2="299.6"></line>
      <line class="st9" x1="358.4" y1="300.1" x2="350.8" y2="286.5"></line>
      <line class="st9" x1="359" y1="299.6" x2="366.5" y2="286.5"></line>
      <line class="st9" x1="366.5" y1="286.5" x2="373.2" y2="299.6"></line>
    </g>
    <g>
      <polyline class="st8" points="373.2,328.3 358.4,328.9 343.1,328.3       "></polyline>
      <polyline class="st8" points="343.1,340.7 358.4,341.2 373.2,340.7       "></polyline>
      <polyline class="st8" points="343.1,344 358.4,344.6 373.2,344       "></polyline>
      <line class="st9" x1="350.8" y1="315.3" x2="343.1" y2="328.3"></line>
      <line class="st9" x1="343.1" y1="328.3" x2="358.4" y2="341.2"></line>
      <line class="st9" x1="358.4" y1="328.9" x2="343.1" y2="340.7"></line>
      <line class="st9" x1="358.4" y1="328.9" x2="373.2" y2="340.7"></line>
      <line class="st9" x1="358.4" y1="341.2" x2="373.2" y2="328.3"></line>
      <line class="st9" x1="358.4" y1="328.9" x2="350.8" y2="315.3"></line>
      <line class="st9" x1="359" y1="328.3" x2="366.5" y2="315.2"></line>
      <line class="st9" x1="366.5" y1="315.2" x2="373.2" y2="328.3"></line>
    </g>
    <g>
      <polyline class="st8" points="373.2,357.4 358.4,357.9 343.1,357.4       "></polyline>
      <polyline class="st8" points="343.1,369.7 358.4,370.3 373.2,369.7       "></polyline>
      <polyline class="st8" points="343.1,373 358.4,373.6 373.2,373       "></polyline>
      <line class="st9" x1="350.8" y1="344.3" x2="343.1" y2="357.4"></line>
      <line class="st9" x1="343.1" y1="357.4" x2="358.4" y2="370.3"></line>
      <line class="st9" x1="358.4" y1="357.9" x2="343.1" y2="369.7"></line>
      <line class="st9" x1="358.4" y1="357.9" x2="373.2" y2="369.7"></line>
      <line class="st9" x1="358.4" y1="370.3" x2="373.2" y2="357.4"></line>
      <line class="st9" x1="358.4" y1="357.9" x2="350.8" y2="344.3"></line>
      <line class="st9" x1="359" y1="357.4" x2="366.5" y2="344.3"></line>
      <line class="st9" x1="366.5" y1="344.3" x2="373.2" y2="357.4"></line>
    </g>
    <g>
      <polyline class="st8" points="373.2,386.1 358.4,386.7 343.1,386.1       "></polyline>
      <polyline class="st8" points="343.1,398.5 358.4,399 373.2,398.5       "></polyline>
      <polyline class="st8" points="343.1,401.8 358.4,402.3 373.2,401.8       "></polyline>
      <line class="st9" x1="350.8" y1="373" x2="343.1" y2="386.1"></line>
      <line class="st9" x1="343.1" y1="386.1" x2="358.4" y2="399"></line>
      <line class="st9" x1="358.4" y1="386.7" x2="343.1" y2="398.5"></line>
      <line class="st9" x1="358.4" y1="386.7" x2="373.2" y2="398.5"></line>
      <line class="st9" x1="358.4" y1="399" x2="373.2" y2="386.1"></line>
      <line class="st9" x1="358.4" y1="386.7" x2="350.8" y2="373"></line>
      <line class="st9" x1="359" y1="386.1" x2="366.5" y2="373"></line>
      <line class="st9" x1="366.5" y1="373" x2="373.2" y2="386.1"></line>
    </g>
    <g>
      <polyline class="st8" points="373.2,414.9 358.4,415.4 343.1,414.9       "></polyline>
      <polyline class="st8" points="343.1,427.2 358.4,427.8 373.2,427.2       "></polyline>
      <polyline class="st8" points="343.1,430.5 358.4,431.1 373.2,430.5       "></polyline>
      <line class="st9" x1="350.8" y1="401.8" x2="343.1" y2="414.9"></line>
      <line class="st9" x1="343.1" y1="414.9" x2="358.4" y2="427.8"></line>
      <line class="st9" x1="358.4" y1="415.4" x2="343.1" y2="427.2"></line>
      <line class="st9" x1="358.4" y1="415.4" x2="373.2" y2="427.2"></line>
      <line class="st9" x1="358.4" y1="427.8" x2="373.2" y2="414.9"></line>
      <line class="st9" x1="358.4" y1="415.4" x2="350.8" y2="401.8"></line>
      <line class="st9" x1="359" y1="414.9" x2="366.5" y2="401.8"></line>
      <line class="st9" x1="366.5" y1="401.8" x2="373.2" y2="414.9"></line>
    </g>
    <line class="st8" x1="343.1" y1="136" x2="373.2" y2="136"></line>
  </g>
  <g>
    <polyline class="st8" points="373.2,137.8 379.2,137.8 379.2,210.1 358.4,212.2 338.4,211 338.4,137.8 343.1,137.8     "></polyline>
    <line class="st8" x1="358.4" y1="136" x2="358.4" y2="212.2"></line>
    <g>
      <line class="st8" x1="358.4" y1="212.2" x2="338.4" y2="200.2"></line>
      <line class="st8" x1="358.8" y1="192.7" x2="338.4" y2="200.2"></line>
      <line class="st8" x1="358.4" y1="192.7" x2="338.4" y2="180.6"></line>
      <line class="st8" x1="358.8" y1="173.1" x2="338.4" y2="180.6"></line>
      <line class="st8" x1="358.4" y1="173.1" x2="338.4" y2="161"></line>
      <line class="st8" x1="358.8" y1="153.5" x2="338.4" y2="161"></line>
      <line class="st8" x1="358.4" y1="153.5" x2="338.4" y2="141.5"></line>
    </g>
    <g>
      <line class="st8" x1="359.2" y1="212.2" x2="379.2" y2="200.2"></line>
      <line class="st8" x1="358.8" y1="192.7" x2="379.2" y2="200.2"></line>
      <line class="st8" x1="359.2" y1="192.7" x2="379.2" y2="180.6"></line>
      <line class="st8" x1="358.8" y1="173.1" x2="379.2" y2="180.6"></line>
      <line class="st8" x1="359.2" y1="173.1" x2="379.2" y2="161"></line>
      <line class="st8" x1="358.8" y1="153.5" x2="379.2" y2="161"></line>
      <line class="st8" x1="359.2" y1="153.5" x2="379.2" y2="141.5"></line>
    </g>
    <g>
      <polygon class="st8" points="358.4,170.5 330.1,169.5 330.1,157.3 358.4,158.3 387,157.3 387,168.7      "></polygon>
      <polyline class="st9" points="330.1,163.9 358.4,164.5 387,162.7       "></polyline>
    </g>
  </g>
  <polygon class="st10" points="344,123.7 344,127.2 341,136 346.8,136 351,129.8 353.8,136 358.8,136 358.8,123.7   "></polygon>
  <polygon class="st11" points="373.5,123.7 373.5,127.2 376.6,136 370.8,136 366.5,129.8 363.8,136 358.8,136 358.8,123.7   "></polygon>
  <g>
    <polygon class="st11" points="343.9,120.6 343.9,104.4 346.3,104.4 352.6,120.6     "></polygon>
    <polygon class="st11" points="374.2,120.6 374.2,104.4 371.8,104.4 365.5,120.6     "></polygon>
    <polygon class="st11" points="352.6,120.6 358.1,104.4 359.3,104.4 365.5,120.6     "></polygon>
  </g>
  <rect x="340.3" y="120.6" class="st10" width="37" height="3.1"></rect>
  <g>
    <g>
      <polygon class="st11" points="194.2,55 200.3,75.1 204,75.2 198.9,55.1       "></polygon>
      <polygon class="st11" points="194.2,55 188,75.2 200.3,75.1      "></polygon>
    </g>
    <g>
      <polygon class="st11" points="275.6,56.7 281.7,75.1 285.4,75.2 279.6,56.7       "></polygon>
      <polygon class="st11" points="275.6,56.7 269.4,75.2 281.7,75.1      "></polygon>
    </g>
    <g>
      <polygon class="st11" points="106.8,53.1 113,74.5 116.6,74.6 111.5,53.5       "></polygon>
      <polygon class="st11" points="106.8,53.1 100.7,74.6 113,74.5      "></polygon>
    </g>
    <g>
      <polygon class="st11" points="60.3,52.3 66.1,74.5 69.7,74.3 64.6,52.5       "></polygon>
      <polygon class="st11" points="60.3,52.3 52.8,74.1 66.1,74.5       "></polygon>
    </g>
    <polygon class="st8" points="19.6,51.5 332.1,57.8 332.1,75.6 19.6,74    "></polygon>
    <line class="st8" x1="37.2" y1="74.1" x2="37.2" y2="51.8"></line>
    <line class="st8" x1="52.8" y1="52.1" x2="52.8" y2="74.1"></line>
    <line class="st8" x1="71.3" y1="52.5" x2="71.3" y2="74.3"></line>
    <line class="st8" x1="85.8" y1="52.8" x2="85.8" y2="74.4"></line>
    <line class="st8" x1="100.7" y1="53.1" x2="100.7" y2="74.4"></line>
    <line class="st8" x1="118.7" y1="53.5" x2="118.7" y2="74.5"></line>
    <line class="st8" x1="132.9" y1="53.5" x2="132.9" y2="74.4"></line>
    <line class="st8" x1="146.7" y1="54" x2="146.7" y2="74.7"></line>
    <line class="st8" x1="160.7" y1="54.3" x2="160.7" y2="74.7"></line>
    <path class="st8" d="M174.5,54.6"></path>
    <line class="st8" x1="174.5" y1="74.8" x2="174.5" y2="54.6"></line>
    <line class="st8" x1="187.6" y1="54.9" x2="187.6" y2="74.5"></line>
    <line class="st8" x1="205.4" y1="55.2" x2="205.4" y2="74.8"></line>
    <line class="st8" x1="218.7" y1="55.5" x2="218.7" y2="74.8"></line>
    <line class="st8" x1="232.1" y1="55.8" x2="232.1" y2="75.1"></line>
    <line class="st8" x1="244.7" y1="56" x2="244.7" y2="75.1"></line>
    <line class="st8" x1="256.9" y1="56.3" x2="256.9" y2="75.2"></line>
    <line class="st8" x1="269.3" y1="56.5" x2="269.3" y2="75.6"></line>
    <line class="st8" x1="284" y1="56.8" x2="284" y2="75.6"></line>
    <line class="st8" x1="296.9" y1="57.1" x2="296.9" y2="75.6"></line>
    <line class="st8" x1="308.8" y1="57.3" x2="308.8" y2="75.2"></line>
    <line class="st8" x1="320.1" y1="57.6" x2="320.1" y2="75.1"></line>
    <polyline class="st8" points="19.6,53.5 16.9,53.5 6.7,69.3 6.7,72.8     "></polyline>
    <line class="st8" x1="19.6" y1="72.8" x2="2" y2="72.8"></line>
    <line class="st8" x1="19.6" y1="51.5" x2="37.2" y2="74.1"></line>
    <line class="st8" x1="19.6" y1="74" x2="37.2" y2="51.8"></line>
    <line class="st8" x1="37.2" y1="51.8" x2="52.8" y2="74.1"></line>
    <line class="st8" x1="37.2" y1="74.1" x2="52.8" y2="52.1"></line>
    <line class="st8" x1="52.8" y1="52.1" x2="71.3" y2="74.3"></line>
    <line class="st8" x1="52.8" y1="74.1" x2="71.3" y2="52.5"></line>
    <line class="st8" x1="71.3" y1="52.5" x2="85.8" y2="74.4"></line>
    <line class="st8" x1="71.3" y1="74.3" x2="85.8" y2="52.8"></line>
    <line class="st8" x1="85.8" y1="52.8" x2="100.7" y2="74.4"></line>
    <line class="st8" x1="84.1" y1="74" x2="100.7" y2="53.1"></line>
    <line class="st8" x1="100.7" y1="53.1" x2="117.8" y2="74.5"></line>
    <line class="st8" x1="100.7" y1="74.4" x2="118.7" y2="53.5"></line>
    <line class="st8" x1="118.7" y1="53.5" x2="132.9" y2="74.4"></line>
    <line class="st8" x1="132.9" y1="53.5" x2="118.7" y2="74.5"></line>
    <line class="st8" x1="132.9" y1="53.5" x2="146.7" y2="74.7"></line>
    <line class="st8" x1="146.7" y1="54" x2="132.9" y2="74.4"></line>
    <line class="st8" x1="146.7" y1="54" x2="160.7" y2="74.7"></line>
    <line class="st8" x1="160.7" y1="54.3" x2="146.7" y2="74.7"></line>
    <line class="st8" x1="160.7" y1="54.3" x2="174.5" y2="74.8"></line>
    <line class="st8" x1="174.5" y1="54.6" x2="160.7" y2="74.7"></line>
    <line class="st8" x1="174.5" y1="54.6" x2="187.6" y2="74.5"></line>
    <line class="st8" x1="187.6" y1="54.9" x2="174.5" y2="74.8"></line>
    <line class="st8" x1="187.6" y1="54.9" x2="205.4" y2="74.8"></line>
    <line class="st8" x1="205.4" y1="55.2" x2="187.6" y2="74.5"></line>
    <line class="st8" x1="205.4" y1="55.2" x2="218.7" y2="74.8"></line>
    <line class="st8" x1="218.7" y1="55.5" x2="205.4" y2="74.8"></line>
    <line class="st8" x1="218.7" y1="55.5" x2="232.1" y2="75.1"></line>
    <line class="st8" x1="232.1" y1="55.8" x2="219.2" y2="74.7"></line>
    <line class="st8" x1="232.1" y1="55.8" x2="244.7" y2="75.1"></line>
    <line class="st8" x1="244.7" y1="56" x2="232.1" y2="75.1"></line>
    <line class="st8" x1="244.7" y1="56" x2="256.9" y2="75.2"></line>
    <line class="st8" x1="256.9" y1="56.3" x2="244.7" y2="75.1"></line>
    <line class="st8" x1="256.9" y1="56.3" x2="270" y2="75.6"></line>
    <line class="st8" x1="269.3" y1="56.5" x2="257.2" y2="74.7"></line>
    <line class="st8" x1="269.3" y1="56.5" x2="284" y2="75.6"></line>
    <line class="st8" x1="284" y1="56.8" x2="269.4" y2="74.8"></line>
    <line class="st8" x1="284" y1="56.8" x2="296.9" y2="75.6"></line>
    <line class="st8" x1="296.9" y1="57.1" x2="284" y2="75.6"></line>
    <line class="st8" x1="296.9" y1="57.1" x2="308.8" y2="75.2"></line>
    <line class="st8" x1="308.8" y1="57.3" x2="296.9" y2="75.6"></line>
    <line class="st8" x1="308.8" y1="57.3" x2="320.1" y2="75.1"></line>
    <line class="st8" x1="320.1" y1="57.6" x2="308.8" y2="75.2"></line>
    <line class="st8" x1="320.1" y1="57.6" x2="332.1" y2="75.6"></line>
    <line class="st8" x1="332.1" y1="57.8" x2="320.1" y2="75.6"></line>
    <polyline class="st8" points="332.1,58.5 333.7,58.5 352.7,75.2    "></polyline>
    <line class="st8" x1="332.1" y1="59.3" x2="344.4" y2="74.8"></line>
    <line class="st8" x1="332.1" y1="75.2" x2="359.9" y2="75.2"></line>
    <line class="st8" x1="332.5" y1="59.9" x2="340.5" y2="75.2"></line>
  </g>
  <g>
    <path class="st4" d="M223.9,116.6h2.7c0,0,0.8,2.2-0.3,3.8c-1.1,1.5-1.9,2.2-1.9,3.7c0,1.1,0.7,1.8,1.6,1.8c0.9,0,1.6-1,1.6-2
      c0-1.8,2.5-3.5,2.5-3.5s0.6,1.6,0.2,4.7c-0.3,3-2.9,3.8-4.2,3.8c-1.8,0-4.6-1-4.6-5C221.6,120.2,225,120,223.9,116.6z"></path>
    <rect x="228.9" y="103.5" class="st12" width="4.2" height="8.6"></rect>
    <polygon class="st13" points="228.9,112.1 225.4,117.2 229.2,117.2 233.1,112.1     "></polygon>
    <polygon class="st6" points="225.4,117.2 223.2,117.2 218.5,112.4 218.5,103.3 228.9,103.5 228.9,112.1    "></polygon>
    <polygon class="st5" points="219.3,103.3 222.7,100.4 226.3,100.4 228.9,103.5    "></polygon>
    <polygon class="st13" points="226.3,100.4 229.7,100.4 232.5,103.5 228.9,103.5     "></polygon>
    <line class="st14" x1="221.4" y1="83.9" x2="224.9" y2="98.5"></line>
    <line class="st14" x1="229.2" y1="83.9" x2="227.1" y2="98.6"></line>
    <g>
      <path class="st4" d="M228.6,100.4h-1c0-0.9-0.7-1.7-1.7-1.7c-0.9,0-1.7,0.7-1.7,1.7h-1c0-1.5,1.2-2.7,2.7-2.7
        C227.4,97.7,228.6,98.9,228.6,100.4z"></path>
    </g>
  </g>
  <g>
    <rect x="216.6" y="79.7" class="st10" width="17.2" height="4.3"></rect>
    <polygon class="st11" points="224.4,75 224.4,79.7 243.3,79.7 243.3,75.1     "></polygon>
    <g>
      <path class="st11" d="M241.6,90.4c-0.6,0-1-0.5-1-1v-9.7c0-0.6,0.5-1,1-1c0.6,0,1,0.5,1,1v9.7C242.7,90,242.2,90.4,241.6,90.4z"></path>
    </g>
    <g>
      <path class="st11" d="M225.6,90.4c-0.6,0-1-0.5-1-1v-9.7c0-0.6,0.5-1,1-1s1,0.5,1,1v9.7C226.7,90,226.2,90.4,225.6,90.4z"></path>
    </g>
    <g>
      <path class="st10" d="M209.5,89.2c-0.3,0-0.5-0.2-0.5-0.5v-9.4c0-0.3,0.2-0.5,0.5-0.5c0.3,0,0.5,0.2,0.5,0.5v9.4
        C210,88.9,209.8,89.2,209.5,89.2z"></path>
    </g>
    <polygon class="st10" points="224.4,79.7 207.4,79.7 207.4,75 224.4,75     "></polygon>
  </g>
  <line class="st15" x1="362.1" y1="5.1" x2="425.1" y2="74"></line>
  <line class="st15" x1="364.3" y1="5.1" x2="448" y2="74"></line>
  <polyline class="st15" points="357.4,4.5 150.9,50 143.2,54  "></polyline>
  <g>
    <polygon class="st3" points="419.2,78.2 419.2,88 429.4,88.9 429.4,77.9    "></polygon>
    <polygon class="st5" points="429.4,77.9 442.9,77.6 442.9,88.2 429.4,88.9    "></polygon>
  </g>
  <g>
    <rect x="373.1" y="74" class="st11" width="18.7" height="4.6"></rect>
    <polygon class="st11" points="460.7,74 460.7,77.6 416.1,78.2 416.1,74     "></polygon>
    <polyline class="st9" points="370.9,63.5 464.9,63.5 464.9,74 372.4,74     "></polyline>
    <line class="st9" x1="371.8" y1="69.3" x2="464.9" y2="68.3"></line>
    <line class="st9" x1="376.6" y1="63.5" x2="376.6" y2="74"></line>
    <line class="st9" x1="390" y1="63.5" x2="390" y2="74"></line>
    <line class="st9" x1="398.7" y1="63.5" x2="398.7" y2="74"></line>
    <line class="st9" x1="404.1" y1="63.5" x2="404.1" y2="74"></line>
    <line class="st9" x1="413.9" y1="63.5" x2="413.9" y2="74"></line>
    <line class="st9" x1="421.4" y1="63.5" x2="421.4" y2="74"></line>
    <line class="st9" x1="436.7" y1="63.5" x2="436.7" y2="74"></line>
    <line class="st9" x1="441.9" y1="63.5" x2="441.9" y2="74"></line>
    <line class="st9" x1="452.2" y1="63.5" x2="452.2" y2="74"></line>
    <line class="st9" x1="458.2" y1="63.5" x2="458.2" y2="74"></line>
  </g>
  <g>
    <polyline class="st9" points="345.2,75 355.6,9.2 359.9,9.2 359.9,74     "></polyline>
    <polyline class="st9" points="347.6,59.9 359.9,59.9 370.4,59.9    "></polyline>
    <polyline class="st9" points="345.9,70.3 359.9,70.3 371.8,70.3    "></polyline>
    <polyline class="st9" points="352.6,28 359.9,28.5 366.2,28    "></polyline>
    <line class="st9" x1="353.4" y1="28" x2="359.9" y2="37"></line>
    <line class="st9" x1="366.2" y1="28.5" x2="359.9" y2="37"></line>
    <line class="st9" x1="359.9" y1="37" x2="368.6" y2="46.1"></line>
    <line class="st9" x1="368.6" y1="46.1" x2="359.9" y2="59.9"></line>
    <line class="st9" x1="349.9" y1="45.2" x2="359.9" y2="59.3"></line>
    <line class="st9" x1="359.9" y1="37" x2="349.9" y2="45.2"></line>
    <line class="st9" x1="347.6" y1="59.9" x2="359.9" y2="70.3"></line>
    <line class="st9" x1="359.9" y1="59.9" x2="371.8" y2="70.3"></line>
    <line class="st9" x1="370.4" y1="59.9" x2="359.9" y2="70.3"></line>
    <line class="st9" x1="347.6" y1="59.9" x2="359.9" y2="46.7"></line>
    <line class="st9" x1="359.9" y1="46.7" x2="351.3" y2="36"></line>
    <line class="st9" x1="352.6" y1="28" x2="359.9" y2="20.8"></line>
    <line class="st9" x1="354.9" y1="13.4" x2="359.9" y2="18.7"></line>
    <line class="st9" x1="364.3" y1="13.4" x2="359.9" y2="18.7"></line>
    <line class="st9" x1="359.9" y1="20.8" x2="366.2" y2="28"></line>
    <line class="st9" x1="367.3" y1="36" x2="359.7" y2="47.1"></line>
    <line class="st9" x1="359.9" y1="46.7" x2="370.4" y2="59.9"></line>
    <line class="st9" x1="359.9" y1="59.9" x2="345.9" y2="70.3"></line>
    <line class="st9" x1="351.3" y1="36" x2="359.9" y2="28.5"></line>
    <line class="st9" x1="359.9" y1="28.5" x2="367.3" y2="36"></line>
    <line class="st9" x1="354.9" y1="13.4" x2="359.9" y2="9.2"></line>
    <line class="st9" x1="359.9" y1="9.2" x2="364.3" y2="13.4"></line>
    <polyline class="st9" points="372.4,74.7 363.7,9.2 359.9,9.2    "></polyline>
    <polygon class="st10" points="359.9,9.2 359.9,6.7 356.7,6.7 356.7,3.2 358.8,1 365.8,1 365.8,6.3 363.7,6.3 363.7,9.2     "></polygon>
    <line class="st9" x1="359.9" y1="70.6" x2="372.3" y2="70.3"></line>
    <line class="st16" x1="345.6" y1="83.8" x2="345.6" y2="78.9"></line>
    <line class="st16" x1="359" y1="78.9" x2="359" y2="83.2"></line>
    <line class="st16" x1="372.4" y1="83.2" x2="372.4" y2="78.6"></line>
    <polygon class="st10" points="342.2,78.9 359,78.9 375.1,78.6 375.1,74 359.9,74 342.2,74.4     "></polygon>
  </g>
  <g>
    <polygon class="st6" points="355.6,85 356.2,102.3 358.3,108.6 375.6,107.5 375.6,82.2 363.7,82.6     "></polygon>
    <path class="st4" d="M357.8,101.3c0,0.6,0.5,1,1.1,0.9l9.2-1.5c0.6-0.1,1-0.6,1-1.2V84.6c0-0.6-0.5-1-1-1H365
      c-0.6,0-1.5,0.1-2,0.3l-4.7,1.5c-0.5,0.2-1,0.8-1,1.4L357.8,101.3z"></path>
    <polygon class="st5" points="358.3,108.6 341.8,108.1 339.8,104.2 339.2,85 355.6,85 356.2,102.3    "></polygon>
    <polygon class="st3" points="339.2,85 343.2,83.6 350.1,82.6 363.7,82.6 355.6,85     "></polygon>
    <path class="st4" d="M341,86.2c-0.6,0-1,0.5-1,1l0.3,8.5c0,0.6,0.5,1,1.1,1h12.3c0.6,0,1-0.5,1-1l-0.3-8.5c0-0.6-0.5-1-1.1-1H341z
      "></path>
    <path class="st4" d="M341.5,98.6c-0.6,0-1,0.5-1,1l0.1,3.5c0,0.6,0.3,1.5,0.5,2l0.7,1.3c0.3,0.5,1,0.9,1.5,0.9l12.5,0.4
      c0.6,0,0.9-0.4,0.7-0.9l-1.2-3.5c-0.2-0.5-0.4-1.4-0.4-2l-0.1-1.7c0-0.6-0.5-1-1.1-1H341.5z"></path>
  </g>
</g>
</svg>