<svg xmlns="http://www.w3.org/2000/svg" id="rocketlab" viewBox="0 0 340 566">
<style type="text/css">
    #rocketlab .st0{fill:#46396A;}
    #rocketlab .st1{fill:#FFFFFF;}
    #rocketlab .st2{fill:#E2E1E6;}
    #rocketlab .st3{fill:#BFBCCA;}
    #rocketlab .st4{fill:#FE8730;}
    #rocketlab .st5{fill:#AF6144;}
    #rocketlab .st6{fill:#FEBA72;}
    #rocketlab .st7{fill:#9D96AF;}
    #rocketlab .st8{fill:#CBD2D7;}
    #rocketlab .st9{fill:#7A7193;}
    #rocketlab .st10{fill:#EEF2F3;}
    #rocketlab .st11{fill:#5599FF;}
    #rocketlab .st12{fill:#DFDDDB;}
    #rocketlab .st13{fill:#2C4257;}
    #rocketlab .st14{fill:#F9FDFF;}
    #rocketlab .st15{fill:#2F2551;}
    #rocketlab .st16{fill:#65859E;}
    #rocketlab .st17{fill:#FEE1B9;}
    #rocketlab .st18{fill:#243547;}
    #rocketlab .st19{fill:#FFC5A8;}
    #rocketlab .st20{fill:#FCD1A7;}
    #rocketlab .st21{fill:#651B00;}
    #rocketlab .st22{fill:#A43105;}
    #rocketlab .st23{fill:#F7F7F7;}
    #rocketlab .st24{fill:#D719D1;}
    #rocketlab .st25{fill:#F1F2F2;}
    #rocketlab .st26{fill:#FFF8FF;}
    #rocketlab .st27{fill:#DFDFE7;}
    #rocketlab .st28{fill:#F8FEFE;}
    #rocketlab .st29{fill:#452C87;}
    #rocketlab .st30{fill:#E9ECE1;}
    #rocketlab .st31{opacity:0.1;fill:#231F20;}
    #rocketlab .st32{fill:#1189E0;}
    #rocketlab .st33{fill:#231F20;}
    #rocketlab .st34{fill:#69CBCC;}
    #rocketlab .st35{fill:#635A84;}
    #rocketlab .st36{fill:#FFFEFF;}
    #rocketlab .st37{fill:#BCBEC0;}
    #rocketlab .st38{fill:#78C6CE;}
    #rocketlab .st39{fill:#027DA3;}
    #rocketlab .st40{fill:#FFFFFD;}
    #rocketlab .st41{fill:#6E6D72;}
    #rocketlab .st42{fill:#F7F8FA;}
    #rocketlab .st43{fill:#DFE6EE;}
    #rocketlab .st44{fill:#207FB5;}
    #rocketlab .st45{fill:#C88141;}
    #rocketlab .st46{fill:#E98247;}
    #rocketlab .st47{fill:#F4BB38;}
    #rocketlab .st48{fill:#1D1916;}
    #rocketlab .st49{fill:#FF670C;}
    #rocketlab .st50{fill:#FF6700;}
    #rocketlab .st51{fill:none;stroke:#231F20;stroke-width:1.3415;stroke-miterlimit:10;}
    #rocketlab .st52{fill:#43507C;}
    #rocketlab .st53{fill:#F76609;}
    #rocketlab .st54{fill:#147FA3;}
    #rocketlab .st55{fill:#2C2151;}
    #rocketlab .st56{fill:#161414;}
    #rocketlab .st57{fill:#FFFFFF;stroke:#FFFFFF;stroke-width:0.5505;stroke-miterlimit:10;}
    #rocketlab .st58{opacity:0.3;fill:url(#SVGID_1_);}
  </style>
  <rect x="232.8" y="166.4" class="st0" width="12.1" height="17.4"></rect><path class="st1" d="M262.4 110.7c-0.8-1.3-2.3-1.7-2.8-1.9v0c0 0 0 0-0.1 0 -0.1 0-0.1 0-0.1 0v0c-0.6 0.1-2.1 0.5-2.8 1.9 -0.9 1.7-15.6 49-15.6 49V421h18.5 0.2H278V159.7C278 159.7 263.4 112.4 262.4 110.7z"></path><path class="st2" d="M277 156.2c-3.4-11-13.7-44.1-14.5-45.5 -0.7-1.2-1.9-1.6-2.6-1.8v47.3H277z"></path><rect x="259.9" y="164.6" class="st2" width="18.2" height="27.7"></rect><rect x="259.9" y="200.6" class="st2" width="18.2" height="34.9"></rect><rect x="259.9" y="243.9" class="st2" width="18.2" height="77.6"></rect><rect x="259.9" y="329.9" class="st2" width="18.2" height="91"></rect><path class="st3" d="M269.5 132.3v23.9h7.5C275.4 151.1 272.4 141.4 269.5 132.3z"></path><rect x="269.5" y="164.6" class="st3" width="8.6" height="27.7"></rect><rect x="269.5" y="200.6" class="st3" width="8.6" height="34.9"></rect><rect x="269.5" y="243.9" class="st3" width="8.6" height="77.6"></rect><rect x="269.5" y="329.9" class="st3" width="8.6" height="91"></rect><rect x="240.9" y="159.7" class="st0" width="37.2" height="1.4"></rect><rect x="240.9" y="195.7" class="st0" width="37.2" height="1.4"></rect><rect x="240.7" y="238.9" class="st0" width="37.2" height="1.4"></rect><rect x="240.7" y="325.1" class="st0" width="37.2" height="1.4"></rect><rect x="135.2" y="166.4" transform="matrix(-1 -1.224647e-16 1.224647e-16 -1 282.3995 350.2648)" class="st0" width="12.1" height="17.4"></rect><path class="st1" d="M117.6 110.7c0.8-1.3 2.3-1.7 2.8-1.9v0c0 0 0 0 0.1 0 0.1 0 0.1 0 0.1 0v0c0.6 0.1 2.1 0.5 2.8 1.9 0.9 1.7 15.6 49 15.6 49V421h-18.5 -0.2H102V159.7C102 159.7 116.6 112.4 117.6 110.7z"></path><path class="st2" d="M138.3 156.2c-3.5-11.1-13.7-43.9-14.5-45.3 -0.7-1.2-1.9-1.6-2.6-1.8v47.1H138.3z"></path><rect x="121.3" y="164.6" class="st2" width="18.2" height="27.7"></rect><rect x="121.3" y="329.9" class="st2" width="18.2" height="91.2"></rect><rect x="121.3" y="243.9" class="st2" width="18.2" height="77.6"></rect><rect x="121.3" y="200.6" class="st2" width="18.2" height="34.9"></rect><rect x="102" y="159.7" class="st0" width="37.2" height="1.4"></rect><rect x="102" y="195.7" class="st0" width="37.2" height="1.4"></rect><rect x="102.1" y="238.9" class="st0" width="37.2" height="1.4"></rect><rect x="102.1" y="325.1" class="st0" width="37.2" height="1.4"></rect><rect x="144.8" y="209.6" width="90.4" height="1.4"></rect><path class="st4" d="M190.7 1.5V1c0 0-0.1 0.1-0.2 0.3 -0.2-0.2-0.2-0.3-0.2-0.3v0.5c-5.2 5.7-50.6 57.5-45 135.8V503h45 0.5 45V137.3C241.3 59 195.9 7.2 190.7 1.5z"></path><path class="st5" d="M214.4 36.6V503h21.2V137.3C238.7 94.9 226.8 60.3 214.4 36.6z"></path><path class="st6" d="M189.9 131.8V1.9c-6.3 7-48.1 56-44.9 129.9H189.9z"></path><rect x="145.3" y="143.3" class="st6" width="44.6" height="359.7"></rect><polygon class="st1" points="160.3 541.7 162.6 552.2 164.1 544.7 167.6 550.7 169.8 545.4 171.9 553.7 174.7 545 178.2 559.7 179.6 545.1 182 549 183.9 544.5 185.4 554.6 187.6 543.6 190.7 556.9 195.1 544.2 198.6 553.7 199.8 544.5 202.1 547.2 205.3 543 208.8 553.1 210.8 543 214.1 561.5 215.9 544.1 217.1 546.5 217.9 544.1 219.4 547.1 221 541.7 "></polygon><path class="st5" d="M235.5 348.6V206.1l-39.6-39.6 -0.3 0.3c0.4 0.6 0.6 1.4 0.5 2.3 -2 25.2-0.6 50.9-0.8 76.1 -0.1 13.3-0.1 26.6-0.1 39.9 0 7.7 0.5 15.6 0.2 23.4L235.5 348.6z"></path><path class="st0" d="M317.7 474.2c0 0-1.2-6.6-3.8-16.8 -2.6-10.2-10.2-16.1-10.2-16.1s-40.9-42.8-50.2-50.6c-9.2-7.8-14-25.3-14-25.3l-19.6-111h-29.2 -0.1 -29.2l-19.6 111c0 0-4.7 17.5-14 25.3 -9.2 7.8-50.2 50.6-50.2 50.6s-7.6 5.9-10.2 16.1c-2.6 10.2-3.8 16.8-3.8 16.8v6.4h2.6l-2.6 6.4v5.9L190.6 509v0l0.1 0 0.1 0v0l127-16.1V487l-2.6-6.4h2.6V474.2z"></path><polygon class="st3" points="147.9 498.4 147.9 526.3 158 526.3 160.3 541.7 187.6 541.7 187.6 497.2 "></polygon><polygon class="st3" points="66.1 473.7 190.7 473.7 190.7 509 63.6 492.9 63.6 487 66.2 480.6 63.6 480.6 63.6 474.2 "></polygon><path class="st2" d="M160.3 291l-13.3 82.1c0 0-5.8 15.1-9.8 19.2 -4 4-63 62.7-63 62.7l-5.9 18.6h104.1l-4-198L160.3 291z"></path><polygon class="st7" points="233.4 498.4 233.4 526.3 223.2 526.3 221 541.7 193.6 541.7 193.6 497.2 "></polygon><polygon class="st7" points="315.2 473.7 190.6 473.7 190.6 509 317.7 492.9 317.7 487 315.1 480.6 317.7 480.6 317.7 474.2 "></polygon><path class="st3" d="M220.9 291l13.3 82.1c0 0 5.8 15.1 9.8 19.2 4 4 63 62.7 63 62.7l5.9 18.6H208.8l4-198L220.9 291z"></path><path class="st7" d="M251.7 400c-4.1-4-6.9-6.9-7.7-7.6 -4-4-9.8-19.2-9.8-19.2L220.9 291l-8.2-15.4 -4 198h42.9V400z"></path><path class="st1" d="M220.9 453.9c0 0 0.2-177 0-197.1 -0.2-20.1-6.2-42.6-6.2-42.6 -10.9-50.7-23-50.8-24.1-50.7 -1-0.1-13.2-0.1-24.1 50.7 0 0-5.9 22.5-6.2 42.6 -0.2 20.1 0 197.1 0 197.1 -12.1 0-12.5 25.6-12.5 25.6V509h34.6 8.1 0.1 8.1 34.6v-29.6C233.4 479.4 232.9 453.9 220.9 453.9z"></path><path class="st8" d="M209.8 194.7c-8.6-28.8-16.8-31.1-18.8-31.2v31.2H209.8z"></path><path class="st2" d="M220.9 453.9C220.9 453.9 220.9 453.8 220.9 453.9l-29.9 0V509h42.4v-29.6C233.4 479.4 232.9 453.9 220.9 453.9z"></path><path class="st2" d="M220.9 445.5c0-35.4 0.2-171.3 0-188.7 -0.2-20.1-6.2-42.6-6.2-42.6 -0.9-4-1.7-7.7-2.6-11.1H191v242.4H220.9z"></path><path class="st3" d="M220.9 453.9C220.9 453.9 220.9 453.8 220.9 453.9l-8.4 0c1.3 1 2.4 2.3 3.4 3.7l0 0c0.1 0.1 0.2 0.2 0.3 0.3l0 0c1.6 1.6 2.9 3.5 3.7 5.6 1.1 2.2 1.8 4.8 1.8 7.9V509h11.8v-29.6C233.4 479.4 232.9 453.9 220.9 453.9z"></path><path class="st3" d="M220.9 256.7c-0.2-20.1-6.2-42.6-6.2-42.6 -0.9-4-1.7-7.7-2.6-11.1h-5.8v242.4h14.6C220.9 410.1 221.1 274.2 220.9 256.7z"></path><polygon class="st9" points="190.7 450.4 190.6 450.4 181.5 450.4 186.8 556.9 190.6 556.9 190.7 556.9 194.5 556.9 199.8 450.4 "></polygon><polygon class="st0" points="209.7 222.7 190.7 214.2 190.7 214.2 190.6 214.2 190.6 214.2 190.6 214.2 171.5 222.7 168.5 235 173.8 235 176.3 227 190.6 225.4 204.9 227 207.4 235 212.8 235 "></polygon><polygon class="st0" points="210.7 197.9 197.5 197.9 197.5 189.5 190.7 189.5 190.6 189.5 183.8 189.5 183.8 197.9 170.5 197.9 170 200 190.6 200 190.7 200 211.3 200 "></polygon><rect x="145.3" y="137.4" class="st0" width="90.4" height="1.4"></rect><path class="st10" d="M47.8 476.5c0 0 8.4 5.7 11.4 5.7 3-0.1 10.8-8.3 10.8-8.3l3.2 3.1c0 0-7.7 9.1-13 10.3 -3 0.7-14.8-3-15.5-5.4"></path><path class="st11" d="M73 476.7c0 0 4-3.4 3.6-4.5 -0.1-0.3-0.5-0.2-0.7 0 0.3-0.6 0.4-0.7 0.2-1 -0.2-0.2-0.9 0.3-0.9 0.3s0.7-0.9 0.3-1.2c-0.4-0.3-1 0.4-1 0.4s0.7-0.7 0.3-1c-0.3-0.3-0.6 0-0.9 0.3 -0.3 0.3-1.5 2.2-1.5 2.2s0.4-1.3 0.8-1.9c0.4-0.6-0.2-1.2-0.9 0 -0.8 1.2-1.8 4-1.8 4L73 476.7z"></path><rect x="74" y="464.2" class="st12" width="5.2" height="10.4"></rect><path class="st12" d="M79.2 468.3v6.2c0.7-1.1 1.7-1.7 2.8-1.7 2.2 0 3.9 2.6 3.9 5.9 0 2.4-0.9 4.4-2.3 5.4h-1v-1.6h-3.4v0.8h0.9v5.8c4.6-0.5 8.2-5 8.2-10.3C88.3 473 84.2 468.3 79.2 468.3z"></path><rect x="75.2" y="483.4" class="st0" width="2.8" height="2.1"></rect><rect x="74" y="484.1" class="st0" width="8.6" height="0.8"></rect><rect x="71.2" y="481.5" class="st0" width="11.4" height="1"></rect><rect x="74.8" y="474.6" class="st12" width="3.7" height="3.2"></rect><rect x="74.8" y="460.9" class="st12" width="3.7" height="3.2"></rect><rect x="74.5" y="460.1" class="st13" width="4.2" height="0.8"></rect><path class="st1" d="M77.4 479.9c0 0.1-0.1 0.3-0.2 0.4 -0.1 0.1-0.2 0.2-0.4 0.2h-0.5c-0.1 0-0.3-0.1-0.4-0.2 -0.1-0.1-0.2-0.2-0.2-0.4v-2.1h1.6V479.9z"></path><rect x="75" y="472.6" transform="matrix(0.3715 -0.9284 0.9284 0.3715 -394.556 369.2424)" class="st0" width="1" height="6.9"></rect><polygon class="st0" points="72.1 475.2 74.8 477.8 78.5 477.8 "></polygon><path class="st1" d="M72.5 478.6c-0.1 0.1-0.2 0.2-0.4 0.2 -0.1 0-0.3-0.1-0.4-0.1l-0.4-0.4c-0.1-0.1-0.2-0.2-0.2-0.4 0-0.1 0.1-0.3 0.1-0.4l1.4-1.5L74 477 72.5 478.6z"></path><path class="st0" d="M88.3 490.2h-7.4v-3.7c0-0.4 0.1-0.7 0.4-1 0.3-0.3 0.7-0.4 1-0.4h0c0.2 0 0.4 0 0.5 0.1 0.2 0.1 0.3 0.2 0.5 0.3L88.3 490.2z"></path><path class="st0" d="M68.8 491.3c-0.2 0-0.4 0.1-0.5 0.2 -0.1 0.1-0.2 0.3-0.2 0.5v1.4h2.6l0 0c0-0.1 0-0.2 0.1-0.2 0.1-0.1 0.1-0.1 0.2-0.1h17.6c0.1 0 0.2 0 0.2 0.1 0.1 0.1 0.1 0.1 0.1 0.2l0 0h2.6V492c0-0.2-0.1-0.4-0.2-0.5 -0.1-0.1-0.3-0.2-0.5-0.2H68.8z"></path><path class="st0" d="M90.2 491.3H69.4v-0.5c0-0.1 0-0.3 0.2-0.4 0.1-0.1 0.2-0.2 0.4-0.2h19.7c0.1 0 0.3 0.1 0.4 0.2 0.1 0.1 0.2 0.2 0.2 0.4V491.3z"></path><circle class="st1" cx="82.3" cy="486.5" r="0.4"></circle><circle class="st0" cx="79.2" cy="468.3" r="2.3"></circle><circle class="st0" cx="79.2" cy="468.3" r="1"></circle><rect x="44.1" y="525.5" class="st14" width="4.2" height="30"></rect><polygon class="st14" points="31.3 561.7 29.4 561.7 44.1 555.5 46.7 558.6 "></polygon><polygon class="st14" points="60.5 561.7 63.1 561.7 48.4 555.5 45.8 558.6 "></polygon><rect x="44.1" y="555.5" class="st14" width="4.2" height="2.7"></rect><polygon class="st14" points="47.2 563.6 45.3 563.6 44.5 554.6 48 554.6 "></polygon><rect x="29.4" y="561.7" class="st14" width="1.9" height="1.9"></rect><rect x="61.3" y="561.7" class="st14" width="1.9" height="1.9"></rect><polygon class="st0" points="14.6 482.4 29.5 527.6 61.3 527.6 61.3 522.7 33.7 522.7 19.8 482.9 "></polygon><polygon class="st15" points="30.9 525.5 16.6 482.6 14.6 482.4 29.5 527.6 61.3 527.6 61.3 525.5 "></polygon><rect x="40.7" y="527.6" class="st16" width="11.2" height="2.3"></rect><circle class="st0" cx="30.3" cy="563.8" r="1.2"></circle><circle class="st0" cx="46.3" cy="563.8" r="1.2"></circle><circle class="st0" cx="62.2" cy="563.8" r="1.2"></circle><path class="st1" d="M94.5 557.6l-14.6-44c-1.1-1.7-2.9-2.7-4.9-2.7 0 0-8.3-0.8-19.6-1.1 -4.5-0.1-8.3-2-8.6-2.3H32.2c0 0.1-0.8 15.2 17.8 15.2 7.6 0 17.6 0 21.8 0l15.2 36.2L94.5 557.6z"></path><path class="st0" d="M94.5 557.6c0 0 5.1 1.5 7.1 1.7 2.5 0.2 3.1 3.2 3.1 3.2H87.5c0 0-0.8-1.8-0.5-3.6 3.2-0.5 7.1-1.3 7.1-1.3"></path><polyline class="st17" points="39 470.3 40.5 458.2 47.6 449.7 43.8 473.9 "></polyline><path class="st17" d="M56.2 454.8c0 0-1.1 15.5-7.8 15.5 -4.2 0-7-2.7-7-7.3l0.7-8.2"></path><path class="st0" d="M43.6 454.8c0 0 9.3 3.4 13.1 0 3.8-3.4-1.7-7.1-7.6-7.1 -5.9 0-7.6 2.7-7.6 2.7L43.6 454.8z"></path><path class="st0" d="M41.4 450.3c0 0-2.3 0.1-3.1 2.1 -0.8 2-0.3 10.3 1.3 12.3 0.2-2.1 2.1-6 3.5-7.2 1.4-1.2 2.3-1 3 1.3 -0.5-2.8-0.2-4-0.2-4L41.4 450.3z"></path><path class="st18" d="M43.2 457.5c0 0-1.4 2.2 0.1 6.2 -2.3 0.5-3.6 1-3.6 1s-1.1-2.2 0-3.9C40.8 459 43.2 457.5 43.2 457.5z"></path><path class="st1" d="M32.2 507.4c0 0-2.1-20.3 0-30.4 2.1-10 14.1-9.5 15.8 0 1.7 9.6-2.7 16.2-2.4 20.1 0.2 3.9 1.2 10.3 1.2 10.3H32.2z"></path><path class="st1" d="M78.7 489.9c0 0-21.2-1.7-29.7-11.8 -6.8-8.1-12.4 0-5.5 5.5 7.2 5.7 19 9.8 35 9.4C78.7 492.3 78.7 489.9 78.7 489.9z"></path><path class="st19" d="M78.6 493c0 0 3.7 0.4 4.1-0.3 0.2-0.2-0.2-0.4-0.4-0.4 0.5-0.2 0.7-0.2 0.7-0.4 0-0.3-0.7-0.4-0.7-0.4s0.9 0 0.9-0.5c0-0.4-0.8-0.4-0.8-0.4s0.8 0 0.8-0.4c0-0.4-0.3-0.4-0.7-0.4 -0.3 0-2.1 0.3-2.1 0.3s1-0.5 1.5-0.6c0.6-0.1 0.6-0.7-0.5-0.6 -1.1 0.2-2.8 1-2.8 1L78.6 493z"></path><path class="st1" d="M31.7 480.4c0 0-1.5 25.1 1.8 41.9 7.2 0 17 0 17 0L48.4 505c0 0-1-13.5 0-18.9 1-5.4-6.3-7.4-6.3-7.4"></path><path class="st11" d="M78.6 493.4c0 0 5.2 0.5 5.7-0.4 0.2-0.3-0.2-0.5-0.5-0.5 0.6-0.2 0.8-0.2 0.8-0.5 0-0.3-0.9-0.5-0.9-0.5s1.1-0.1 1.1-0.6c0-0.5-1-0.5-1-0.5s1 0 1-0.5c0-0.4-0.4-0.5-0.8-0.5 -0.4 0-2.6 0.4-2.6 0.4s1.2-0.6 1.9-0.7c0.7-0.1 0.7-0.9-0.6-0.7 -1.4 0.2-4.2 1.4-4.2 1.4V493.4z"></path><path class="st0" d="M112.4 444.5c0 4.3-2.2 4.4-2 7.3 0.2 3.2 2.4 3.2 2.4 5.4 0 2.2-2.1 4.6-0.2 7 8.1 0 8.9 0 8.9 0v-26.5L112.4 444.5z"></path><path class="st0" d="M130.6 444.5c0 4.3 2.2 4.4 2 7.3 -0.2 3.2-2.4 3.2-2.4 5.4 0 2.2 2.1 4.6 0.2 7 -8.1 0-8.9 0-8.9 0v-26.5L130.6 444.5z"></path><path class="st20" d="M118.5 545c0.2-3.4 0.3-7 0.5-10.4 0.5-9.5 1.2-16.9 3-25.5 0.5-2.5 0.8-5.1 1.2-7.6 -1.3-0.4-2.3-1.2-3.5-1.7 -1.4-0.6-3.1-0.3-4.6-0.2 0 1.6 0.1 3.1 0.2 4.7 0.3 3.4-1.3 7.2-1.7 10.6 -0.9 9 1.3 23.9 0.6 37.2 1.2 0.1 2.5 0.3 3.7 0.4C118.3 549.9 118.4 547.1 118.5 545z"></path><path class="st21" d="M118 556.7c-0.5-1.9-0.8-3.7-0.7-5.9 -1.2 0-2.4 1.1-2.6 2.4 -0.4 3.4-1.3 6.3 0.2 8.9 0.1 0.2 0.2 0.4 0.4 0.6 0.9 1.3 4 3.7 5.1 1.7 1.4-2.6 0.2-4.7-0.8-6.9C118.9 557.7 118.2 557.5 118 556.7z"></path><path class="st22" d="M116.5 555.8c-0.7-1.7 0.1-3.2 0-4.8 -0.9 0.3-1.6 1.2-1.7 2.2 -0.4 3.3-1.2 6.1 0.2 8.6 0.1 0.2 0.2 0.4 0.4 0.6 0.9 1.2 3.9 3.6 5 1.7 1.4-2.5 0.2-4.5-0.8-6.7C118.3 557.6 117.2 557.3 116.5 555.8z"></path><path class="st1" d="M114.8 559.3c-1.2-1.9-0.4-4.7 0-7.3 0.3-2.1 2.1-1.2 2.8-0.2 0.8 1.1 0.9 2.5 1.4 3.8 0.6 1.8 1.7 3.4 0.4 5.3 -1 1.5-3.6-0.2-4.3-1.2C115 559.6 114.9 559.5 114.8 559.3z"></path><path class="st20" d="M118.4 552.3c0 0 0-0.1 0-0.1 -0.2-0.7-0.1-1.6-0.2-2.3 -1.1-1.4-3.7-0.6-3.7 0.8 0 6.5-0.9 5.6 0.4 7.6 0.1 0.2 0.2 0.3 0.3 0.5 1.7 2.9 4.8 2.9 4.7 0.4C119.8 557.4 118.4 554.6 118.4 552.3z"></path><path class="st20" d="M124.7 544.9c-0.3-3.4-0.4-7-0.7-10.4 -0.7-9.5-1.5-16.8-3.5-25.4 -0.6-2.5-0.9-5.1-1.4-7.6 1.3-0.4 2.2-1.3 3.4-1.8 1.4-0.6 3.1-0.3 4.6-0.3 0.1 1.6 0 3.1-0.1 4.7 -0.2 3.4 1.5 7.2 1.9 10.6 1.1 9-0.8 23.9 0.2 37.2 -1.2 0.1-2.5 0.3-3.7 0.5C125 549.8 124.9 547 124.7 544.9z"></path><path class="st21" d="M125.5 556.6c0.5-1.9 0.7-3.8 0.5-5.9 1.2 0 2.4 1.1 2.6 2.4 0.5 3.4 1.4 6.3 0 8.9 -0.1 0.2-0.2 0.4-0.4 0.6 -0.9 1.3-3.9 3.8-5.1 1.8 -1.5-2.5-0.3-4.7 0.6-6.9C124.6 557.6 125.3 557.4 125.5 556.6z"></path><path class="st22" d="M126.9 555.7c0.7-1.7-0.1-3.2-0.1-4.8 0.9 0.3 1.6 1.2 1.8 2.2 0.5 3.3 1.4 6.1 0 8.6 -0.1 0.2-0.2 0.4-0.4 0.6 -0.8 1.3-3.8 3.6-4.9 1.8 -1.4-2.4-0.3-4.5 0.6-6.7C125.2 557.5 126.3 557.2 126.9 555.7z"></path><path class="st1" d="M128.7 559.1c1.1-1.9 0.3-4.7-0.2-7.3 -0.4-2.1-2.1-1.2-2.8-0.1 -0.7 1.1-0.9 2.5-1.3 3.8 -0.6 1.8-1.6 3.4-0.3 5.3 1 1.5 3.6-0.3 4.3-1.3C128.5 559.4 128.6 559.3 128.7 559.1z"></path><path class="st20" d="M125 552.2c0 0 0-0.1 0-0.1 0.1-0.7 0.1-1.6 0.1-2.3 1.1-1.4 3.7-0.7 3.8 0.8 0.1 6.5 1 5.6-0.2 7.6 -0.1 0.2-0.2 0.3-0.3 0.5 -1.7 2.9-4.8 3-4.7 0.5C123.7 557.4 125 554.5 125 552.2z"></path><path class="st23" d="M116.3 455.3c0 0-4.8 2-7.2 4.4 0 5.8 0 55.2 0 55.2h12.7v-44.7L116.3 455.3z"></path><path class="st1" d="M127.6 455.6c0 0 4.3 1.8 6.7 4.1 0 5.8 0 55.1 0 55.1h-12.7v-44.6L127.6 455.6z"></path><polyline class="st24" points="117.4 455.2 121.9 470.5 125.7 455.1 "></polyline><polygon class="st17" points="124.4 455.5 121.6 456.3 118.9 455.5 118.9 450.6 124.4 450.6 "></polygon><path class="st25" d="M121.9 470.5l6-9.4 -1.8-0.9 2.9-0.8 1.2-2.4c0 0-2-1.5-4.5-1.8C125 457.9 121.9 470.5 121.9 470.5z"></path><path class="st25" d="M121.9 470.5l-6-9.4 1.8-0.9 -2.9-0.8 -1.3-2.7c0 0 2-1.2 4.5-1.8C118.7 457.6 121.9 470.5 121.9 470.5z"></path><path class="st23" d="M109.2 459.7c0 0-11.1 16.3-11.3 19.4 -0.2 3.1 10.9 3.6 10.9 3.6l-0.7-4.7c0 0-4.7-0.6-2.8-2.9 1.6-1.9 6.9-8.9 6.9-8.9"></path><path class="st1" d="M134.2 459.8l12 26.4 -4.2 3.1 -5.4-1.3c0 0 3.3-1 1.1-4.2l-1.8-0.7 -8.3-15.8"></path><circle class="st0" cx="121.6" cy="439.3" r="9.5"></circle><path class="st17" d="M121.6 433.3c-3.1 0-8 1.8-8 10 0 4.8 1.9 7 2.5 7.9 0.6 0.8 3.8 3.4 5.5 3.4C121.6 446.3 121.6 433.3 121.6 433.3z"></path><path class="st17" d="M112 445.3c-0.1-1.3 0.5-2.5 1.4-2.6 0.9-0.1 1.8 0.8 1.9 2.2 0.1 1.3-0.5 2.5-1.4 2.6C113 447.6 112.2 446.6 112 445.3z"></path><path class="st17" d="M121.5 433.3c3.1 0 8 1.8 8 10 0 4.8-1.9 7-2.5 7.9 -0.6 0.8-3.8 3.4-5.5 3.4C121.5 446.3 121.5 433.3 121.5 433.3z"></path><path class="st17" d="M131.1 445.3c0.1-1.3-0.5-2.5-1.4-2.6 -0.9-0.1-1.8 0.8-1.9 2.2 -0.1 1.3 0.5 2.5 1.4 2.6C130.1 447.6 131 446.6 131.1 445.3z"></path><path class="st0" d="M121.1 431c-5.7 0-7.4 5-7.4 7.2 -2.1 2.9 0.2 5.4 1.8 6.3 0-0.5 0-0.7 0-1.4 0-1.8 1.8-3.6 4.4-3.3 2.4 0.3 3.8-1.1 5.1-3.3C126.6 433.4 124.6 431 121.1 431z"></path><path class="st0" d="M124.8 435.6c0 0 1.3 5.4 4.9 7.2 0.6-4.8 1-3.8 0-6.4 -1-2.5-4.9-4.4-4.9-4.4V435.6z"></path><polyline class="st0" points="109.5 514.8 109.5 519.7 134.2 519.7 134.2 514.8 "></polyline><path class="st26" d="M135.5 478.5L135.5 478.5h-3.7 -0.1v0c-0.2 0-0.3 0.2-0.3 0.4 0 0.2 0.1 0.4 0.3 0.4v12.4l0 0.5 0.1 0.2c0.2 0.8 0.9 1.2 1.8 1.2 0.9 0 1.6-0.4 1.8-1.2l0.1-0.2v-12.9h0.1c0.3 0 0.5-0.2 0.5-0.5C136 478.7 135.8 478.5 135.5 478.5z"></path><path class="st27" d="M135.5 478.5L135.5 478.5h-1.9v15.2c0.8 0 1.8-0.3 1.8-1.4 0-0.6 0-12.9 0-12.9h0.1c0.3 0 0.5-0.2 0.5-0.5C136 478.7 135.8 478.5 135.5 478.5z"></path><path class="st24" d="M134.8 491.6c0 0.6-0.5 1.1-1.1 1.1 -0.6 0-1.1-0.5-1.1-1.1l0-0.5v-9.1h2.2V491.6z"></path><path class="st11" d="M137 488.1c0 0-5.9-1.2-5.9-2.5 0.1-0.4 0.8-0.4 1.1-0.3 -0.5-0.5-0.8-1-0.7-1.3 0.1-0.3 1.2 0.1 1.2 0.1s-1.1-0.5-0.9-1c0.2-0.5 1.1 0 1.1 0s-1-0.5-0.8-0.9c0.2-0.4 0.6-0.2 1-0.1 0.4 0.2 2.4 1.5 2.4 1.5s-1-1.1-1.6-1.5c-0.6-0.4-0.4-1.2 0.9-0.4 1.3 0.8 3.3 2.4 3.3 2.4s0.9 1.1 0.2 2.5C137.8 487.9 137 488.1 137 488.1z"></path><rect x="104.5" y="475" transform="matrix(0.7071 -0.7071 0.7071 0.7071 -305.2648 214.1673)" class="st28" width="2.8" height="1.1"></rect><rect x="109.2" y="474.3" transform="matrix(0.7071 -0.7072 0.7072 0.7071 -306.9175 218.355)" class="st29" width="1.9" height="10.6"></rect><polyline class="st30" points="113.2 484 117 486.6 114.5 482.7 "></polyline><polygon class="st31" points="117 486.6 114.5 482.7 107 475.2 107.3 475 106.5 474.2 105.6 475.1 "></polygon><path class="st11" d="M108.6 482c0 0 4.2 0.2 4.6-0.7 0.2-0.3-0.8-0.3-1.1-0.3 0.5 0.1 1.4-0.1 1.2-0.6 -0.1-0.3-1.2-0.4-1.2-0.4s1.3-0.2 1.3-0.6c-0.1-0.5-1.2-0.4-1.2-0.4s1.1-0.2 1-0.6c-0.2-0.8-2.5 0-2.5 0s0.5-0.3 1.2-0.5c0.6-0.2 0.6-0.9-0.7-0.6 -1.3 0.3-3.1 1.5-3.1 1.5L108.6 482z"></path><path class="st32" d="M156 477.6c0 0-4.9-0.2-5.3-1.1 -0.1-0.3 0.2-0.4 0.5-0.4 -0.6-0.3-0.7-0.3-0.7-0.6 0-0.3 0.9-0.3 0.9-0.3s-1-0.2-1-0.7c0.1-0.5 0.9-0.3 0.9-0.3s-0.9-0.1-0.9-0.6c0.1-0.4 0.5-0.4 0.8-0.3 0.4 0 2.4 0.7 2.4 0.7s-1.1-0.7-1.7-0.9c-0.6-0.2-0.6-0.9 0.7-0.6 1.3 0.4 3.8 1.9 3.8 1.9L156 477.6z"></path><path class="st33" d="M175.3 560.1c0 0-3.6 1.5-5 1.6 -1.8 0.2-2.2 3.2-2.2 3.2h12.6c0 0 0.2-2.2 0-4 -2.3-0.5-5-0.8-5-0.8"></path><path class="st0" d="M170.5 510l2.1 51.3c0 0 4.6 1.6 8 0 0-18.2 0-51.3 0-51.3"></path><path class="st33" d="M187.8 560.1c0 0 3.6 1.5 5 1.6 1.8 0.2 2.2 3.2 2.2 3.2h-12.6c0 0-0.2-2.2 0-4 2.3-0.5 5-0.8 5-0.8"></path><path class="st0" d="M192.6 510l-2.1 51.3c0 0-4.6 1.6-8 0 0-18.2 0-51.3 0-51.3"></path><path class="st23" d="M177.1 454.3c0 0-4.8 2-7.2 4.4 0 5.8 0 55.6 0 55.6h12.8v-45.1L177.1 454.3z"></path><path class="st1" d="M188.5 454.7c0 0 4.3 1.8 6.8 4.2 0-2.1 0-1.6 0 55.5h-12.8v-45L188.5 454.7z"></path><polyline class="st0" points="178.2 454.2 182.7 469.7 186.6 454.2 "></polyline><polygon class="st11" points="183.3 458.3 184.3 457.1 182.4 455.4 181.1 457.1 182.2 458.3 180.8 466.2 182.7 469.7 184.7 466.4 "></polygon><polygon class="st17" points="185.2 454.5 182.4 455.4 179.7 454.5 179.7 449.6 185.2 449.6 "></polygon><path class="st25" d="M182.7 469.7l6.1-9.5 -1.8-0.9 2.9-0.8 1.2-2.4c0 0-2-1.5-4.5-1.8C185.9 456.9 182.7 469.7 182.7 469.7z"></path><path class="st25" d="M182.7 469.7l-6.1-9.5 1.8-0.9 -2.9-0.8 -1.3-2.7c0 0 2-1.2 4.5-1.8C179.5 456.6 182.7 469.7 182.7 469.7z"></path><path class="st0" d="M179.6 453.8l2.8 1.5 2.9-1.5 2.9 0.6 -2.4 4.2 -3.4-3.1 -2.8 3 -2.9-4C176.8 454.5 178.6 453.8 179.6 453.8z"></path><path class="st17" d="M190.4 440.4c0-6.5-3.6-10.2-8-10.2 -4.4 0-8 3.7-8 10.2 0 2.7 0.8 8.8 2.3 10 1 0.9 4.2 2.4 5.7 2.4l0 0c0 0 0 0 0 0 0 0 0 0 0 0h0c1.6 0 4.8-1.5 5.7-2.4C189.6 448.8 190.4 442.9 190.4 440.4z"></path><path class="st17" d="M189.2 444.9c-1.5-0.2-2.4-1.7-2.2-3.5 0.2-1.8 1.6-3.1 3.1-2.9 1.5 0.2 2.4 1.7 2.2 3.5C192 443.7 190.6 445 189.2 444.9z"></path><path class="st17" d="M172.6 441.9c-0.2-1.8 0.7-3.3 2.2-3.5 1.5-0.2 2.8 1.2 3.1 2.9 0.2 1.8-0.7 3.3-2.2 3.5C174.2 445 172.8 443.7 172.6 441.9z"></path><path class="st0" d="M178 431.9c0 0-2.7 2.9-1.7 5.6 0.2 3.2-0.2 4.3-1.3 5.2 0.3-3.1-0.1-4.2-1.3-3.8C173.1 436.5 174.3 429.9 178 431.9z"></path><path class="st0" d="M186.4 431.9c0 0 2.7 2.9 1.7 5.6 -0.2 3.2 0.2 4.3 1.3 5.2 -0.3-3.1 0.1-4.2 1.3-3.8C191.3 436.5 190.2 429.9 186.4 431.9z"></path><path class="st0" d="M190 433.2c-1.3-4.8-10.4-7.8-14.9-0.8 -0.4 1.5 1.5 2 1.5 2s1-2.2 5.8-1.2c2.4-0.5 4.6-0.8 5.7 1.1C189 436.2 190 433.2 190 433.2z"></path><path class="st23" d="M169.9 458.7l-5.1 13.9 -8.5 0 -1 5.5c0 0 10.8 1.4 12.4 0.3 1.6-1 5.9-12.1 5.9-12.1"></path><path class="st1" d="M195.2 458.9l10.6 19.3 -4.2 3.1 -5.5-1.3c0 0 3.3-1 1.1-4.2l-1.8-0.7 -6.8-8.6"></path><path class="st26" d="M153.6 493.8c-3.1 0-5.6-2.5-5.6-5.6 0-2.5 1.6-4.6 4-5.3V474h-0.3v-1.7h3.7v1.7h-0.3v8.9c2.4 0.7 4 2.8 4 5.3C159.1 491.3 156.6 493.8 153.6 493.8z"></path><path class="st27" d="M155.2 482.9V474h0.3v-1.7h-1.9v21.5c3.1 0 5.6-2.5 5.6-5.6C159.1 485.7 157.5 483.6 155.2 482.9z"></path><path class="st24" d="M149.1 488.2c0 2.5 2 4.4 4.4 4.4 2.5 0 4.4-2 4.4-4.4H149.1z"></path><circle class="st24" cx="153.5" cy="484.6" r="0.6"></circle><circle class="st24" cx="154.4" cy="485.6" r="0.5"></circle><circle class="st24" cx="153.6" cy="474.2" r="0.5"></circle><circle class="st24" cx="153.9" cy="487" r="0.3"></circle><circle class="st24" cx="153.5" cy="478.3" r="0.3"></circle><circle class="st1" cx="153.4" cy="490.5" r="0.5"></circle><circle class="st1" cx="153.9" cy="489.2" r="0.3"></circle><circle class="st24" cx="149.6" cy="488.2" r="0.5"></circle><circle class="st24" cx="151.6" cy="488.2" r="0.5"></circle><circle class="st24" cx="151.1" cy="487.7" r="0.5"></circle><circle class="st24" cx="152.9" cy="488.2" r="0.5"></circle><circle class="st24" cx="153.9" cy="488.2" r="0.5"></circle><circle class="st24" cx="155" cy="487.8" r="0.6"></circle><circle class="st24" cx="155.9" cy="488.2" r="0.6"></circle><circle class="st24" cx="157" cy="488.2" r="0.6"></circle><circle class="st24" cx="157.4" cy="488.2" r="0.6"></circle><path class="st26" d="M199.3 493.7c1-1.1 1.7-2.6 1.7-4.2 0-2.8-1.8-5.2-4.4-5.9V475h0.3v-1.9h-4.1v1.9h0.3v8.5c-2.6 0.8-4.4 3.2-4.4 5.9 0 1.6 0.6 3.1 1.7 4.2H199.3z"></path><path class="st27" d="M199.3 493.7c1-1.1 1.7-2.6 1.7-4.2 0-2.8-1.8-5.2-4.4-5.9V475h0.3v-1.9h-2.1v20.5H199.3z"></path><path class="st34" d="M198.8 492.3c0.6-0.8 0.9-1.8 0.9-2.9 0-2.7-2.2-4.9-4.9-4.9 -2.7 0-4.9 2.2-4.9 4.9 0 1.1 0.3 2 0.9 2.9H198.8z"></path><path class="st32" d="M198.6 480.3c0 0-5.9-1.2-5.9-2.5 0.1-0.4 0.8-0.4 1.1-0.3 -0.5-0.5-0.8-1-0.7-1.3 0.1-0.3 1.2 0.1 1.2 0.1s-1.1-0.6-0.9-1c0.2-0.5 1.1 0 1.1 0s-1-0.5-0.8-0.9c0.2-0.4 0.6-0.2 1-0.1 0.4 0.2 2.5 1.5 2.5 1.5s-1-1.1-1.6-1.5c-0.6-0.4-0.4-1.2 0.9-0.4 1.3 0.8 3.3 2.5 3.3 2.5s0.9 1.1 0.2 2.5C199.5 480.2 198.6 480.3 198.6 480.3z"></path><rect x="281.6" y="475.1" class="st0" width="7" height="48.4"></rect><rect x="281.6" y="475.1" class="st35" width="3.5" height="48.4"></rect><polygon class="st25" points="259.9 414.9 259.9 467.6 303.2 465.4 303.2 423.3 "></polygon><polygon class="st36" points="263.3 419 263.3 463.4 299.8 461.6 299.8 426.1 "></polygon><polygon class="st37" points="260.7 466.8 260.7 415 259.9 414.9 259.9 467.6 303.2 465.4 303.2 464.7 "></polygon><polyline class="st0" points="317.3 477 273.9 479.2 259.9 467.6 303.2 465.4 "></polyline><polyline class="st36" points="308.6 475.6 278.4 477.1 268.6 469 298.8 467.5 "></polyline><path class="st38" d="M274.6 447.4c0.4 0.4 0.3 1.4 0.3 2 0 1.2 1.8 1.2 1.8 0 0-1.1 0.1-2.5-0.8-3.3C275 445.3 273.7 446.6 274.6 447.4L274.6 447.4z"></path><path class="st38" d="M282.2 454.3c0-0.7-0.5-1.2-1.1-1.5 -0.2-0.2-0.5-0.3-0.7-0.4 -0.1-0.1-0.3-0.2-0.4-0.2 0.2 0.1-0.2-0.3 0 0 -0.3-0.4-0.8-0.6-1.2-0.3 -0.4 0.2-0.6 0.8-0.3 1.2 0.3 0.4 0.8 0.7 1.2 1 0.2 0.1 0.4 0.2 0.6 0.4 0.1 0.1 0.1 0.1 0 0 0 0 0.1 0.1 0.1 0.1 0.1 0.1 0.1 0.1 0 0 0.1 0.1 0-0.1 0-0.2C280.5 455.5 282.3 455.5 282.2 454.3L282.2 454.3z"></path><path class="st38" d="M278.5 457.9c-0.3 0.8-0.6 1.5-0.8 2.3 -0.3 1.1 1.4 1.6 1.7 0.5 0.2-0.8 0.5-1.5 0.8-2.3C280.6 457.3 278.9 456.8 278.5 457.9L278.5 457.9z"></path><path class="st38" d="M275.9 459.3c-0.7-0.6-1.5-1-2.5-1 -1.2 0-1.2 1.8 0 1.8 0.5 0 0.9 0.2 1.3 0.5 0.4 0.3 0.9 0.4 1.3 0C276.2 460.3 276.2 459.6 275.9 459.3L275.9 459.3z"></path><path class="st38" d="M269.8 458.2c-0.2-1.2-1.6-1.6-2.5-2.1 -1-0.5-1.9 1-0.9 1.5 0.4 0.2 0.7 0.4 1.1 0.5 0.1 0 0.2 0.1 0.3 0.2 0 0 0.3 0.2 0.1 0.1 0.1 0.1 0.1 0.1 0.2 0.2 -0.1-0.1-0.1-0.1 0 0 0-0.1-0.1-0.1 0 0 0.1 0.5 0.7 0.7 1.1 0.6C269.7 459.2 269.9 458.7 269.8 458.2L269.8 458.2z"></path><path class="st38" d="M273 456.8c0.1-0.5 0.2-1 0.5-1.4 0.3-0.4 0.4-0.9 0-1.3 -0.3-0.3-1-0.4-1.3 0 -0.5 0.6-0.8 1.4-1 2.2 -0.1 0.5 0.1 1 0.6 1.1C272.3 457.5 272.9 457.3 273 456.8L273 456.8z"></path><path class="st38" d="M274.7 450.2c-0.9-0.2-2-0.2-2.9 0 -1.1 0.3-0.6 2 0.5 1.7 0.6-0.2 1.3-0.1 1.9 0C275.3 452.2 275.8 450.5 274.7 450.2L274.7 450.2z"></path><path class="st38" d="M268.6 452.1c0.3-0.5 0.7-1.1 1.3-1.1 1.2 0 1.2-1.8 0-1.8 -1.2 0.1-2.3 0.9-2.9 2C266.5 452.2 268.1 453.1 268.6 452.1L268.6 452.1z"></path><path class="st38" d="M271.7 444.9c-0.4-0.3-0.8-0.5-1.2-0.7 -0.5-0.2-0.9-0.5-1.3-0.8 -0.4-0.3-0.9-0.4-1.3 0 -0.3 0.3-0.4 1 0 1.3 0.4 0.3 0.8 0.7 1.3 0.9 0.4 0.2 0.9 0.3 1.2 0.6 0.4 0.3 0.9 0.4 1.3 0C272 445.9 272.1 445.3 271.7 444.9L271.7 444.9z"></path><path class="st38" d="M291.5 433.1c0.8-1.3 1.1-1.1 0.5 0.3 -0.6 1.4-0.1 1.7 0.9 0.6 1.1-1.1 1.3-0.9 0.4 0.4 -0.8 1.3-0.5 1.6 0.8 0.8 1.3-0.8 1.4-0.6 0.4 0.4 -1.1 1.1-0.8 1.5 0.6 1 1.4-0.5 1.5-0.3 0.3 0.5 -1.3 0.8-1.1 1.3 0.4 1.1 1.5-0.2 1.6 0 0.1 0.5 -1.4 0.5-1.3 1 0.2 1.1 1.5 0.1 1.5 0.3 0 0.6 -1.5 0.2-1.5 0.7-0.1 1.1 1.5 0.4 1.4 0.7-0.1 0.6 -1.5-0.1-1.6 0.4-0.3 1.1 1.3 0.7 1.2 0.9-0.2 0.5 -1.4-0.4-1.7 0-0.5 1 1.2 1 1 1.2-0.3 0.5 -1.3-0.7-1.7-0.3-0.7 0.9 0.9 1.2 0.8 1.4-0.4 0.4 -1.2-1-1.6-0.6-0.9 0.7 0.7 1.3 0.5 1.5-0.5 0.3 -0.9-1.2-1.4-1-1 0.5 0.4 1.5 0.1 1.5-0.5 0.2 -0.7-1.3-1.2-1.2-1.1 0.3 0.1 1.5-0.2 1.5-0.6 0.1 -0.4-1.5-0.9-1.4-1.1 0 -0.3 1.5-0.5 1.5-0.6 0 -0.1-1.5-0.6-1.6-1.1-0.2 -0.6 1.4-0.8 1.3-0.5-0.2 0.3-1.5-0.2-1.7-1.1-0.4 -0.8 1.3-1.1 1.1-0.5-0.3 0.6-1.4 0.1-1.7-0.9-0.6 -1.1 1.1-1.3 0.9-0.4-0.4 0.8-1.3 0.5-1.6-0.8-0.8 -1.3 0.8-1.4 0.6-0.4-0.4 1.1-1.1 0.8-1.5-0.6-1 -1.4 0.5-1.5 0.3-0.3-0.5 1.3-0.8 1.1-1.3-0.4-1.1 -1.5 0.2-1.6 0-0.1-0.5 1.4-0.5 1.3-1-0.2-1.1 -1.5-0.1-1.5-0.3 0-0.6 1.5-0.2 1.5-0.7 0.1-1.1 -1.5-0.4-1.4-0.7 0.1-0.6 1.5 0.1 1.6-0.4 0.3-1.1 -1.3-0.7-1.2-0.9 0.2-0.5 1.5 0.4 1.7 0 0.5-1 -1.2-1-1-1.2 0.3-0.5 1.3 0.7 1.7 0.3 0.7-0.9 -0.9-1.2-0.8-1.4 0.4-0.4 1.2 1 1.6 0.6 0.9-0.7 -0.7-1.3-0.5-1.5 0.5-0.3 0.9 1.2 1.4 1 1-0.5 -0.4-1.5-0.1-1.5 0.5-0.2 0.7 1.3 1.2 1.2 1.1-0.3 -0.1-1.5 0.2-1.5 0.6-0.1 0.4 1.5 0.9 1.4 1.1 0 0.3-1.5 0.5-1.5 0.6 0 0.1 1.5 0.6 1.6 1.1 0.2 0.6-1.4 0.8-1.3 0.5 0.2C290.2 434.2 290.6 434.4 291.5 433.1z"></path><path class="st39" d="M285.5 438.9c0 0.1 0.1 0.3 0.2 0.4 0.1 0.1 0.2 0.1 0.3 0 0.1-0.1 0.1-0.2 0-0.3 0 0-0.1-0.1 0 0 0 0 0 0 0 0 0 0 0 0.1 0 0 0-0.1-0.1-0.2-0.2-0.2C285.6 438.7 285.5 438.8 285.5 438.9L285.5 438.9z"></path><path class="st39" d="M286.1 440.1C286.1 440.1 286.1 440.1 286.1 440.1c0.4 0 0.4-0.4 0.1-0.4 0 0-0.1 0-0.1 0C285.8 439.7 285.8 440.1 286.1 440.1L286.1 440.1z"></path><path class="st39" d="M287.5 439.3C287.5 439.2 287.5 439.2 287.5 439.3c0-0.3-0.4-0.3-0.4 0 0 0 0 0 0 0C287 439.5 287.5 439.5 287.5 439.3L287.5 439.3z"></path><path class="st39" d="M287.5 440.7c0.3 0 0.3-0.4 0-0.4C287.2 440.3 287.2 440.7 287.5 440.7L287.5 440.7z"></path><path class="st39" d="M291.5 441.4c0.1 0 0.1 0 0.1 0 0 0 0 0 0.1 0 0 0 0 0 0 0C291.7 441.3 291.7 441.4 291.5 441.4 291.6 441.4 291.6 441.4 291.5 441.4c0.2-0.1 0.3-0.1 0.3-0.3 0-0.1-0.1-0.2-0.2-0.2 -0.1 0-0.1 0-0.1 0 0 0 0 0-0.1 0 0 0 0 0 0 0 0 0 0.1 0 0.1 0 0 0 0 0 0 0 -0.1 0-0.2 0.1-0.2 0.2C291.3 441.3 291.4 441.4 291.5 441.4L291.5 441.4z"></path><path class="st39" d="M290.4 439c0.3 0 0.3-0.4 0-0.4C290.1 438.6 290.1 439 290.4 439L290.4 439z"></path><path class="st39" d="M290.4 441c0.3 0 0.3-0.4 0-0.4C290.1 440.5 290.1 441 290.4 441L290.4 441z"></path><path class="st39" d="M289.8 441.1c0.3 0 0.3-0.4 0-0.4C289.6 440.7 289.6 441.1 289.8 441.1L289.8 441.1z"></path><path class="st39" d="M288.5 440.6c0.3 0 0.3-0.4 0-0.4C288.2 440.1 288.2 440.6 288.5 440.6L288.5 440.6z"></path><path class="st39" d="M287.6 437.7c0.3 0 0.3-0.4 0-0.4C287.3 437.2 287.3 437.7 287.6 437.7L287.6 437.7z"></path><path class="st39" d="M290.3 440.1c0.3 0 0.3-0.4 0-0.4C290 439.6 290 440.1 290.3 440.1L290.3 440.1z"></path><path class="st39" d="M288.6 438.4c0.3 0 0.3-0.4 0-0.4C288.3 438 288.3 438.4 288.6 438.4L288.6 438.4z"></path><path class="st39" d="M284.9 441c0.3 0 0.3-0.4 0-0.4C284.7 440.5 284.7 441 284.9 441L284.9 441z"></path><path class="st39" d="M287.4 441.7c0.3 0 0.3-0.4 0-0.4C287.1 441.3 287.1 441.7 287.4 441.7L287.4 441.7z"></path><path class="st39" d="M286.2 441.2c0.3 0 0.3-0.4 0-0.4C285.9 440.8 285.9 441.2 286.2 441.2L286.2 441.2z"></path><path class="st39" d="M288.1 442.7c0.1 0 0.1 0 0.2 0 0 0 0 0 0.1 0 0 0 0.1 0 0 0 0.1 0 0.2-0.1 0.2-0.2 0-0.1-0.1-0.2-0.2-0.2 0 0-0.1 0-0.1 0 0 0-0.1 0-0.1 0 -0.1 0-0.2 0.1-0.2 0.2C287.9 442.6 288 442.7 288.1 442.7L288.1 442.7z"></path><path class="st39" d="M290.1 442c0.3 0 0.3-0.4 0-0.4C289.8 441.5 289.8 442 290.1 442L290.1 442z"></path><path class="st39" d="M288.6 441.4c0.3 0 0.3-0.4 0-0.4C288.3 441 288.3 441.4 288.6 441.4L288.6 441.4z"></path><path class="st39" d="M291 442.4C291 442.4 290.9 442.4 291 442.4c-0.4 0-0.4 0.4-0.1 0.4 0 0 0.1 0 0.1 0C291.3 442.9 291.3 442.4 291 442.4L291 442.4z"></path><path class="st39" d="M293.7 441.7c0.3 0 0.3-0.4 0-0.4C293.5 441.3 293.5 441.7 293.7 441.7L293.7 441.7z"></path><path class="st39" d="M286.9 438.3c0.3 0 0.3-0.4 0-0.4C286.6 437.8 286.6 438.3 286.9 438.3L286.9 438.3z"></path><path class="st39" d="M289.2 438.1c0.3 0 0.3-0.4 0-0.4S288.9 438.1 289.2 438.1L289.2 438.1z"></path><path class="st39" d="M289.8 438.8c0.3 0 0.3-0.4 0-0.4C289.5 438.4 289.5 438.8 289.8 438.8L289.8 438.8z"></path><path class="st39" d="M290.5 437.5c0.3 0 0.3-0.4 0-0.4C290.2 437 290.2 437.5 290.5 437.5L290.5 437.5z"></path><path class="st39" d="M287.3 443c0.3 0 0.3-0.4 0-0.4C287 442.5 287 443 287.3 443L287.3 443z"></path><path class="st39" d="M285.7 443c0.3 0 0.3-0.4 0-0.4S285.4 443 285.7 443L285.7 443z"></path><path class="st39" d="M286.2 442.4c0.3 0 0.3-0.4 0-0.4C285.9 441.9 285.9 442.4 286.2 442.4L286.2 442.4z"></path><path class="st39" d="M285.2 440.1c0.3 0 0.3-0.4 0-0.4C285 439.6 285 440.1 285.2 440.1L285.2 440.1z"></path><path class="st39" d="M283.9 441.1c0.3 0 0.3-0.4 0-0.4C283.6 440.7 283.6 441.1 283.9 441.1L283.9 441.1z"></path><path class="st39" d="M282.3 440.4c0.3 0 0.3-0.4 0-0.4C282 439.9 282 440.4 282.3 440.4L282.3 440.4z"></path><path class="st39" d="M285.2 442.2c0.3 0 0.3-0.4 0-0.4C285 441.7 285 442.2 285.2 442.2L285.2 442.2z"></path><path class="st39" d="M284 440.1c0.3 0 0.3-0.4 0-0.4C283.7 439.7 283.7 440.1 284 440.1L284 440.1z"></path><path class="st39" d="M283.3 438.3c0.3 0 0.3-0.4 0-0.4C283 437.9 283 438.3 283.3 438.3L283.3 438.3z"></path><path class="st39" d="M284.1 439c0.3 0 0.3-0.4 0-0.4C283.9 438.6 283.9 439 284.1 439L284.1 439z"></path><path class="st39" d="M291.9 438.2c0 0.1 0.1 0.3 0.2 0.4 0.1 0.1 0.2 0.1 0.3 0 0.1-0.1 0.1-0.2 0-0.3 0 0-0.1-0.1 0 0 0 0 0 0 0 0 0 0 0 0.1 0 0 0-0.1-0.1-0.2-0.2-0.2C292 437.9 291.9 438 291.9 438.2L291.9 438.2z"></path><path class="st39" d="M285 435.1C285 435.1 285 435.1 285 435.1c0.4 0 0.4-0.4 0.1-0.4 0 0-0.1 0-0.1 0C284.7 434.7 284.7 435.1 285 435.1L285 435.1z"></path><path class="st39" d="M286.4 434.3C286.4 434.3 286.4 434.2 286.4 434.3c0-0.3-0.4-0.3-0.4 0 0 0 0 0 0 0C285.9 434.6 286.4 434.6 286.4 434.3L286.4 434.3z"></path><path class="st39" d="M286.4 435.7c0.3 0 0.3-0.4 0-0.4C286.1 435.3 286.1 435.7 286.4 435.7L286.4 435.7z"></path><path class="st39" d="M287.8 434.7c0.1 0 0.1 0 0.1 0 0 0 0 0 0.1 0 0 0 0 0 0 0C287.9 434.7 287.9 434.7 287.8 434.7 287.8 434.7 287.8 434.7 287.8 434.7c0.2-0.1 0.3-0.1 0.3-0.3 0-0.1-0.1-0.2-0.2-0.2 -0.1 0-0.1 0-0.1 0 0 0 0 0-0.1 0 0 0 0 0 0 0 0 0 0.1 0 0.1 0 0 0 0 0 0 0 -0.1 0-0.2 0.1-0.2 0.2C287.5 434.6 287.6 434.8 287.8 434.7L287.8 434.7z"></path><path class="st39" d="M294.1 438.3c0.3 0 0.3-0.4 0-0.4C293.8 437.9 293.8 438.3 294.1 438.3L294.1 438.3z"></path><path class="st39" d="M289.3 436c0.3 0 0.3-0.4 0-0.4C289 435.5 289 436 289.3 436L289.3 436z"></path><path class="st39" d="M288.7 436.1c0.3 0 0.3-0.4 0-0.4S288.4 436.1 288.7 436.1L288.7 436.1z"></path><path class="st39" d="M287.4 435.6c0.3 0 0.3-0.4 0-0.4C287.1 435.1 287.1 435.6 287.4 435.6L287.4 435.6z"></path><path class="st39" d="M291.4 437c0.3 0 0.3-0.4 0-0.4C291.1 436.5 291.1 437 291.4 437L291.4 437z"></path><path class="st39" d="M289.2 435.1c0.3 0 0.3-0.4 0-0.4C288.9 434.6 288.9 435.1 289.2 435.1L289.2 435.1z"></path><path class="st39" d="M292.3 437.7c0.3 0 0.3-0.4 0-0.4C292 437.3 292 437.7 292.3 437.7L292.3 437.7z"></path><path class="st39" d="M284 436.3c0.3 0 0.3-0.4 0-0.4C283.7 435.9 283.7 436.3 284 436.3L284 436.3z"></path><path class="st39" d="M285.8 436.4c0.3 0 0.3-0.4 0-0.4C285.6 436 285.6 436.4 285.8 436.4L285.8 436.4z"></path><path class="st39" d="M285.1 436.2c0.3 0 0.3-0.4 0-0.4C284.8 435.8 284.8 436.2 285.1 436.2L285.1 436.2z"></path><path class="st39" d="M281.9 439.3c0.1 0 0.1 0 0.2 0 0 0 0 0 0.1 0 0 0 0.1 0 0 0 0.1 0 0.2-0.1 0.2-0.2 0-0.1-0.1-0.2-0.2-0.2 0 0-0.1 0-0.1 0 0 0-0.1 0-0.1 0 -0.1 0-0.2 0.1-0.2 0.2C281.7 439.2 281.8 439.3 281.9 439.3L281.9 439.3z"></path><path class="st39" d="M289 437c0.3 0 0.3-0.4 0-0.4C288.7 436.5 288.7 437 289 437L289 437z"></path><path class="st39" d="M287.5 436.4c0.3 0 0.3-0.4 0-0.4C287.2 436 287.2 436.4 287.5 436.4L287.5 436.4z"></path><path class="st39" d="M289.9 437.4C289.9 437.4 289.8 437.4 289.9 437.4c-0.4 0-0.4 0.4-0.1 0.4 0 0 0.1 0 0.1 0C290.2 437.9 290.2 437.4 289.9 437.4L289.9 437.4z"></path><path class="st39" d="M288.5 438.1c0.3 0 0.3-0.4 0-0.4S288.2 438.1 288.5 438.1L288.5 438.1z"></path><path class="st39" d="M290.6 437.6c0.3 0 0.3-0.4 0-0.4C290.3 437.1 290.3 437.6 290.6 437.6L290.6 437.6z"></path><path class="st39" d="M292.9 437.4c0.3 0 0.3-0.4 0-0.4C292.6 436.9 292.6 437.4 292.9 437.4L292.9 437.4z"></path><path class="st39" d="M293.5 438.1c0.3 0 0.3-0.4 0-0.4C293.2 437.7 293.2 438.1 293.5 438.1L293.5 438.1z"></path><path class="st39" d="M291.5 435.3c0.3 0 0.3-0.4 0-0.4C291.2 434.9 291.2 435.3 291.5 435.3L291.5 435.3z"></path><path class="st39" d="M286.2 437.2c0.3 0 0.3-0.4 0-0.4C285.9 436.8 285.9 437.2 286.2 437.2L286.2 437.2z"></path><path class="st39" d="M285 438.6c0.3 0 0.3-0.4 0-0.4C284.7 438.1 284.7 438.6 285 438.6L285 438.6z"></path><path class="st39" d="M285 437.2c0.3 0 0.3-0.4 0-0.4C284.7 436.8 284.7 437.2 285 437.2L285 437.2z"></path><path class="st39" d="M284.1 435.1c0.3 0 0.3-0.4 0-0.4C283.9 434.6 283.9 435.1 284.1 435.1L284.1 435.1z"></path><path class="st39" d="M283.4 436.2c0.3 0 0.3-0.4 0-0.4C283.2 435.8 283.2 436.2 283.4 436.2L283.4 436.2z"></path><path class="st39" d="M282.6 438c0.3 0 0.3-0.4 0-0.4C282.3 437.5 282.3 438 282.6 438L282.6 438z"></path><path class="st39" d="M284.1 437.2c0.3 0 0.3-0.4 0-0.4C283.9 436.7 283.9 437.2 284.1 437.2L284.1 437.2z"></path><path class="st39" d="M281.5 438c0.3 0 0.3-0.4 0-0.4C281.2 437.5 281.2 438 281.5 438L281.5 438z"></path><path class="st39" d="M290.9 436.3c0.3 0 0.3-0.4 0-0.4C290.6 435.9 290.6 436.3 290.9 436.3L290.9 436.3z"></path><path class="st39" d="M282.9 443.2c0.3 0 0.3-0.4 0-0.4C282.7 442.7 282.7 443.2 282.9 443.2L282.9 443.2z"></path><path class="st39" d="M287.1 444.4c0 0.1 0.1 0.3 0.2 0.4 0.1 0.1 0.2 0.1 0.3 0 0.1-0.1 0.1-0.2 0-0.3 0 0-0.1-0.1 0 0 0 0 0 0 0 0 0 0 0 0.1 0 0 0-0.1-0.1-0.2-0.2-0.2C287.2 444.1 287.1 444.2 287.1 444.4L287.1 444.4z"></path><path class="st39" d="M287.7 445.6C287.7 445.6 287.8 445.6 287.7 445.6c0.4 0 0.4-0.4 0.1-0.4 0 0-0.1 0-0.1 0C287.4 445.2 287.4 445.6 287.7 445.6L287.7 445.6z"></path><path class="st39" d="M289.1 444.7C289.1 444.7 289.1 444.7 289.1 444.7c0-0.3-0.4-0.3-0.4 0 0 0 0 0 0 0C288.7 445 289.1 445 289.1 444.7L289.1 444.7z"></path><path class="st39" d="M289.1 446.2c0.3 0 0.3-0.4 0-0.4C288.8 445.7 288.8 446.2 289.1 446.2L289.1 446.2z"></path><path class="st39" d="M290.5 445.2c0.1 0 0.1 0 0.1 0 0 0 0 0 0.1 0 0 0 0 0 0 0C290.7 445.1 290.6 445.2 290.5 445.2 290.6 445.2 290.6 445.2 290.5 445.2c0.2-0.1 0.3-0.1 0.3-0.3 0-0.1-0.1-0.2-0.2-0.2 -0.1 0-0.1 0-0.1 0 0 0 0 0-0.1 0 0 0 0 0 0 0 0 0 0.1 0 0.1 0 0 0 0 0 0 0 -0.1 0-0.2 0.1-0.2 0.2C290.3 445.1 290.4 445.2 290.5 445.2L290.5 445.2z"></path><path class="st39" d="M292 444.5c0.3 0 0.3-0.4 0-0.4C291.7 444.1 291.7 444.5 292 444.5L292 444.5z"></path><path class="st39" d="M293.3 443.1c0.3 0 0.3-0.4 0-0.4C293 442.6 293 443.1 293.3 443.1L293.3 443.1z"></path><path class="st39" d="M291.5 446.6c0.3 0 0.3-0.4 0-0.4C291.2 446.1 291.2 446.6 291.5 446.6L291.5 446.6z"></path><path class="st39" d="M290.2 446c0.3 0 0.3-0.4 0-0.4C289.9 445.6 289.9 446 290.2 446L290.2 446z"></path><path class="st39" d="M289.3 443.2c0.3 0 0.3-0.4 0-0.4C289 442.7 289 443.2 289.3 443.2L289.3 443.2z"></path><path class="st39" d="M291.9 445.5c0.3 0 0.3-0.4 0-0.4C291.6 445.1 291.6 445.5 291.9 445.5L291.9 445.5z"></path><path class="st39" d="M290.3 443.9c0.3 0 0.3-0.4 0-0.4C290 443.4 290 443.9 290.3 443.9L290.3 443.9z"></path><path class="st39" d="M286.7 446.8c0.3 0 0.3-0.4 0-0.4S286.4 446.8 286.7 446.8L286.7 446.8z"></path><path class="st39" d="M288.6 446.9c0.3 0 0.3-0.4 0-0.4S288.3 446.9 288.6 446.9L288.6 446.9z"></path><path class="st39" d="M287.8 446.7c0.3 0 0.3-0.4 0-0.4C287.5 446.2 287.5 446.7 287.8 446.7L287.8 446.7z"></path><path class="st39" d="M292.8 439.6c0.1 0 0.1 0 0.2 0 0 0 0 0 0.1 0 0 0 0.1 0 0 0 0.1 0 0.2-0.1 0.2-0.2 0-0.1-0.1-0.2-0.2-0.2 0 0-0.1 0-0.1 0 0 0-0.1 0-0.1 0 -0.1 0-0.2 0.1-0.2 0.2C292.6 439.5 292.7 439.6 292.8 439.6L292.8 439.6z"></path><path class="st39" d="M281.7 441.4c0.3 0 0.3-0.4 0-0.4S281.5 441.4 281.7 441.4L281.7 441.4z"></path><path class="st39" d="M290.3 446.9c0.3 0 0.3-0.4 0-0.4C290 446.4 290 446.9 290.3 446.9L290.3 446.9z"></path><path class="st39" d="M294.2 439.8C294.2 439.8 294.2 439.8 294.2 439.8c-0.4 0-0.4 0.4-0.1 0.4 0 0 0.1 0 0.1 0C294.5 440.3 294.5 439.8 294.2 439.8L294.2 439.8z"></path><path class="st39" d="M292.8 440.5c0.3 0 0.3-0.4 0-0.4C292.5 440 292.5 440.5 292.8 440.5L292.8 440.5z"></path><path class="st39" d="M288.5 443.7c0.3 0 0.3-0.4 0-0.4C288.3 443.3 288.3 443.7 288.5 443.7L288.5 443.7z"></path><path class="st39" d="M290.8 443.5c0.3 0 0.3-0.4 0-0.4C290.6 443.1 290.6 443.5 290.8 443.5L290.8 443.5z"></path><path class="st39" d="M291.4 444.3c0.3 0 0.3-0.4 0-0.4C291.1 443.9 291.1 444.3 291.4 444.3L291.4 444.3z"></path><path class="st39" d="M292.1 443c0.3 0 0.3-0.4 0-0.4C291.8 442.5 291.8 443 292.1 443L292.1 443z"></path><path class="st39" d="M290.5 439.6c0.3 0 0.3-0.4 0-0.4C290.2 439.2 290.2 439.6 290.5 439.6L290.5 439.6z"></path><path class="st39" d="M289 440.4c0.3 0 0.3-0.4 0-0.4C288.7 439.9 288.7 440.4 289 440.4L289 440.4z"></path><path class="st39" d="M289.3 439.6c0.3 0 0.3-0.4 0-0.4C289.1 439.2 289.1 439.6 289.3 439.6L289.3 439.6z"></path><path class="st39" d="M286.9 445.5c0.3 0 0.3-0.4 0-0.4C286.6 445.1 286.6 445.5 286.9 445.5L286.9 445.5z"></path><path class="st39" d="M286.2 446.7c0.3 0 0.3-0.4 0-0.4C285.9 446.2 285.9 446.7 286.2 446.7L286.2 446.7z"></path><path class="st39" d="M286.9 440.7c0.3 0 0.3-0.4 0-0.4C286.6 440.2 286.6 440.7 286.9 440.7L286.9 440.7z"></path><path class="st39" d="M288.5 439.6c0.3 0 0.3-0.4 0-0.4C288.2 439.1 288.2 439.6 288.5 439.6L288.5 439.6z"></path><path class="st39" d="M285.1 445.5c0.3 0 0.3-0.4 0-0.4C284.8 445.1 284.8 445.5 285.1 445.5L285.1 445.5z"></path><path class="st39" d="M286.6 444c0.3 0 0.3-0.4 0-0.4C286.3 443.6 286.3 444 286.6 444L286.6 444z"></path><path class="st39" d="M286.1 445.1c0.3 0 0.3-0.4 0-0.4C285.9 444.7 285.9 445.1 286.1 445.1L286.1 445.1z"></path><path class="st39" d="M284.1 442.5c0 0.1 0.1 0.3 0.2 0.4 0.1 0.1 0.2 0.1 0.3 0 0.1-0.1 0.1-0.2 0-0.3 0 0-0.1-0.1 0 0 0 0 0 0 0 0 0 0 0 0.1 0 0 0-0.1-0.1-0.2-0.2-0.2C284.2 442.3 284.1 442.4 284.1 442.5L284.1 442.5z"></path><path class="st39" d="M284.7 443.7C284.7 443.7 284.8 443.7 284.7 443.7c0.4 0 0.4-0.4 0.1-0.4 0 0-0.1 0-0.1 0C284.4 443.3 284.4 443.7 284.7 443.7L284.7 443.7z"></path><path class="st39" d="M283.9 445.6c0.3 0 0.3-0.4 0-0.4C283.6 445.2 283.6 445.6 283.9 445.6L283.9 445.6z"></path><path class="st39" d="M284.8 444.8c0.3 0 0.3-0.4 0-0.4C284.5 444.4 284.5 444.8 284.8 444.8L284.8 444.8z"></path><path class="st39" d="M283.9 443.7c0.3 0 0.3-0.4 0-0.4C283.6 443.2 283.6 443.7 283.9 443.7L283.9 443.7z"></path><path class="st39" d="M283.2 444.8c0.3 0 0.3-0.4 0-0.4C282.9 444.4 282.9 444.8 283.2 444.8L283.2 444.8z"></path><path class="st39" d="M282.1 443.6c0.3 0 0.3-0.4 0-0.4C281.8 443.2 281.8 443.6 282.1 443.6L282.1 443.6z"></path><path class="st39" d="M283.6 442.2c0.3 0 0.3-0.4 0-0.4C283.3 441.7 283.3 442.2 283.6 442.2L283.6 442.2z"></path><path class="st39" d="M282.6 442c0.3 0 0.3-0.4 0-0.4C282.3 441.5 282.3 442 282.6 442L282.6 442z"></path><rect x="56" y="497" class="st40" width="6" height="67.9"></rect><rect x="292.2" y="497" class="st40" width="6" height="67.9"></rect><rect x="56" y="493.8" class="st40" width="242.2" height="12.1"></rect><rect x="201.1" y="505.9" class="st25" width="91.1" height="19.8"></rect><rect x="201.1" y="525.1" class="st41" width="91.1" height="0.5"></rect><circle class="st41" cx="246.6" cy="515.8" r="1.7"></circle><rect x="201.1" y="525.7" class="st25" width="91.1" height="19.8"></rect><rect x="201.1" y="544.9" class="st41" width="91.1" height="0.5"></rect><circle class="st41" cx="246.6" cy="535.6" r="1.7"></circle><rect x="201.1" y="545.5" class="st25" width="91.1" height="19.8"></rect><rect x="201.1" y="564.8" class="st41" width="91.1" height="0.5"></rect><circle class="st41" cx="246.6" cy="555.4" r="1.7"></circle><path class="st1" d="M231.1 478.7h-0.6v-3c0-1.4-1.1-2.5-2.5-2.5 -1.4 0-2.5 1.1-2.5 2.5v3h-0.6v-3c0-1.7 1.4-3.1 3.1-3.1 1.7 0 3.1 1.4 3.1 3.1V478.7z"></path><path class="st1" d="M236.6 478.7H236v-3c0-1.4-1.1-2.5-2.5-2.5s-2.5 1.1-2.5 2.5v3h-0.6v-3c0-1.7 1.4-3.1 3.1-3.1 1.7 0 3.1 1.4 3.1 3.1V478.7z"></path><polygon class="st42" points="212.1 489.7 212.1 489.7 212.1 488.4 210.2 488.4 210.2 489.7 208.2 491.2 209.3 493.7 213.2 493.7 214.2 491.2 "></polygon><polygon class="st43" points="213.2 493.7 214.2 491.2 212.1 489.7 212.1 489.7 212.1 488.4 211.2 488.4 211.2 493.7 "></polygon><polygon class="st44" points="208.9 491.2 213.3 491.2 212.7 493.3 209.7 493.3 "></polygon><path class="st45" d="M211.4 492.1c0 0.1-0.1 0.1-0.1 0.1l0 0c-0.1 0-0.1-0.1-0.1-0.1v-3.9c0-0.1 0.1-0.1 0.1-0.1l0 0c0.1 0 0.1 0.1 0.1 0.1V492.1z"></path><path class="st46" d="M211.2 488.3c-0.5 0-1.5-0.4-1-1.9 0.4-1 0.9-1.1 1-2.5C212.5 485.6 213.3 488.3 211.2 488.3z"></path><path class="st47" d="M211.2 488.3c-0.3 0-1-0.3-0.7-1.2 0.2-0.7 0.6-0.7 0.6-1.7C212 486.5 212.5 488.3 211.2 488.3z"></path><rect x="204" y="462.2" class="st33" width="0.6" height="30.6"></rect><rect x="222.2" y="479.5" class="st33" width="0.6" height="13.3"></rect><rect x="239.1" y="479.5" class="st33" width="0.6" height="13.3"></rect><rect x="201.3" y="465.2" class="st33" width="8" height="0.6"></rect><path class="st26" d="M211.5 481.9c-2.8 0-5.1-2.3-5.1-5.1 0-2.3 1.5-4.2 3.6-4.9v-8.2h-0.2v-1.5h3.4v1.5H213v8.2c2.1 0.6 3.6 2.6 3.6 4.9C216.6 479.6 214.3 481.9 211.5 481.9z"></path><path class="st27" d="M213 471.9v-8.2h0.2v-1.5h-1.7v19.6c2.8 0 5.1-2.3 5.1-5.1C216.6 474.5 215.1 472.5 213 471.9z"></path><path class="st24" d="M207.5 476.8c0 2.2 1.8 4.1 4.1 4.1 2.2 0 4.1-1.8 4.1-4.1H207.5z"></path><circle class="st24" cx="211.5" cy="473.4" r="0.5"></circle><circle class="st24" cx="212.3" cy="474.4" r="0.4"></circle><circle class="st24" cx="211.6" cy="463.9" r="0.4"></circle><circle class="st24" cx="211.8" cy="475.6" r="0.3"></circle><circle class="st24" cx="211.4" cy="467.7" r="0.3"></circle><circle class="st1" cx="211.3" cy="478.8" r="0.4"></circle><circle class="st1" cx="211.8" cy="477.6" r="0.3"></circle><circle class="st24" cx="207.9" cy="476.8" r="0.5"></circle><circle class="st24" cx="209.7" cy="476.8" r="0.5"></circle><circle class="st24" cx="209.2" cy="476.3" r="0.5"></circle><circle class="st24" cx="210.9" cy="476.8" r="0.5"></circle><circle class="st24" cx="211.9" cy="476.8" r="0.5"></circle><circle class="st24" cx="212.8" cy="476.4" r="0.6"></circle><circle class="st24" cx="213.7" cy="476.8" r="0.6"></circle><circle class="st24" cx="214.6" cy="476.8" r="0.6"></circle><circle class="st24" cx="215" cy="476.8" r="0.6"></circle><path class="st48" d="M214.3 465.5c0 0.5-0.4 0.8-0.8 0.8h-3.9c-0.5 0-0.8-0.4-0.8-0.8l0 0c0-0.5 0.4-0.8 0.8-0.8h3.9C213.9 464.6 214.3 465 214.3 465.5L214.3 465.5z"></path><rect x="210.9" y="464.6" class="st49" width="1.3" height="1.7"></rect><path class="st1" d="M228.4 472.9h-0.6v-14.5c0-2.6-2.5-4.7-5.6-4.7h-4.9c-3.1 0-5.6 2.1-5.6 4.7v5.2h-0.6v-5.2c0-2.9 2.8-5.3 6.2-5.3h4.9c3.4 0 6.2 2.4 6.2 5.3V472.9z"></path><path class="st1" d="M248 477.5h-0.6v-5c0-2.6-2.1-4.7-4.7-4.7h-4.2c-2.6 0-4.7 2.1-4.7 4.7v0.5h-0.6v-0.5c0-2.9 2.4-5.3 5.3-5.3h4.2c2.9 0 5.3 2.4 5.3 5.3V477.5z"></path><path class="st26" d="M227.1 476.5L227.1 476.5h-3.3 -0.1v0c-0.2 0-0.3 0.2-0.3 0.4 0 0.2 0.1 0.4 0.3 0.4v11.1l0 0.4 0.1 0.2c0.2 0.7 0.8 1.1 1.6 1.1 0.8 0 1.4-0.3 1.6-1.1l0.1-0.2v-11.5h0.1c0.2 0 0.4-0.2 0.4-0.4C227.5 476.6 227.4 476.5 227.1 476.5z"></path><path class="st27" d="M227.1 476.5L227.1 476.5h-1.7V490c0.7 0 1.6-0.3 1.6-1.2 0-0.5 0-11.5 0-11.5h0.1c0.2 0 0.4-0.2 0.4-0.4C227.5 476.6 227.4 476.5 227.1 476.5z"></path><path class="st24" d="M226.5 488.2c0 0.5-0.4 1-1 1 -0.5 0-1-0.4-1-1l0-0.5v-8.1h2V488.2z"></path><path class="st26" d="M232.4 476.5L232.4 476.5h-3.3H229v0c-0.2 0-0.3 0.2-0.3 0.4 0 0.2 0.1 0.4 0.3 0.4v11.1l0 0.4 0.1 0.2c0.2 0.7 0.8 1.1 1.6 1.1 0.8 0 1.4-0.3 1.6-1.1l0.1-0.2v-11.5h0.1c0.2 0 0.4-0.2 0.4-0.4C232.8 476.6 232.6 476.5 232.4 476.5z"></path><path class="st27" d="M232.4 476.5L232.4 476.5h-1.7V490c0.7 0 1.6-0.3 1.6-1.2 0-0.5 0-11.5 0-11.5h0.1c0.2 0 0.4-0.2 0.4-0.4C232.8 476.6 232.6 476.5 232.4 476.5z"></path><path class="st50" d="M231.7 488.2c0 0.5-0.4 1-1 1s-1-0.4-1-1l0-0.5v-8.1h2V488.2z"></path><path class="st26" d="M238 476.5L238 476.5h-3.3 -0.1v0c-0.2 0-0.3 0.2-0.3 0.4 0 0.2 0.1 0.4 0.3 0.4v11.1l0 0.4 0.1 0.2c0.2 0.7 0.8 1.1 1.6 1.1 0.8 0 1.4-0.3 1.6-1.1l0.1-0.2v-11.5h0.1c0.2 0 0.4-0.2 0.4-0.4C238.4 476.6 238.2 476.5 238 476.5z"></path><path class="st27" d="M238 476.5L238 476.5h-1.7V490c0.7 0 1.6-0.3 1.6-1.2 0-0.5 0-11.5 0-11.5h0.1c0.2 0 0.4-0.2 0.4-0.4C238.4 476.6 238.2 476.5 238 476.5z"></path><path class="st34" d="M237.3 488.2c0 0.5-0.4 1-1 1 -0.5 0-1-0.4-1-1l0-0.5v-8.1h2V488.2z"></path><line class="st51" x1="220.6" y1="479.5" x2="241" y2="479.5"></line><circle class="st52" cx="204.3" cy="465.5" r="1.3"></circle><circle class="st48" cx="204.3" cy="465.5" r="0.7"></circle><rect x="256.6" y="470.9" class="st33" width="0.6" height="21.6"></rect><rect x="250.5" y="475.5" class="st33" width="9.8" height="0.6"></rect><path class="st26" d="M251.7 488c0.8-0.9 1.4-2.1 1.4-3.5 0-2.3-1.5-4.2-3.6-4.9v-7h0.2v-1.5h-3.4v1.5h0.2v7c-2.1 0.6-3.6 2.6-3.6 4.9 0 1.3 0.5 2.5 1.4 3.5H251.7z"></path><path class="st27" d="M251.7 488c0.8-0.9 1.4-2.1 1.4-3.5 0-2.3-1.5-4.2-3.6-4.9v-7h0.2v-1.5H248V488H251.7z"></path><path class="st34" d="M251.3 486.9c0.5-0.7 0.7-1.5 0.7-2.3 0-2.2-1.8-4.1-4.1-4.1 -2.2 0-4.1 1.8-4.1 4.1 0 0.9 0.3 1.7 0.7 2.3H251.3z"></path><path class="st48" d="M250.7 475.8c0 0.5-0.4 0.8-0.8 0.8H246c-0.5 0-0.8-0.4-0.8-0.8l0 0c0-0.5 0.4-0.8 0.8-0.8h3.9C250.4 475 250.7 475.3 250.7 475.8L250.7 475.8z"></path><rect x="247.3" y="475" class="st49" width="1.3" height="1.6"></rect><circle class="st52" cx="256.9" cy="475.8" r="1.3"></circle><circle class="st48" cx="256.9" cy="475.8" r="0.7"></circle><circle class="st26" cx="247.4" cy="482" r="0.5"></circle><circle class="st26" cx="248.2" cy="482.9" r="0.4"></circle><circle class="st26" cx="247.7" cy="484.2" r="0.3"></circle><circle class="st26" cx="248.7" cy="485.9" r="0.4"></circle><circle class="st26" cx="249.2" cy="484.7" r="0.3"></circle><polygon class="st53" points="207.2 493.7 206.4 493.7 206.4 493.2 202.2 493.2 202.2 493.7 201.3 493.7 201.3 492.3 207.2 492.3 "></polygon><polygon class="st54" points="239.8 493.7 239 493.7 239 493.2 221.8 493.2 221.8 493.7 220.9 493.7 220.9 492.3 239.8 492.3 "></polygon><polygon class="st53" points="259.9 493.7 259 493.7 259 493.2 254.8 493.2 254.8 493.7 253.9 493.7 253.9 492.3 259.9 492.3 "></polygon><path class="st55" d="M323.2 558.2c0 0-3.3-64.9-2.9-65.2l12.1-2.4c0 0.1-1.7 68.8-1.7 68.8L323.2 558.2z"></path><path class="st56" d="M323.2 558.2c0 0-5.1 1.5-7.1 1.7 -2.5 0.2-3.1 3.2-3.1 3.2h17.2c0 0 0.8-1.8 0.5-3.6 -3.2-0.5-7.1-1.3-7.1-1.3"></path><path class="st0" d="M327.2 558.2c0 0-5.6-67.3-5.2-67.6h14.5c0 0.1-1.7 68.8-1.7 68.8L327.2 558.2z"></path><path class="st33" d="M327.2 558.2c0 0-5.1 1.5-7.1 1.7 -2.5 0.2-3.1 3.2-3.1 3.2h17.2c0 0 0.8-1.8 0.5-3.6 -3.2-0.5-7.1-1.3-7.1-1.3"></path><polyline class="st17" points="330.8 454.6 329.1 441 321.1 431.5 325.3 458.6 "></polyline><path class="st17" d="M311.4 437.1c0 0 1.2 17.4 8.7 17.4 4.7 0 7.9-3 7.9-8.3l-0.7-9.2"></path><path class="st0" d="M325.1 438c0 0-9.3 3.4-13.1 0 -3.8-3.4 1.7-7.1 7.6-7.1 5.9 0 7.6 2.7 7.6 2.7L325.1 438z"></path><path class="st0" d="M327.3 433.5c0 0 2.3 0.1 3.1 2.1 0.8 2 0.3 10.3-1.3 12.3 -0.2-2.1-2.1-6-3.5-7.2 -1.4-1.2-2.3-1-3 1.3 0.5-2.8 0.2-4 0.2-4L327.3 433.5z"></path><path class="st1" d="M336.5 490.6c0 0 2.1-20.3 0-30.4 -2.1-10-14.1-9.5-15.8 0 -1.7 9.6 2.7 16.2 2.4 20.1 -0.2 3.9-1.2 10.3-1.2 10.3H336.5z"></path><path class="st1" d="M289.9 473.1c0 0 21.2-1.7 29.7-11.8 6.8-8.1 12.4 0 5.5 5.5 -7.2 5.7-19 9.8-35 9.4C290 475.5 289.9 473.1 289.9 473.1z"></path><path class="st19" d="M290 476.2c0 0-3.7 0.4-4.1-0.3 -0.2-0.2 0.2-0.4 0.4-0.4 -0.5-0.2-0.7-0.2-0.7-0.4 0-0.3 0.7-0.4 0.7-0.4s-0.9 0-0.9-0.5c0-0.4 0.8-0.4 0.8-0.4s-0.8 0-0.8-0.4c0-0.4 0.3-0.4 0.7-0.4 0.3 0 2.1 0.3 2.1 0.3s-1-0.5-1.5-0.6c-0.6-0.1-0.6-0.7 0.5-0.6 1.1 0.2 2.8 1 2.8 1L290 476.2z"></path><path class="st1" d="M331.3 453.4c0 0 6.1 1.1 6.8 7.8 1 9.4 1.9 58.7 1.9 58.7h-21.1c0 0 0-40.7 0-42.8 0-2.2 0.4-18.4 5.3-21.1C329.2 453.4 331.3 453.4 331.3 453.4z"></path><path class="st1" d="M312.1 445.2c0 0 6-1.6 9 2.9 3 4.5 1.2 5.8 0 6.5C319.9 455.3 314.2 455.9 312.1 445.2z"></path><line class="st57" x1="318.7" y1="446.3" x2="322.7" y2="441.6"></line><line class="st57" x1="321.8" y1="450.4" x2="329.9" y2="447.6"></line><lineargradient gradientUnits="userSpaceOnUse" x1="150" y1="562.7" x2="150" y2="454.1"><stop offset="0" stop-color="#FFF"></stop><stop offset="1" stop-color="#000"></stop></lineargradient><polygon class="st58" points="56 505.9 1.8 551 1.8 565.7 226.2 565.7 298.2 505.9 "></polygon></svg>