<svg id="Ebene_1" xmlns="http://www.w3.org/2000/svg" viewBox="0 0 2880 633"><style>.st0{fill-rule:evenodd;clip-rule:evenodd}.st0,.st1{fill:#4a3c6f}.st2{fill:#514474}.st3{fill:#4d3f71}.st4,.st5,.st6{fill:#f4f4f4}.st5,.st6{opacity:.36;enable-background:new}.st6{opacity:.1}.st7{fill:#fff}.st8{fill:#f2f2f2}.st9{fill:#234c87}.st10{fill:#59f}.st11{fill:#397ee2}.st12{fill:#3d83e8}.st13{fill:#dfdfdf}.st14{fill:#2b62a3}.st15{fill:#2070d1}.st16{fill:#4792b3}.st17{fill:none;stroke:#59f;stroke-width:2;stroke-miterlimit:10}.st18,.st19{fill:#8cf0fb}.st19{opacity:.5;enable-background:new}.st20{fill:#e6e6e6}.st21{fill:#fbb03b}.st22{fill:#f7931e}.st23{fill:#f15a24}.st24{fill:#5a5a60}.st25{fill:#767582}.st26{fill:#c2c3c9}.st27{fill:#87868a}.st28{fill:#a0a0a3}.st29{fill:#d8d9dd}.st30{fill:#edeef0}.st31{fill:#95959e}.st32{fill:#beecfc}.st33{fill:#a5e2fd}.st34{fill:#5b5b5f}.st35{fill:#a38051}.st36{fill:#5da55d}.st37{fill:#ce9772}.st38{fill:#bc845e}.st39{fill:#e84f69}.st40{fill:#a52641}.st41{fill:#eaded3}.st42{fill:#b27952}.st43{fill:#e2ae8a}.st44{fill:#edb698}.st45{fill:#a0663f}.st46,.st47{stroke:#31494c;stroke-miterlimit:10}.st46{stroke-width:2;fill:#256860}.st47{fill:#338c7f}.st48{opacity:.3;fill:#59361e}.st49{fill:#a5e2fd;stroke:#602323;stroke-width:3;stroke-miterlimit:10}.st50{fill:#444242}.st51{fill:#602323}.st52{fill:#724526}</style><path class="st0" d="M1113 632.6v6.5h128.1v-6.5h-9.6v-71.2c1.9-.8 3.3-2.6 3.3-4.9v-6.3h-115.5v6.3c0 2.2 1.4 4.1 3.3 4.9v71.3h-9.6zm27.3-82.4h31.5l1.5-19.5h-43.2l-10.9 19.5h21.1zm52.5 0h42l-13.2-19.5h-48.5l-1.5 19.5h21.2zm-313.5 87.1v2.2h158.5v-2.2h-2.8v-54.4h2.8v-12.4h-70.6v-18.7l-19.5-8.4v27.1h-3.5v-13h-17.9v13H922v-9.2h-15.7v9.2h-3.5v-21.2h-17.9v21.2h-5.5v12.4h2v54.4h-2.1zm127-101.5l-33.7 31.8h67.5l-33.8-31.8z"/><path class="st0" d="M1022.5 591.1v48.4h108.4V565h2.9v-29h-7.5v-14.9h-17.7V536h-50.1v29h2.9v9.5l-38.9 16.6zm-248.6-28v70.7h109.6V563h4.2v-9.6L869 532.8h-23.9v-6.4h-32.9v6.4h-23.9l-18.8 20.4v10h4.4z"/><path class="st0" d="M666.9 579.1v54.6h107.4v-54.6h6V564h-6v-10.9h6V538h-6v-10.9h6V512h-26.2v-11H687v11.3h-26.2v15.1h6v10.9h-6v15.1h6v10.9h-6v14.8h6.1zm-141.1-14.9v-25h-12.5v-4.5h-29.4v29.4h-7.3v-22.8h-52.4v22.8h-7.7v13.1h7.7v7.2h-7.7v6.6h7.7v13.3h-7.7v6.6h7.7v23h137v-23h7.7v-6.6h-7.7V591h7.7v-6.6h-7.7v-7.2h7.7v-13.1H485m68.8-6.1v-49.1h-23v55h23V558zm881.6 71.7v9.3h-193.6v-9.3h14.5V527.9c-2.9-1.1-5-3.8-5-6.9v-9h174.9v9c0 3.2-2.1 5.9-5 6.9v101.9h14.2zm-41.2-117.8h-47.7l-2.2-27.9h65.4l16.4 27.9h-31.9zm-79.4 0h-63.6l20-27.9h73l2.3 27.9h-31.7zm473.8 124.4v3.2h-239.5v-3.2h4.2v-77.8h-4.2v-17.8h106.6V514l29.5-12v38.7h5.3v-18.6h27.1v18.6h6.5v-13.2h23.7v13.2h5.3v-30.3h27.1v30.3h8.3v17.8h-3.1v77.8h3.2zm-191.9-145l51 45.4h-102l51-45.4z"/><path class="st0" d="M1572.3 570.4v69.1h-163.8V533.2h-4.3v-41.6h11.3v-21.4h26.8v21.4h75.7v41.6h-4.3v13.5l58.6 23.7zm375.6-40v101h-165.7V530.3h-6.4v-13.9l28.4-29.4h36v-9.2h49.7v9.2h36l28.4 29.2v14.2h-6.4z"/><path id="Form_107" class="st1" d="M1518.7 625.4h27.6v7.3h-225.1v-7.3h27.8v-25.9c-6.4-.7-11-6.5-10.3-12.9.7-6.4 6.5-11 12.9-10.3s11 6.5 10.3 12.9c-.6 5.4-4.9 9.6-10.3 10.3v25.9H1516m-50.3-.1h-90V479.8h24.4v-65h67.2v65h24.4v145.5h-26zm-131.6.4v7.3H1109v-7.3h49v-.2h-26.7c0-9.1 7.4-16.5 16.6-16.5 3.6 0 7.2 1.2 10.1 3.4V483.2c-.8.8-1.7 1.6-2.5 2.5-2.4 2.4-6.2-1.3-3.8-3.8 23.4-23.4 46.8-46.8 70.2-70.1 1-1 2.7-1 3.8 0 23.7 23.4 47.4 46.8 71.1 70.1 2.5 2.4-1.3 6.2-3.8 3.8l-2-2v129.9c6.6-6.3 17.1-6 23.4.7 2.9 3.1 4.5 7.1 4.5 11.4H1291v.2l43.1-.2zm349.9 0v7.3h-225.1v-7.3h6.3v-14.4c-3.6-.4-6.1-3.6-5.7-7.2.4-3.6 3.6-6.1 7.2-5.7 3.6.4 6.1 3.6 5.7 7.2-.3 3-2.7 5.4-5.7 5.7v14.4h11.5v-14.4c-3.5-.4-6.1-3.6-5.7-7.2.4-3.5 3.6-6.1 7.2-5.7s6.1 3.6 5.7 7.2c-.3 3-2.7 5.3-5.7 5.7v14.4h11.5v-14.4c-3.5-.4-6.1-3.6-5.7-7.2s3.6-6.1 7.2-5.7c3.5.4 6.1 3.6 5.7 7.2-.3 3-2.7 5.3-5.7 5.7v14.4h11.5v-14.4c-3.6-.4-6.1-3.6-5.7-7.2.4-3.6 3.6-6.1 7.2-5.7 3.6.4 6.1 3.6 5.7 7.2-.3 3-2.7 5.4-5.7 5.7v14.4h6.8V421.6h-5.7v-7.1h125.6v7.1h-3.8v201.5h.2v2.6h7.1v-14.5c-3.5-.4-6.1-3.6-5.7-7.2s3.6-6.1 7.2-5.7c3.5.4 6.1 3.6 5.7 7.2-.3 3-2.7 5.3-5.7 5.7v14.5h11.5v-14.5c-3.6-.4-6.1-3.6-5.7-7.2.4-3.6 3.6-6.1 7.2-5.7 3.6.4 6.1 3.6 5.7 7.2-.3 3-2.7 5.4-5.7 5.7v14.5h11.5v-14.5c-3.6-.4-6.1-3.6-5.7-7.2.4-3.6 3.6-6.1 7.2-5.7 3.6.4 6.1 3.6 5.7 7.2-.3 3-2.7 5.4-5.7 5.7v14.5h11.5v-14.5c-3.5-.4-6.1-3.6-5.7-7.2s3.6-6.1 7.2-5.7c3.5.4 6.1 3.6 5.7 7.2-.3 3-2.7 5.3-5.7 5.7v14.5h7.6z"/><path id="Form_105" class="st2" d="M501.5 595.2V637h-55v-41.8l-6.5 3.4v-12.8l34-17.7 34 17.7v12.8l-6.5-3.4zm115.6 36.9v5.5h-109v-5.5h8.2v-60.9c-1.7-.7-2.8-2.3-2.8-4.2v-5.4h98.4v5.4c0 1.8-1.1 3.5-2.8 4.2v60.9h8zm-23.2-70.4h-26.8l-1.3-16.7h36.7l9.3 16.7h-17.9zm-44.7 0h-35.8l11.3-16.7h41.1l1.3 16.7h-17.9zM816 636.1v1.9H681.1v-1.9h2.4v-46.5h-2.4V579h60.1v-16l16.6-7.1V579h3v-11.1h15.3V579h3.7v-7.9h13.4v7.9h3v-18.1h15.3V579h4.7v10.6h-1.7v46.5h1.5zm-108.1-86.7l28.7 27.1h-57.4l28.7-27.1zm-13.7 47.3V638h-92.3v-63.6h-2.4v-24.8h6.4v-12.8H621v12.8h42.6v24.8h-2.4v8.1l33 14.2zm261.6-23.9v60.4h-93.3v-60.5h-3.6v-8.3l16-17.6h20.3v-5.5h28v5.5h20.3l16 17.4v8.5l-3.7.1zm41.1 13.6v46.7h-91.5v-46.7h-5.1v-12.9h5.1v-9.3h-5.1v-12.9h5.1V542h-5.1v-12.9h22.3v-9.6h57.1v9.6h22.3V542h-5.1v9.3h5.1v12.9h-5.1v9.3h5.1v12.9h-5.1zm213.1 21.5v5.6h-6.5v19.7h-116.6v-19.7h-6.5v-5.6h6.5v-11.4h-6.5v-5.6h6.5v-6.1h-6.5v-11.2h71.3l-15.1-13.3v13.2H1117v-21.2h10.6v-3.8h25v25.1h6.2v-19.5h44.6v19.5h6.5v11.2h-6.5v6.1h6.5v5.6h-6.5v11.4h6.6zm-116.9-39.6v-42h19.6v47.1h-19.6v-5.1z"/><path id="Form_105_Kopie" class="st3" d="M1963.4 631.8c-12.5.4-27.1.7-42.7.9-7.8.1-15.9.2-24.1.2-8.2 0-16.6.1-24.9.1-8.3 0-16.7-.1-24.9-.1s-16.3-.2-24.1-.2-15.4-.2-22.5-.4c-7.2-.1-13.9-.3-20.2-.5-25-.7-29-1.6-29-1.6s4-.9 29-1.6c4.8-.1 10-.3 15.4-.4V231h13.7v-25.3h37.1v-16.8h19.6l5.5-45.3c-2.9-.4-5-3-4.7-6 .4-2.9 3-5 6-4.7s5 3 4.7 6c-.3 2.4-2.2 4.4-4.7 4.7l5.5 45.3h19.6v16.8h37.1V231h13.7v397.2c5.2.1 10.2.2 14.9.4 25 .7 27.6 1.6 27.6 1.6s-2.6.9-27.6 1.6z"/><path id="Form_106_Kopie" class="st1" d="M2529 633h-577v-9h.3v-22.8h-3.3v-3h11.3V362.6h6.6v-8.1h1.3V353h57.3v1.6h1.3v8.1h3v-1.5h3.6V594h6.1v4.2h5.2V624h24.8V366.9h4v-2.8h65.1v2.8h4V624h2.8v-88.4h14.9v-16.1h5c1-16.4 9.8-27.1 17.3-33.3h8.2l1.8-18.4h1.4v85.6h16.3v-3.7h-3.6v-65.9h9.2v-10.9h45.3v10.9h9.2v65.9h-3.6v3.7h6.8V436.3h3.6v1.5h3v-8.1h1.3v-1.6h57.3v1.6h1.4v8.1h3v-1.5h3.6V448h65.4v3.8h5.4V624h36.6v-20h-2.5v-5.9h8.9v-11.5h-2.7v-6.1h2.7v-7.6h-2.7v-6.1h2.7v-5.1h-2.7v-2.5h2.7v-3.6h-2.7v-2.5h2.7V548h-2.7v-2.5h2.7v-3.6h-2.7v-2.5h2.7v-5.1h-2.7v-6.1h2.7v-7.6h-2.7v-6.1h2.7v-5.3h3.9l3.5-5.4h2.9l6.8-13.5h37l6.8 13.5h2.9l3.5 5.4h3.9v5.3h2.7v6.1h-2.7v7.6h2.7v6.1h-2.7v5.1h2.7v2.5h-2.7v3.6h2.7v2.5h-2.7v5.1h2.7v2.5h-2.7v3.6h2.7v2.5h-2.7v5.1h2.7v6.1h-2.7v7.6h2.7v6.1h-2.7v11.5h8.8v5.9h-2.5v23.5h2.5v3.3h2.9v2.1H2529z"/><path class="st2" d="M1709.8 485.6h5.3v9.2h-5.3zm0 34.6h5.3v9.2h-5.3zm0-17.3h5.3v9.2h-5.3zm60 130.2h2.2V626zm-7.6-16.9h-20.5v16.9h25l5.3-16.9zm-52.4-9.6h5.3v26.5h-5.3zm0-51.9h5.3v9.2h-5.3zm0-17.3h5.3v9.2h-5.3zm0 34.6h5.3v9.2h-5.3zm0 17.3h5.3v9.2h-5.3zm651.1-79.3h-34.8v2.1h-3.1V633h41V512.1h-3.1zm98.7 89.7v-86h-6.1v-7.3h-1.2V505h-52.6v1.4h-1.2v7.3h-2.8v-1.3h-3.3v83.5h-5.6v3.8h-4.8V633h85v-30.6h3v-2.7zm-248.2-154.8v20.6h3.7l-2-20.6zm13.1 20.6h-9.3l.5 4.6h-4.2v32.8h32.8c-1.2-18.4-11.2-30.4-19.8-37.4zM2005.1 389h-69.3v4.2h-6.2v239.9h81.7V393.2h-6.2zm40.8 11.4h65.5v1.8h-65.5z"/><path class="st2" d="M2250 519.1V503h-5.7c.1 1.1.1 2.2.1 3.3h-33V503v38h-91V409.6h-4.1v1.6h-3.5v-9h-1.5v2.8h-65.5v-2.8h-1.5v9h-3.5v-1.6h-4.1v130.8h-8.2v7.1h-6.3l-.3 85h244.2V521.1h-17v-2zM2096.3 433l-5.7-3h5.7v3zm-9.9 0l-5.7-3h5.7v3zm-10 0l-5.7-3h5.7v3zm-9.9 0l-5.7-3h5.7v3zm-10 0l-5.7-3h5.7v3zm49.8 0l-5.7-3h5.7v3zm9.9 0l-5.7-3h5.7v3zm-69.6 0l-5.7-3h5.7v3zm-256.3 19.5h-66.9v15.8h-13.6v9.2h5.3v8.1h83.5v9.2h-83.5v8.1h83.5v9.2h-83.5v8.1h83.5v9.2h-83.5v8h83.5v9.2h-83.5v8.1h83.5v9.2h-83.5v8.1h83.5v9.2h-83.5v8.1h83.5v9.2h-83.5v8.1h83.5v26.5h5.3v-26.5h-5.3v-8.1h5.3v-9.2h-5.3v-8.1h5.3V572h-5.3v-8.1h5.3v-9.2h-5.3v-8.1h5.3v-9.2h-5.3v-8h5.3v-9.2h-5.3v-8.1h5.3v-9.2h-5.3v-8.1h5.3v-9.2h-5.3v-8.1h5.3-5.3v-7.6h-8.3v-1.6h13.6-13.6zm112 5.2l-4-6.1h-3.2l3.1 6.1z"/><path class="st2" d="M1916.9 624.4h-2.9v-2.6l-7.7-1.6h.5v-16h7.2V598h2.9v-6.6h-10.1v-13h3.1v-5.5h-3.1v-1.3h3.1v-.1h-3.1V563h3.1v-5.6h-3.1v-9.8h3.1V542h-3.1v-1.3h3.1-3.1v-8.5h3.1v-5.6h-3.1v-1.3h3.1-3.1v-8.6h3.1v-5.5h-3.1v-1.3h3.1-3.1v-8.6h3.1v-5.6h-3.1v-1.3h3.1-3.1v-8.5h3.1v-5.6h-3.1V479h3.1-3.1v-8.5h3.1v-5.6h-3.1v-7.2h-8.6l-3.1-6.1-7.8-15.1H1845l-11 21.2h48.2v133.7h-34.8V457.7h-22v133.7h-10v6.6h2.9v26.4h-2.9v3.7h-3.3v5h108.1v-5h-3.3z"/><path id="Form_104" class="st4" d="M2240.4 387.1c1.9-3.5.7-7.8-2.8-9.7-.6-.3-1.1-.5-1.8-.7 2.7-9.7-2.9-19.8-12.6-22.5-1.6-.4-3.2-.7-4.9-.7-2.5 0-5 .5-7.3 1.5.5-2.5.8-5.1.8-7.7 0-20-16.2-36.3-36.2-36.3-4.6 0-9.1.9-13.4 2.6-10.6-13.4-27.9-19.6-44.7-16-9.3-32-42.8-50.3-74.7-41-30.4 8.9-48.7 39.7-42 70.6-15.3-6.7-33.2.3-39.9 15.7-2.8 6.4-3.3 13.6-1.4 20.4-6.4 1.6-10.3 8-8.8 14.4.3 1 .6 2.1 1.2 3l-66 16.4h394l-39.5-10z"/><path id="Form_104_Kopie" class="st5" d="M1092.1 235.8c1.2-2.2.4-4.9-1.7-6.1-.4-.2-.7-.3-1.1-.4 1.7-6.1-1.8-12.4-7.9-14.2-2.6-.7-5.3-.5-7.7.5 2.7-12.3-5-24.4-17.3-27.2-4.5-1-9.1-.6-13.4 1.1-6.7-8.4-17.6-12.3-28.1-10.1-5.9-20.1-26.9-31.7-47-25.8-19.1 5.6-30.7 25-26.5 44.5-9.6-4.2-20.9.1-25.1 9.8-1.1 2.4-1.6 5.1-1.6 7.7 0 1.8.2 3.5.7 5.2-4 1-6.5 5-5.5 9.1.2.6.4 1.3.7 1.9L869 242h248l-24.9-6.2z"/><path id="Form_104_Kopie_2" class="st6" d="M1592 317.3c.3-.5.4-1.1.4-1.7 0-1.6-1.1-2.9-2.6-3.3 1.3-4.6-1.5-9.4-6.1-10.7-1.9-.5-4-.4-5.8.4.3-1.2.4-2.4.4-3.7-.1-9.6-7.9-17.3-17.5-17.3-2.2 0-4.3.4-6.3 1.2-4.1-5.1-10.3-8.1-16.9-8.1-1.5 0-3 .2-4.5.5-4.5-15.3-20.6-24.1-35.9-19.6-12.2 3.6-20.6 14.8-20.7 27.5 0 2.1.2 4.1.7 6.1-7.3-3.3-15.8 0-19.1 7.3-1.4 3.1-1.6 6.6-.7 9.9-2.5.6-4.4 2.9-4.4 5.5 0 1 .3 1.9.7 2.8L1422 322h189l-19-4.7z"/><path class="st7" d="M1061.6 564.4h98.5v65.5h-98.5z"/><path class="st8" d="M1061.6 564.4h98.5v17.3h-98.5z"/><path class="st9" d="M1163.1 632.3c0 .4-.3.7-.7.7h-103.9c-.4 0-.7-.3-.7-.7v-4.9c0-.4.3-.7.7-.7h103.9c.4 0 .7.3.7.7v4.9z"/><path class="st10" d="M1122.6 632.3c0 .4-.3.7-.7.7H1099c-.4 0-.7-.3-.7-.7v-38c0-.4.3-.7.7-.7h22.9c.4 0 .7.3.7.7v38z"/><path class="st11" d="M1100.5 595.5h19.8V612h-19.8z"/><path class="st10" d="M1086.6 542.6h-15.9c-4.6 9.4-9.3 10.8-14 20.1h21.5c2.8-9.4 5.6-10.8 8.4-20.1z"/><path class="st8" d="M1102.5 542.6h-15.8c-2.9 9.4-5.6 10.8-8.5 20.1h21.5c1-9.4 1.9-10.8 2.8-20.1z"/><path class="st10" d="M1118.4 542.6h-15.9c-.9 9.4-1.9 10.8-2.8 20.1h21.5c-1-9.4-1.9-10.8-2.8-20.1z"/><path class="st8" d="M1134.3 542.6h-15.8c.9 9.4 1.9 10.8 2.8 20.1h21.5c-2.9-9.4-5.7-10.8-8.5-20.1z"/><path class="st10" d="M1150.1 542.6h-15.9c2.8 9.4 5.6 10.8 8.4 20.1h21.5c-4.6-9.4-9.3-10.8-14-20.1z"/><path class="st12" d="M1056.7 562.7c.1 5.9 4.9 10.6 10.8 10.6s10.7-4.8 10.8-10.6h-21.6z"/><path class="st13" d="M1078.2 562.7c.1 5.9 4.9 10.6 10.8 10.6s10.7-4.8 10.8-10.6h-21.6z"/><path class="st12" d="M1099.7 562.7c.1 5.9 4.9 10.6 10.8 10.6s10.7-4.8 10.8-10.6h-21.6z"/><path class="st13" d="M1121.2 562.7c.1 5.9 4.9 10.6 10.8 10.6s10.7-4.8 10.8-10.6h-21.6z"/><path class="st12" d="M1142.6 562.7c.1 5.9 4.9 10.6 10.8 10.6s10.7-4.8 10.8-10.6h-21.6z"/><path class="st9" d="M1070.3 541.3h79.4v1.3h-79.4z"/><path class="st14" d="M1153 540.1h-85.1l2.4 1.2h79.4z"/><path class="st15" d="M1067.9 537.8h85.1v2.3h-85.1z"/><path class="st16" d="M1068.6 537.8v-4.4c0-.2.1-.4.4-.4h6.3v4.7h.7V533h13.2v4.7h.7V533h13.2v4.7h.7V533h13.2v4.7h.7V533h13.2v4.7h.7V533h13.2v4.7h.7V533h6.3c.2 0 .4.1.4.4v4.4h.7v-4.4c0-.6-.5-1.1-1.1-1.1H1069c-.6 0-1.1.5-1.1 1.1v4.4h.7z"/><path class="st8" d="M1135.9 539.9c0 .4-.3.7-.7.7h-49.6c-.4 0-.7-.3-.7-.7v-19.3c0-.4.3-.7.7-.7h49.6c.4 0 .7.3.7.7v19.3z"/><path class="st17" d="M1086.3 521.4h48.2v17.8h-48.2z"/><path class="st18" d="M1065.6 579.8h27.3v28.7h-27.3z"/><path class="st19" d="M1092.9 608.4h-27.3l27.3-28.6z"/><path class="st20" d="M1065.6 608.4h27.3v.9h-27.3z"/><path class="st9" d="M1094.1 612.2c0 .4-.3.7-.7.7h-28.3c-.4 0-.7-.3-.7-.7V610c0-.4.3-.7.7-.7h28.3c.4 0 .7.3.7.7v2.2z"/><path class="st18" d="M1127.9 579.8h27.3v28.7h-27.3z"/><path class="st19" d="M1155.3 608.4h-27.4l27.4-28.6z"/><path class="st20" d="M1127.9 608.4h27.3v.9h-27.3z"/><path class="st9" d="M1156.5 612.2c0 .4-.3.7-.7.7h-28.3c-.4 0-.7-.3-.7-.7V610c0-.4.3-.7.7-.7h28.3c.4 0 .7.3.7.7v2.2z"/><path class="st18" d="M1101.3 596.5h18.2v14.6h-18.2z"/><path class="st19" d="M1119.5 611.1h-18.2l18.2-14.6z"/><circle class="st21" cx="1118.4" cy="618.1" r="1.6"/><path class="st21" d="M1123.8 628.8v-1.5c0-.4-.3-.6-.7-.6h-25.3c-.4 0-.7.3-.7.6v1.5h26.7z"/><path class="st22" d="M1125.5 630.9v-1.5c0-.4-.4-.6-.8-.6h-28.6c-.4 0-.8.3-.8.6v1.5h30.2z"/><path class="st23" d="M1127.1 633v-1.5c0-.4-.4-.6-.9-.6h-31.6c-.5 0-.9.3-.9.6v1.5h33.4z"/><path class="st24" d="M1657.5 586.9h150.9v45.9h-150.9z"/><path class="st25" d="M1657.5 288.4h150.9v300.5h-150.9z"/><path class="st26" d="M1718.8 601.8h3.3v24.3h-3.3zm26.2 0h3.3v24.3h-3.3z"/><path class="st27" d="M1722.1 601.8h22.9v24.3h-22.9z"/><path class="st26" d="M1718.8 600.1h29.5v3.4h-29.5z"/><path class="st28" d="M1715.6 626h36.2v1.6h-36.2z"/><path class="st26" d="M1713.6 627.7h40v1.6h-40z"/><path class="st29" d="M1711.4 629.4h44.3v1.6h-44.3z"/><path class="st30" d="M1709.3 631.1h48.8v1.6h-48.8z"/><path class="st29" d="M1700.6 600.1h5.5v32.7h-5.5z"/><path class="st26" d="M1702.9 631.4c0 .3-.3.5-.7.5-.4 0-.7-.3-.7-.5v-29.7c0-.3.3-.5.7-.5.4 0 .7.3.7.5v29.7zm2.2 0c0 .3-.3.5-.7.5-.4 0-.7-.3-.7-.5v-29.7c0-.3.3-.5.7-.5.4 0 .7.3.7.5v29.7z"/><path class="st29" d="M1761.2 600.1h5.5v32.7h-5.5z"/><path class="st26" d="M1763.6 631.4c0 .3-.3.5-.7.5-.4 0-.7-.3-.7-.5v-29.7c0-.3.3-.5.7-.5.4 0 .7.3.7.5v29.7zm2.3 0c0 .3-.3.5-.7.5-.4 0-.7-.3-.7-.5v-29.7c0-.3.3-.5.7-.5.4 0 .7.3.7.5v29.7z"/><path class="st31" d="M1696.6 598h73.7v2h-73.7z"/><path class="st29" d="M1733.8 598h38.7v-3.2H1756c0-5.1-10.1-9.2-22.6-9.2s-22.6 4.2-22.6 9.2h-16.5v3.2h39.5"/><path class="st26" d="M1733.6 588.8c14.9 0 18.6 6.1 18.6 6.1H1715c-.1 0 3.7-6.1 18.6-6.1z"/><path class="st32" d="M1664.7 569.5h7.4v11.4h-7.4zm9.2 0h7.4v11.4h-7.4zm9.3 0h7.4v11.4h-7.4zm9.2 0h7.4v11.4h-7.4zm9.2 0h7.4v11.4h-7.4zm9.3 0h7.4v11.4h-7.4zm9.2 0h7.4v11.4h-7.4zm9.3 0h7.4v11.4h-7.4zm9.6 0h7.4v11.4h-7.4zm9.3 0h7.4v11.4h-7.4z"/><path class="st29" d="M1657.5 287.1h150.9v3.3h-150.9z"/><path class="st32" d="M1664.7 555.7h7.4v11.4h-7.4zm9.2 0h7.4v11.4h-7.4zm9.3 0h7.4v11.4h-7.4zm9.2 0h7.4v11.4h-7.4zm9.2 0h7.4v11.4h-7.4zm9.3 0h7.4v11.4h-7.4zm9.2 0h7.4v11.4h-7.4zm9.3 0h7.4v11.4h-7.4zm9.6 0h7.4v11.4h-7.4zm9.3 0h7.4v11.4h-7.4zm-83.6-13.8h7.4v11.4h-7.4zm9.2 0h7.4v11.4h-7.4zm9.3 0h7.4v11.4h-7.4zm9.2 0h7.4v11.4h-7.4zm9.2 0h7.4v11.4h-7.4zm9.3 0h7.4v11.4h-7.4zm9.2 0h7.4v11.4h-7.4zm9.3 0h7.4v11.4h-7.4zm9.6 0h7.4v11.4h-7.4zm9.3 0h7.4v11.4h-7.4zm-83.6-13.8h7.4v11.4h-7.4zm9.2 0h7.4v11.4h-7.4zm9.3 0h7.4v11.4h-7.4zm9.2 0h7.4v11.4h-7.4zm9.2 0h7.4v11.4h-7.4zm9.3 0h7.4v11.4h-7.4zm9.2 0h7.4v11.4h-7.4zm9.3 0h7.4v11.4h-7.4zm9.6 0h7.4v11.4h-7.4zm9.3 0h7.4v11.4h-7.4zm-83.6-13.5h7.4V526h-7.4zm9.2 0h7.4V526h-7.4zm9.3 0h7.4V526h-7.4zm9.2 0h7.4V526h-7.4zm9.2 0h7.4V526h-7.4zm9.3 0h7.4V526h-7.4zm9.2 0h7.4V526h-7.4zm9.3 0h7.4V526h-7.4zm9.6 0h7.4V526h-7.4zm9.3 0h7.4V526h-7.4zm-83.8-13.4h7.4v11.4h-7.4zm9.3 0h7.4v11.4h-7.4zm9.2 0h7.4v11.4h-7.4zm9.2 0h7.4v11.4h-7.4zm9.3 0h7.4v11.4h-7.4zm9.2 0h7.4v11.4h-7.4zm9.2 0h7.4v11.4h-7.4zm9.3 0h7.4v11.4h-7.4zm9.6 0h7.4v11.4h-7.4zm9.3 0h7.4v11.4h-7.4zm-83.6-13.9h7.4v11.4h-7.4zm9.3 0h7.4v11.4h-7.4zm9.2 0h7.4v11.4h-7.4zm9.2 0h7.4v11.4h-7.4zm9.3 0h7.4v11.4h-7.4zm9.2 0h7.4v11.4h-7.4zm9.2 0h7.4v11.4h-7.4zm9.3 0h7.4v11.4h-7.4zm9.6 0h7.4v11.4h-7.4zm9.3 0h7.4v11.4h-7.4zm-83.6-13.7h7.4V485h-7.4zm9.3 0h7.4V485h-7.4zm9.2 0h7.4V485h-7.4zm9.2 0h7.4V485h-7.4zm9.3 0h7.4V485h-7.4zm9.2 0h7.4V485h-7.4zm9.2 0h7.4V485h-7.4zm9.3 0h7.4V485h-7.4zm9.6 0h7.4V485h-7.4zm9.3 0h7.4V485h-7.4zm-83.6-13.8h7.4v11.4h-7.4zm9.3 0h7.4v11.4h-7.4zm9.2 0h7.4v11.4h-7.4zm9.2 0h7.4v11.4h-7.4zm9.3 0h7.4v11.4h-7.4zm9.2 0h7.4v11.4h-7.4zm9.2 0h7.4v11.4h-7.4zm9.3 0h7.4v11.4h-7.4zm9.6 0h7.4v11.4h-7.4zm9.3 0h7.4v11.4h-7.4zm-83.6-13.5h7.4v11.4h-7.4zm9.3 0h7.4v11.4h-7.4zm9.2 0h7.4v11.4h-7.4zm9.2 0h7.4v11.4h-7.4zm9.3 0h7.4v11.4h-7.4zm9.2 0h7.4v11.4h-7.4zm9.2 0h7.4v11.4h-7.4zm9.3 0h7.4v11.4h-7.4zm9.6 0h7.4v11.4h-7.4zm9.3 0h7.4v11.4h-7.4zm-83.4-13.2h7.4v11.4h-7.4zm9.2 0h7.4v11.4h-7.4zm9.3 0h7.4v11.4h-7.4zm9.2 0h7.4v11.4h-7.4zm9.3 0h7.4v11.4h-7.4zm9.2 0h7.4v11.4h-7.4zm9.2 0h7.4v11.4h-7.4zm9.3 0h7.4v11.4h-7.4zm9.6 0h7.4v11.4h-7.4zm9.3 0h7.4v11.4h-7.4zm-83.8-13.4h7.4v11.4h-7.4zm9.3 0h7.4v11.4h-7.4zm9.2 0h7.4v11.4h-7.4zm9.2 0h7.4v11.4h-7.4zm9.3 0h7.4v11.4h-7.4zm9.2 0h7.4v11.4h-7.4zm9.3 0h7.4v11.4h-7.4zm9.2 0h7.4v11.4h-7.4zm9.6 0h7.4v11.4h-7.4zm9.3 0h7.4v11.4h-7.4zm-83.6-13.8h7.4v11.4h-7.4zm9.3 0h7.4v11.4h-7.4zm9.2 0h7.4v11.4h-7.4zm9.2 0h7.4v11.4h-7.4zm9.3 0h7.4v11.4h-7.4zm9.2 0h7.4v11.4h-7.4zm9.3 0h7.4v11.4h-7.4zm9.2 0h7.4v11.4h-7.4zm9.6 0h7.4v11.4h-7.4zm9.3 0h7.4v11.4h-7.4zm-83.6-13.8h7.4v11.4h-7.4zm9.3 0h7.4v11.4h-7.4zm9.2 0h7.4v11.4h-7.4zm9.2 0h7.4v11.4h-7.4zm9.3 0h7.4v11.4h-7.4zm9.2 0h7.4v11.4h-7.4zm9.3 0h7.4v11.4h-7.4zm9.2 0h7.4v11.4h-7.4zm9.6 0h7.4v11.4h-7.4zm9.3 0h7.4v11.4h-7.4zm-83.6-13.8h7.4v11.4h-7.4zm9.3 0h7.4v11.4h-7.4zm9.2 0h7.4v11.4h-7.4zm9.2 0h7.4v11.4h-7.4zm9.3 0h7.4v11.4h-7.4zm9.2 0h7.4v11.4h-7.4zm9.3 0h7.4v11.4h-7.4zm9.2 0h7.4v11.4h-7.4zm9.6 0h7.4v11.4h-7.4zm9.3 0h7.4v11.4h-7.4zm-83.6-13.5h7.4v11.4h-7.4zm9.3 0h7.4v11.4h-7.4zm9.2 0h7.4v11.4h-7.4zm9.2 0h7.4v11.4h-7.4zm9.3 0h7.4v11.4h-7.4zm9.2 0h7.4v11.4h-7.4zm9.3 0h7.4v11.4h-7.4zm9.2 0h7.4v11.4h-7.4zm9.6 0h7.4v11.4h-7.4zm9.3 0h7.4v11.4h-7.4zm-83.6-13.3h7.4v11.4h-7.4zm9.3 0h7.4v11.4h-7.4zm9.2 0h7.4v11.4h-7.4zm9.2 0h7.4v11.4h-7.4zm9.3 0h7.4v11.4h-7.4zm9.2 0h7.4v11.4h-7.4zm9.2 0h7.4v11.4h-7.4zm9.3 0h7.4v11.4h-7.4zm9.6 0h7.4v11.4h-7.4zm9.3 0h7.4v11.4h-7.4zm-83.6-13.8h7.4v11.4h-7.4zm9.3 0h7.4v11.4h-7.4zm9.2 0h7.4v11.4h-7.4zm9.2 0h7.4v11.4h-7.4zm9.3 0h7.4v11.4h-7.4zm9.2 0h7.4v11.4h-7.4zm9.2 0h7.4v11.4h-7.4zm9.3 0h7.4v11.4h-7.4zm9.6 0h7.4v11.4h-7.4zm9.3 0h7.4v11.4h-7.4zm-83.6-13.8h7.4v11.4h-7.4zm9.3 0h7.4v11.4h-7.4zm9.2 0h7.4v11.4h-7.4zm9.2 0h7.4v11.4h-7.4zm9.3 0h7.4v11.4h-7.4zm9.2 0h7.4v11.4h-7.4zm9.2 0h7.4v11.4h-7.4zm9.3 0h7.4v11.4h-7.4zm9.6 0h7.4v11.4h-7.4zm9.3 0h7.4v11.4h-7.4zm-83.6-13.5h7.4v11.4h-7.4zm9.3 0h7.4v11.4h-7.4zm9.2 0h7.4v11.4h-7.4zm9.2 0h7.4v11.4h-7.4zm9.3 0h7.4v11.4h-7.4zm9.2 0h7.4v11.4h-7.4zm9.2 0h7.4v11.4h-7.4zm9.3 0h7.4v11.4h-7.4zm9.6 0h7.4v11.4h-7.4zm9.3 0h7.4v11.4h-7.4zm-83.6-13.4h7.4v11.4h-7.4zm9.3 0h7.4v11.4h-7.4zm9.2 0h7.4v11.4h-7.4zm9.2 0h7.4v11.4h-7.4zm9.3 0h7.4v11.4h-7.4zm9.2 0h7.4v11.4h-7.4zm9.2 0h7.4v11.4h-7.4zm9.3 0h7.4v11.4h-7.4zm9.6 0h7.4v11.4h-7.4zm9.3 0h7.4v11.4h-7.4zm9.8 272.4h7.4v11.4h-7.4zm9.2 0h7.4v11.4h-7.4zm9.2 0h7.4v11.4h-7.4zm9.3 0h7.4v11.4h-7.4zm9.2 0h7.4v11.4h-7.4zm-36.9-13.9h7.4v11.4h-7.4zm9.2 0h7.4v11.4h-7.4zm9.2 0h7.4v11.4h-7.4zm9.3 0h7.4v11.4h-7.4zm9.2 0h7.4v11.4h-7.4zm-36.9-13.7h7.4v11.4h-7.4zm9.2 0h7.4v11.4h-7.4zm9.2 0h7.4v11.4h-7.4zm9.3 0h7.4v11.4h-7.4zm9.2 0h7.4v11.4h-7.4zm-36.9-13.9h7.4v11.4h-7.4zm9.2 0h7.4v11.4h-7.4zm9.2 0h7.4v11.4h-7.4zm9.3 0h7.4v11.4h-7.4zm9.2 0h7.4v11.4h-7.4zm-36.9-13.5h7.4v11.4h-7.4zm9.2 0h7.4v11.4h-7.4zm9.2 0h7.4v11.4h-7.4zm9.3 0h7.4v11.4h-7.4zm9.2 0h7.4v11.4h-7.4zm-37.1-13.4h7.4v11.4h-7.4zm9.2 0h7.4v11.4h-7.4zm9.3 0h7.4v11.4h-7.4zm9.2 0h7.4v11.4h-7.4zm9.2 0h7.4v11.4h-7.4zm-36.9-13.8h7.4v11.4h-7.4zm9.2 0h7.4v11.4h-7.4zm9.3 0h7.4v11.4h-7.4zm9.2 0h7.4v11.4h-7.4zm9.2 0h7.4v11.4h-7.4zm-36.9-13.8h7.4v11.4h-7.4zm9.2 0h7.4v11.4h-7.4zm9.3 0h7.4v11.4h-7.4zm9.2 0h7.4v11.4h-7.4zm9.2 0h7.4v11.4h-7.4zm-36.9-13.8h7.4V471h-7.4zm9.2 0h7.4V471h-7.4zm9.3 0h7.4V471h-7.4zm9.2 0h7.4V471h-7.4zm9.2 0h7.4V471h-7.4zm-36.9-13.5h7.4v11.4h-7.4zm9.2 0h7.4v11.4h-7.4zm9.3 0h7.4v11.4h-7.4zm9.2 0h7.4v11.4h-7.4zm9.2 0h7.4v11.4h-7.4zm-36.7-13.2h7.4v11.4h-7.4zm9.2 0h7.4v11.4h-7.4zm9.2 0h7.4v11.4h-7.4zm9.3 0h7.4v11.4h-7.4zm9.2 0h7.4v11.4h-7.4zm-37.1-13.3h7.4V431h-7.4zm9.2 0h7.4V431h-7.4zm9.3 0h7.4V431h-7.4zm9.2 0h7.4V431h-7.4zm9.3 0h7.4V431h-7.4zm-37-13.9h7.4v11.4h-7.4zm9.2 0h7.4v11.4h-7.4zm9.3 0h7.4v11.4h-7.4zm9.2 0h7.4v11.4h-7.4zm9.3 0h7.4v11.4h-7.4zm-37-13.7h7.4v11.4h-7.4zm9.2 0h7.4v11.4h-7.4zm9.3 0h7.4v11.4h-7.4zm9.2 0h7.4v11.4h-7.4zm9.3 0h7.4v11.4h-7.4zm-37-13.9h7.4v11.4h-7.4zm9.2 0h7.4v11.4h-7.4zm9.3 0h7.4v11.4h-7.4zm9.2 0h7.4v11.4h-7.4zm9.3 0h7.4v11.4h-7.4zm-37-13.5h7.4V376h-7.4zm9.2 0h7.4V376h-7.4zm9.3 0h7.4V376h-7.4zm9.2 0h7.4V376h-7.4zm9.3 0h7.4V376h-7.4zm-37-13.3h7.4v11.4h-7.4zm9.2 0h7.4v11.4h-7.4zm9.3 0h7.4v11.4h-7.4zm9.2 0h7.4v11.4h-7.4zm9.2 0h7.4v11.4h-7.4zm-36.9-13.7h7.4V349h-7.4zm9.2 0h7.4V349h-7.4zm9.3 0h7.4V349h-7.4zm9.2 0h7.4V349h-7.4zm9.2 0h7.4V349h-7.4zm-36.9-13.8h7.4v11.4h-7.4zm9.2 0h7.4v11.4h-7.4zm9.3 0h7.4v11.4h-7.4zm9.2 0h7.4v11.4h-7.4zm9.2 0h7.4v11.4h-7.4zm-36.9-13.5h7.4v11.4h-7.4zm9.2 0h7.4v11.4h-7.4zm9.3 0h7.4v11.4h-7.4zm9.2 0h7.4v11.4h-7.4zm9.2 0h7.4v11.4h-7.4zm-36.9-13.5h7.4v11.4h-7.4zm9.2 0h7.4v11.4h-7.4zm9.3 0h7.4v11.4h-7.4zm9.2 0h7.4v11.4h-7.4zm9.2 0h7.4v11.4h-7.4z"/><path class="st33" d="M1724.7 605.3h17.1V626h-17.1z"/><path class="st34" d="M1724.7 605.3h.7V626h-.7zm16.8 0h.7V626h-.7z"/><path class="st34" d="M1724.7 605.3h17v.7h-17z"/><path class="st34" d="M1733 605.7h.8v20.4h-.8z"/><path class="st35" d="M1631.6 603.5h2.3V633h-2.3z"/><circle class="st36" cx="1632.7" cy="600.5" r="10"/><path class="st35" d="M1831.7 603.5h2.3V633h-2.3z"/><circle class="st36" cx="1832.8" cy="600.5" r="10"/><path class="st34" d="M1321.5 525.2h11.3v1.1h-11.3zm.4 3.4h11.3v1.1h-11.3zm.6 3.6h11.3v1.1h-11.3zm0 3.5h11.3v1.1h-11.3zm.6 3.4h11.3v1.1h-11.3zm.3 3.5h11.3v1.1h-11.3zm.7 3.6h11.3v1.1h-11.3zm0 3.5h11.3v1.1h-11.3zm.3 4h11.3v1.1h-11.3zm.4 3.3h11.3v1.1h-11.3zm-3.4 24.2h11.3v1.1h-11.3zm.3 3.4h11.3v1.1h-11.3zm.6 3.6h11.3v1.1h-11.3zm0 3.5h11.3v1.1h-11.3zm.6 3.4h11.3v1.1h-11.3zm.4 3.4h11.3v1.1h-11.3zm.6 3.7h11.3v1.1h-11.3zm0 3.5h11.3v1.1h-11.3zm.4 4h11.3v1.1h-11.3zm.3 3.3h11.3v1.1h-11.3z"/><path transform="rotate(-37.091 1326.85 513.536)" class="st34" d="M1326.2 504.1h1.3V523h-1.3z"/><path transform="rotate(-37.091 1326.827 569.897)" class="st34" d="M1326.2 560.5h1.3v18.9h-1.3z"/><path class="st37" d="M1331.9 486.2h117.6v146.7h-117.6z"/><path class="st38" d="M1331.9 608.6h117.6v24.3h-117.6z"/><path class="st39" d="M1331.9 490.1h117.6v84.4h-117.6z"/><path class="st40" d="M1331.9 495.8h9.7v5h-9.7zm0 5.7h4.9v5h-4.9zm0 5.7h9.7v5h-9.7zm0 5.7h4.9v5h-4.9zm0-22.8h4.9v5h-4.9zm0 28.5h9.7v5h-9.7zm0 5.7h4.9v5h-4.9zm0 5.5h9.7v5h-9.7zm0 5.7h4.9v5h-4.9zm0 5.5h9.7v5h-9.7zm0 5.7h4.9v5h-4.9zm0 5.7h9.7v5h-9.7zm0 5.7h4.9v5h-4.9zm0 5.7h9.7v5h-9.7zm0 5.7h4.9v5h-4.9zm107.9-73.7h9.7v5h-9.7zm4.8 5.7h4.9v5h-4.9zm-4.8 5.7h9.7v5h-9.7zm4.8 5.7h4.9v5h-4.9zm0-22.8h4.9v5h-4.9zm-4.8 28.5h9.7v5h-9.7zm4.8 5.7h4.9v5h-4.9zm-4.8 5.5h9.7v5h-9.7zm4.8 5.7h4.9v5h-4.9zm-4.8 5.5h9.7v5h-9.7zm4.8 5.7h4.9v5h-4.9zm-4.8 5.7h9.7v5h-9.7zm4.8 5.7h4.9v5h-4.9zm-4.8 5.7h9.7v5h-9.7zm4.8 5.7h4.9v5h-4.9z"/><path class="st34" d="M1318.3 504h13.6v2.5h-13.6zm1.2 15.8h12.4v2.5h-12.4zm-1.3 40.6h13.7v2.5h-13.7zm1.3 15.8h12.4v2.5h-12.4z"/><path class="st34" d="M1319.5 506h1.6v16.3h-1.6zm0 56.4h1.6v16.3h-1.6z"/><path transform="rotate(-5.645 1323.132 540.886) scale(1.00005)" class="st34" d="M1322.4 521h1.3v39.7h-1.3z"/><path transform="rotate(-5.645 1323.056 598.491) scale(1.00005)" class="st34" d="M1322.3 578.6h1.3v39.7h-1.3z"/><path class="st34" d="M1323 617.2h8.9v1.8h-8.9z"/><path class="st39" d="M1344.7 463.4h65.1v22.8h-65.1z"/><path class="st40" d="M1377.3 452.3h27.4l9.9 11.8H1340l9.9-11.8z"/><path class="st39" d="M1343.2 588.9c0 1.6-1.3 2.9-2.9 2.9s-2.9-1.3-2.9-2.9v-7.3h5.7v7.3z"/><path class="st41" d="M1348.9 588.9c0 1.6-1.3 2.9-2.9 2.9s-2.9-1.3-2.9-2.9v-7.3h5.7v7.3z"/><path class="st39" d="M1354.6 588.9c0 1.6-1.3 2.9-2.9 2.9s-2.9-1.3-2.9-2.9v-7.3h5.7v7.3z"/><path class="st41" d="M1360.4 588.9c0 1.6-1.3 2.9-2.9 2.9s-2.9-1.3-2.9-2.9v-7.3h5.7v7.3z"/><path class="st39" d="M1366.1 588.9c0 1.6-1.3 2.9-2.9 2.9-1.6 0-2.9-1.3-2.9-2.9v-7.3h5.7v7.3z"/><path class="st41" d="M1371.8 588.9c0 1.6-1.3 2.9-2.9 2.9s-2.9-1.3-2.9-2.9v-7.3h5.7v7.3z"/><path class="st39" d="M1377.6 588.9c0 1.6-1.3 2.9-2.9 2.9s-2.9-1.3-2.9-2.9v-7.3h5.7v7.3z"/><path class="st41" d="M1383.3 588.9c0 1.6-1.3 2.9-2.9 2.9s-2.9-1.3-2.9-2.9v-7.3h5.7v7.3z"/><path class="st39" d="M1389 588.9c0 1.6-1.3 2.9-2.9 2.9s-2.9-1.3-2.9-2.9v-7.3h5.7v7.3z"/><path class="st42" d="M1397.5 628.6h37.7v4.2h-37.7z"/><path class="st43" d="M1395.8 585.7h5.9v38.7h-5.9zm34.8 0h5.9v38.7h-5.9z"/><path class="st44" d="M1390.7 618.2h6.8v14.6h-6.8zm44.5 0h6.8v14.6h-6.8z"/><path class="st42" d="M1401.7 585.7h28.9v38.7h-28.9z"/><path class="st44" d="M1394.1 581.7h44.5v5h-44.5z"/><path class="st40" d="M1416.5 581.7h22.1l-22.3-11.2-22.2 11.2h22.1"/><path class="st45" d="M1397.5 624.4h37.7v4.2h-37.7z"/><path class="st46" d="M1423.8 596.4c0-2.4-1.9-4.4-4.2-4.4h-7.3c-2.3 0-4.2 2-4.2 4.4v27.3h15.6v-27.3z"/><path class="st47" d="M1409.7 608h5.6v14.4h-5.6zm0-7h5.6v4.9h-5.6zm6.9 7h5.6v14.4h-5.6zm0-7h5.6v4.9h-5.6zm-6.9-2.1v-.8c0-2.4 1.5-4.4 3.4-4.4h5.9c1.9 0 3.4 2 3.4 4.4v1.1h-12.6v-.3z"/><path class="st48" d="M1401.7 586.7l16.3 37.7h12.6v-37.7z"/><path class="st49" d="M1348.7 497.6h15.3v28.5h-15.3z"/><path class="st50" d="M1349.6 505.9h13.5v1h-13.5zm0 10.3h13.5v1h-13.5z"/><path class="st50" d="M1355.8 498.5h1v26.6h-1z"/><path class="st49" d="M1372.1 497.6h15.3v28.5h-15.3z"/><path class="st50" d="M1373 506h13.5v1H1373zm0 10.2h13.5v1H1373z"/><path class="st50" d="M1379.2 498.6h1v26.6h-1z"/><path class="st49" d="M1395.6 497.6h15.3v28.5h-15.3z"/><path class="st50" d="M1396.5 506h13.5v1h-13.5zm0 10.2h13.5v1h-13.5z"/><path class="st50" d="M1402.8 498.6h1v26.6h-1z"/><path class="st49" d="M1418.9 497.6h15.3v28.5h-15.3z"/><path class="st50" d="M1419.8 506h13.5v1h-13.5zm0 10.2h13.5v1h-13.5z"/><path class="st50" d="M1426 498.6h1v26.6h-1z"/><path class="st49" d="M1348.7 534.7h15.3v28.5h-15.3z"/><path class="st50" d="M1349.6 543h13.5v1h-13.5zm0 10.2h13.5v1h-13.5z"/><path class="st50" d="M1355.8 535.6h1v26.6h-1z"/><path class="st49" d="M1372.1 534.7h15.3v28.5h-15.3z"/><path class="st50" d="M1373 543h13.5v1H1373zm0 10.2h13.5v1H1373z"/><path class="st50" d="M1379.2 535.6h1v26.6h-1z"/><path class="st49" d="M1395.6 534.7h15.3v28.5h-15.3z"/><path class="st50" d="M1396.5 543h13.5v1h-13.5zm0 10.2h13.5v1h-13.5z"/><path class="st50" d="M1402.8 535.6h1v26.6h-1z"/><path class="st49" d="M1418.9 534.7h15.3v28.5h-15.3z"/><path class="st50" d="M1419.8 543h13.5v1h-13.5zm0 10.2h13.5v1h-13.5z"/><path class="st50" d="M1426 535.6h1v26.6h-1z"/><path class="st33" d="M1355.1 468.6h14.6v10.9h-14.6z"/><path class="st51" d="M1370.2 480h-15.7v-12h15.7v12zm-14.5-1.1h13.5v-9.8h-13.5v9.8z"/><path class="st51" d="M1361.9 468.6h1v10.9h-1z"/><path class="st37" d="M1353.7 480h17.3v1.6h-17.3z"/><path class="st33" d="M1384.9 468.6h14.6v10.9h-14.6z"/><path class="st51" d="M1400 480h-15.7v-12h15.7v12zm-14.6-1.1h13.5v-9.8h-13.5v9.8z"/><path class="st51" d="M1391.6 468.6h1v10.9h-1z"/><path class="st37" d="M1383.5 480h17.3v1.6h-17.3z"/><path class="st33" d="M1345.3 594.6h13.7v22.9h-13.7z"/><path class="st51" d="M1359.6 618.2h-15V594h15v24.2zm-13.7-1.3h12.3v-21.6h-12.3v21.6z"/><path class="st51" d="M1345.3 610.4h13.7v1.2h-13.7z"/><path class="st52" d="M1345.8 611.6h12.5v5.3h-12.5z"/><path class="st33" d="M1367.7 594.6h13.7v22.9h-13.7z"/><path class="st51" d="M1382.1 618.2h-15V594h15v24.2zm-13.7-1.3h12.3v-21.6h-12.3v21.6z"/><path class="st51" d="M1367.7 610.4h13.7v1.2h-13.7z"/><path class="st52" d="M1368.3 611.6h12.5v5.3h-12.5z"/><path class="st39" d="M1462.4 618.5h8.3v12.9h-8.3z"/><path class="st40" d="M1461.2 632.2c0-.4.4-.8.8-.8h8.8c.4 0 .8.4.8.8m-10.6 0h10.9v.8H1461zm-1-9.5h2.4v3.3h-2.4zm10.7 0h2.4v3.3h-2.4z"/><path class="st39" d="M1461.2 617h10.5v1.5h-10.5zm1.8 0v-1.2c0-1.1.9-1.9 1.9-1.9h3.3c1.1 0 1.9.9 1.9 1.9v1.2m-4.3-4h1.3v.9h-1.3z"/></svg>