<?xml version="1.0" encoding="utf-8"?>
<!-- Generator: Adobe Illustrator 19.2.1, SVG Export Plug-In . SVG Version: 6.00 Build 0)  -->
<svg version="1.1" id="Ebene_1" xmlns="http://www.w3.org/2000/svg" xmlns:xlink="http://www.w3.org/1999/xlink" x="0px" y="0px"
	 viewBox="0 0 256 256" style="enable-background:new 0 0 256 256;" xml:space="preserve">
<style type="text/css">
	.st0{fill:#5599FF;}
	.st1{fill:#46366C;}
</style>
<rect id="Rechteck_1_Kopie_3" class="st0" width="256" height="256"/>
<path id="Abgerundetes_Rechteck_1" class="st1" d="M41.8,215.2c0.9,0.8,2.1,1.3,3.3,1.3c2,0,3.8-1,5.4-3v0.8c0,0.5,0.3,1,0.7,1.3
	c0.5,0.4,1.1,0.6,1.8,0.5c0.7,0,1.4-0.1,2-0.5c0.5-0.2,0.7-0.7,0.8-1.2v-8.5c0.1-1.9-0.7-3.7-2-5c-1.3-1.3-3.4-2-6.1-2
	c-1.4,0-2.8,0.3-4.1,0.8c-1.3,0.6-2,1.2-2,2c0,0.7,0.2,1.3,0.5,1.9c0.3,0.5,0.8,0.8,1.4,0.8c0.5-0.1,0.9-0.4,1.4-0.7
	c0.9-0.5,1.8-0.7,2.8-0.7c0.8-0.1,1.5,0.2,2,0.8c0.4,0.6,0.7,1.2,0.6,2v0.4h-1.3c-2.7,0-4.8,0.4-6.2,1.2c-1.4,0.8-2.2,2.1-2.2,4
	C40.5,213.1,41,214.4,41.8,215.2z M46.7,209.6c0.4-0.3,0.9-0.5,1.4-0.5c0.6-0.1,1.3-0.1,2-0.1h0.1v0.1c0,0.8-0.3,1.6-0.9,2.1
	c-0.4,0.5-1.1,0.9-1.8,0.9c-0.9,0-1.4-0.5-1.4-1.4C46.1,210.3,46.3,209.9,46.7,209.6L46.7,209.6z M59.8,214.4
	c1.3,1.4,3.4,2.1,6.1,2.1c1.5,0,3-0.3,4.4-0.9c1.2-0.6,1.8-1.4,1.8-2.2c0-0.7-0.2-1.3-0.7-1.8c-0.4-0.5-1-0.9-1.7-0.9
	c-0.5,0.1-0.9,0.2-1.3,0.5c-0.6,0.3-1.3,0.5-2.1,0.5c-2,0-3-0.9-3-2.7v-2.4c0-1.8,1-2.7,3-2.7c0.7,0,1.5,0.1,2.1,0.4
	c0.4,0.2,0.9,0.3,1.3,0.4c0.6,0,1.2-0.4,1.5-0.9c0.4-0.5,0.6-1.2,0.6-1.8c0-0.8-0.6-1.5-1.7-2.1c-1.4-0.6-2.8-0.9-4.3-0.9
	c-2.7,0-4.7,0.7-6,2.1c-1.3,1.4-2,3.2-2,5.5v2.4C57.8,211.2,58.5,213,59.8,214.4z M75,214.4c1.3,1.4,3.4,2.1,6.1,2.1
	c1.5,0,3-0.3,4.4-0.9c1.2-0.6,1.8-1.4,1.8-2.2c0-0.7-0.2-1.3-0.7-1.8c-0.4-0.5-1-0.9-1.7-0.9c-0.5,0.1-0.9,0.2-1.3,0.5
	c-0.6,0.3-1.3,0.5-2.1,0.5c-2,0-3-0.9-3-2.7v-2.4c0-1.8,1-2.7,3-2.7c0.7,0,1.5,0.1,2.1,0.4c0.4,0.2,0.9,0.3,1.3,0.4
	c0.6,0,1.2-0.4,1.5-0.9c0.4-0.5,0.6-1.2,0.6-1.8c0-0.8-0.6-1.5-1.7-2.1c-1.4-0.6-2.8-0.9-4.3-0.9c-2.7,0-4.7,0.7-6,2.1
	c-1.3,1.4-2,3.2-2,5.5v2.4C73,211.2,73.7,213,75,214.4L75,214.4z M90.7,214.4c1.7,1.4,3.9,2.1,6.5,2.1c1.6,0.1,3.3-0.3,4.7-1.1
	c1.3-0.7,1.9-1.4,1.9-2.2c0-0.6-0.2-1.1-0.6-1.6c-0.3-0.5-0.9-0.8-1.5-0.8c-0.7,0.1-1.3,0.3-1.8,0.7c-0.8,0.4-1.7,0.7-2.6,0.7
	c-1,0-1.9-0.2-2.7-0.8c-0.7-0.5-1-1.3-1-2.2V209h6.9c0.4,0,0.9,0,1.3-0.1c0.4-0.1,0.7-0.2,1.1-0.4c0.4-0.2,0.7-0.6,0.9-1
	c0.2-0.6,0.3-1.2,0.3-1.9c0-1.9-0.8-3.7-2.3-4.9c-1.5-1.3-3.5-2-5.4-1.9c-2.1,0-4.2,0.7-5.8,2.2c-1.5,1.3-2.4,3.2-2.4,5.2v2.6
	C88.1,211,89,213,90.7,214.4z M93.7,205.1c0-0.6,0.3-1.1,0.8-1.4c0.5-0.4,1.2-0.5,1.8-0.5c0.7,0,1.3,0.2,1.8,0.5
	c0.5,0.3,0.8,0.8,0.8,1.4c0.1,0.4-0.2,0.7-0.6,0.8c-0.1,0-0.1,0-0.2,0h-4.4L93.7,205.1L93.7,205.1z M107.2,215.5
	c1.5,0.7,3.1,1,4.8,1c2.2,0,3.9-0.5,5.1-1.5c1.2-1,1.9-2.6,1.8-4.1c0-1-0.3-2-0.9-2.8c-0.5-0.7-1.3-1.3-2.1-1.6
	c-0.8-0.3-1.6-0.6-2.5-0.8c-0.7-0.2-1.4-0.4-2.1-0.6c-0.6-0.2-0.9-0.5-0.9-0.8c0-0.3,0.2-0.6,0.5-0.8c0.5-0.2,1-0.4,1.5-0.3
	c0.8,0,1.6,0.2,2.4,0.4c0.5,0.2,1.1,0.4,1.6,0.4c0.6,0,1.2-0.4,1.4-0.9c0.3-0.5,0.5-1.1,0.6-1.7c0-0.7-0.6-1.4-1.8-1.8
	c-1.4-0.5-2.8-0.8-4.2-0.7c-2.3,0-4,0.5-5.1,1.6c-1.1,1.1-1.6,2.5-1.6,4c0,1,0.3,1.9,0.9,2.7c0.6,0.7,1.3,1.2,2.1,1.5
	c0.8,0.3,1.6,0.5,2.5,0.7c0.7,0.1,1.4,0.4,2.1,0.7c0.6,0.3,0.9,0.6,0.9,1c0,0.8-0.7,1.1-2.2,1.1c-0.8,0-1.5-0.1-2.2-0.4
	c-0.5-0.2-1.1-0.4-1.6-0.7c-0.3-0.2-0.7-0.3-1.1-0.4c-0.5,0-1,0.4-1.3,0.8c-0.3,0.5-0.5,1-0.5,1.6
	C105.2,214.1,105.9,214.8,107.2,215.5L107.2,215.5z M122.1,215.5c1.5,0.7,3.1,1,4.8,1c2.2,0,3.9-0.5,5.1-1.5c1.2-1,1.9-2.6,1.8-4.1
	c0-1-0.3-2-0.9-2.8c-0.5-0.7-1.3-1.3-2.1-1.6c-0.8-0.3-1.6-0.6-2.5-0.8c-0.7-0.2-1.4-0.4-2.1-0.6c-0.6-0.2-0.9-0.5-0.9-0.8
	c0-0.3,0.2-0.6,0.5-0.8c0.5-0.2,1-0.4,1.5-0.3c0.8,0,1.6,0.2,2.4,0.4c0.5,0.2,1.1,0.4,1.6,0.4c0.6,0,1.2-0.4,1.4-0.9
	c0.3-0.5,0.5-1.1,0.6-1.7c0-0.7-0.6-1.4-1.8-1.8c-1.4-0.5-2.8-0.8-4.2-0.7c-2.3,0-4,0.5-5.1,1.6c-1.1,1.1-1.6,2.5-1.6,4
	c0,1,0.3,1.9,0.9,2.7c0.6,0.7,1.3,1.2,2.1,1.5c0.8,0.3,1.6,0.5,2.5,0.7c0.7,0.1,1.4,0.4,2.1,0.7c0.6,0.3,0.9,0.6,0.9,1
	c0,0.8-0.7,1.1-2.2,1.1c-0.8,0-1.5-0.1-2.2-0.4c-0.5-0.2-1.1-0.4-1.6-0.7c-0.3-0.2-0.7-0.3-1.1-0.4c-0.5,0-1,0.4-1.3,0.8
	c-0.3,0.5-0.5,1-0.5,1.6C120.1,214.1,120.8,214.8,122.1,215.5L122.1,215.5z M135.8,215.8c0.3,0.3,0.7,0.5,1.1,0.5
	c0.4,0,0.8-0.2,1.1-0.5c0.3-0.3,0.5-0.8,0.5-1.2c0-0.5-0.2-0.9-0.5-1.3c-0.3-0.3-0.7-0.5-1.1-0.5c-0.4,0-0.9,0.2-1.1,0.5
	c-0.3,0.4-0.5,0.8-0.5,1.3C135.4,215,135.5,215.5,135.8,215.8L135.8,215.8z M138.8,200.7l5.6,15c0.2,0.5,0.7,0.8,1.3,0.7
	c0.3-0.1,0.6-0.4,0.7-0.7l3.7-11.5l3.7,11.7c0.1,0.3,0.4,0.5,0.7,0.5c0.4,0.1,0.8-0.2,0.9-0.6l5.6-15.2c0.1-0.2,0.2-0.3,0.1-0.5
	c0-0.3-0.2-0.6-0.4-0.8c-0.3-0.2-0.6-0.3-0.9-0.3c-0.4-0.1-0.7,0.2-0.8,0.5l-4.7,13l-3.5-11.8c-0.1-0.4-0.4-0.6-0.8-0.6
	c-0.4,0-0.7,0.2-0.8,0.5l-3.7,11.6l-4.6-12.8c-0.1-0.4-0.5-0.6-0.8-0.5c-0.3,0-0.7,0.1-0.9,0.3c-0.3,0.1-0.4,0.4-0.4,0.7
	C138.6,200.3,138.7,200.5,138.8,200.7L138.8,200.7L138.8,200.7z M163.7,215.2c1,0.8,2.2,1.3,3.5,1.2c2,0,3.8-0.9,5.4-2.8v1.6
	c0,0.3,0.1,0.5,0.3,0.7c0.2,0.2,0.5,0.3,0.8,0.3c0.3,0,0.6-0.1,0.8-0.3c0.2-0.2,0.3-0.4,0.3-0.7v-9.3c0.1-1.8-0.5-3.5-1.6-5
	c-1-1.3-2.7-2-4.9-2c-1.1,0-2.2,0.2-3.3,0.6c-1,0.4-1.5,0.8-1.5,1.3c0,0.3,0.1,0.6,0.3,0.8c0.1,0.2,0.4,0.4,0.7,0.4
	c0.4-0.1,0.8-0.3,1.2-0.5c0.8-0.3,1.7-0.5,2.6-0.5c1.4,0,2.5,0.5,3.2,1.4c0.7,1,1.1,2.2,1,3.4v0.8h-1.8c-2.7,0-4.8,0.4-6.2,1.1
	s-2.1,2-2.1,3.9C162.4,213.2,162.8,214.4,163.7,215.2L163.7,215.2z M165.2,209.8c0.4-0.5,0.9-0.8,1.5-0.9c0.6-0.2,1.3-0.3,2-0.4
	c0.8-0.1,1.6-0.1,2.4-0.1h1.5v2.3c0,0.8-0.5,1.7-1.5,2.5c-0.9,0.8-2,1.2-3.2,1.3c-0.8,0-1.6-0.2-2.3-0.7c-0.6-0.6-0.9-1.4-0.9-2.2
	C164.7,210.8,164.9,210.2,165.2,209.8L165.2,209.8z M183.9,216.1h1c0.3,0,0.6-0.1,0.8-0.3c0.2-0.2,0.3-0.5,0.3-0.8
	c0-0.3-0.1-0.6-0.3-0.8c-0.2-0.2-0.5-0.3-0.8-0.3h-1c-1.2,0-2.1-0.2-2.6-0.7c-0.5-0.5-0.7-1.3-0.7-2.4v-9.7h4.6
	c0.2,0,0.5-0.1,0.6-0.3c0.3-0.4,0.3-1,0-1.4c-0.1-0.2-0.4-0.3-0.6-0.3h-4.6V192c0-0.3-0.1-0.5-0.4-0.6c-0.2-0.2-0.5-0.3-0.8-0.2
	c-0.3,0-0.6,0.1-0.8,0.3c-0.2,0.1-0.4,0.4-0.4,0.6v18.9C178.3,214.4,180.2,216.1,183.9,216.1L183.9,216.1L183.9,216.1z M189.2,214.5
	c1.2,1.2,2.9,1.9,5.2,1.9c1.3,0,2.6-0.2,3.7-0.8c1-0.5,1.5-1,1.5-1.6c0-0.3-0.1-0.6-0.3-0.8c-0.2-0.2-0.5-0.4-0.8-0.4
	c-0.3,0-0.5,0.2-0.7,0.3c-0.4,0.3-0.8,0.5-1.3,0.7c-0.7,0.2-1.4,0.4-2.1,0.3c-1.6,0-2.7-0.4-3.5-1.2c-0.8-0.8-1.2-1.9-1.2-3.4v-3.8
	c0-1.5,0.4-2.6,1.2-3.4c0.8-0.8,2-1.2,3.5-1.2c0.7,0,1.3,0.1,2,0.3c0.4,0.2,0.9,0.4,1.3,0.6c0.2,0.2,0.4,0.3,0.7,0.3
	c0.3,0,0.5-0.1,0.7-0.4c0.2-0.2,0.3-0.5,0.3-0.8c0-0.5-0.5-1-1.5-1.6c-1.1-0.5-2.4-0.8-3.6-0.8c-2.3,0-4,0.6-5.2,1.9
	c-1.2,1.3-1.8,2.9-1.8,4.9v3.8C187.4,211.6,188,213.3,189.2,214.5L189.2,214.5z M202.4,215.8c0.2,0.2,0.5,0.3,0.8,0.3
	c0.3,0,0.6-0.1,0.8-0.3c0.2-0.1,0.3-0.4,0.4-0.6v-9.5c-0.1-1.2,0.4-2.4,1.3-3.3c1.6-1.7,4.3-1.7,5.9,0c0.1,0.1,0.1,0.1,0.2,0.2
	c0.8,0.8,1.3,2,1.3,3.1v9.5c0,0.3,0.1,0.5,0.4,0.7c0.2,0.2,0.5,0.3,0.8,0.3c0.3,0,0.6-0.1,0.8-0.3c0.2-0.2,0.4-0.4,0.3-0.7v-9.5
	c0-1.8-0.6-3.5-1.9-4.7c-1.1-1.3-2.8-2-4.5-2c-2,0-3.8,1-4.7,2.8v-12c0-0.2-0.1-0.5-0.3-0.6c-0.2-0.2-0.5-0.3-0.8-0.3
	c-0.3,0-0.6,0.1-0.8,0.3c-0.2,0.1-0.3,0.4-0.3,0.6v25.5C202.1,215.4,202.2,215.7,202.4,215.8L202.4,215.8z M163.5,168.5h-18.1
	c-2.3,0-4.1-1.8-4.1-4.1v-8.6c0-1.1-0.9-2-2.1-2h-23c-1.1,0-2,0.9-2.1,2v8.6c0,2.3-1.9,4.1-4.1,4.1H92c-2.3,0-4.1-1.8-4.1-4.1v-32.6
	c0-2.3,1.9-4.1,4.1-4.1h47.3c1.1,0,2-0.9,2.1-2v-10.6c0-1.1-0.9-2-2.1-2H92c-2.3,0-4.1-1.8-4.1-4.1V91.1c0-2.3,1.9-4.1,4.1-4.1h71.6
	c2.3,0,4.1,1.8,4.1,4.1v73.3C167.6,166.7,165.8,168.5,163.5,168.5z"/>
</svg>
